<svg xmlns="http://www.w3.org/2000/svg" xmlns:xlink="http://www.w3.org/1999/xlink" width="243.24" height="265.49" viewBox="0 0 243.24 265.49">
  <g id="Group_587" data-name="Group 587" transform="translate(-17.498)">
    <g id="Group_507" data-name="Group 507" transform="translate(22.144)">
      <path id="Path_2054" data-name="Path 2054" d="M360.587,221.277,217.431,293.6l-95.438-48.212L265.15,173.064Z" transform="translate(-121.993 -81.574)" fill="#ff8075"/>
      <path id="Path_2055" data-name="Path 2055" d="M360.552,305.268v-1.36L265.114,255.7v1.36Z" transform="translate(-265.114 -91.887)" fill="#ff7064"/>
      <path id="Path_2056" data-name="Path 2056" d="M224.046,132.584,349.367,69.394c4.887-2.464,10.991.622,10.991,5.558v85.326L219.5,231.3l-.848,1.97-1.587-.742V143.15A12.01,12.01,0,0,1,224.046,132.584Z" transform="translate(-216.861 -68.527)" fill="#ff8075"/>
      <path id="Path_2057" data-name="Path 2057" d="M121.993,301.83l143.156-72.318v-1.36L121.993,300.47Z" transform="translate(-26.555 -88.449)" fill="#ff8075"/>
      <path id="Path_2058" data-name="Path 2058" d="M215.481,233.376,358.77,161.125V75.8c0-4.935-6.1-8.021-10.99-5.558L222.459,133.432A12.011,12.011,0,0,0,215.481,144Z" transform="translate(-213.687 -68.633)" fill="#f67065"/>
      <path id="Path_2059" data-name="Path 2059" d="M220.73,227.934l132.79-66.956V73.925L220.73,140.881Z" transform="translate(-213.686 -69.201)" fill="#ffe3e0"/>
      <g id="Group_505" data-name="Group 505" transform="translate(17.401 101.164)">
        <path id="Path_2060" data-name="Path 2060" d="M220.3,191.771l9.049-4.58c.4-.2.3-.584-.227-.85l-3.933-1.985a2.136,2.136,0,0,0-1.681-.114l-9.049,4.581c-.4.2-.3.584.226.85l3.934,1.985A2.133,2.133,0,0,0,220.3,191.771Z" transform="translate(-100.636 -184.118)" fill="#ff8075"/>
        <path id="Path_2061" data-name="Path 2061" d="M231.651,198.34l9.048-4.581c.4-.2.3-.583-.226-.849l-3.934-1.986a2.137,2.137,0,0,0-1.681-.113l-9.048,4.58c-.4.2-.3.585.226.85l3.934,1.986A2.14,2.14,0,0,0,231.651,198.34Z" transform="translate(-123.348 -184.938)" fill="#ff8075"/>
        <path id="Path_2062" data-name="Path 2062" d="M243,204.909l9.049-4.581c.4-.2.3-.584-.227-.85l-3.933-1.985a2.133,2.133,0,0,0-1.682-.113l-9.049,4.58c-.4.2-.3.584.227.85l3.933,1.985A2.137,2.137,0,0,0,243,204.909Z" transform="translate(-146.059 -185.757)" fill="#ff8075"/>
        <path id="Path_2063" data-name="Path 2063" d="M254.359,211.477l9.048-4.581c.4-.2.3-.583-.226-.849l-3.934-1.985a2.134,2.134,0,0,0-1.68-.114l-9.049,4.581c-.4.2-.3.584.226.849l3.934,1.986A2.136,2.136,0,0,0,254.359,211.477Z" transform="translate(-168.771 -186.577)" fill="#ff8075"/>
        <path id="Path_2064" data-name="Path 2064" d="M265.713,218.046l9.049-4.581c.4-.2.3-.584-.226-.849L270.6,210.63a2.133,2.133,0,0,0-1.681-.113l-9.049,4.58c-.4.2-.3.584.227.85l3.933,1.985A2.137,2.137,0,0,0,265.713,218.046Z" transform="translate(-191.482 -187.397)" fill="#ff8075"/>
        <path id="Path_2065" data-name="Path 2065" d="M277.068,224.614l9.048-4.58c.4-.2.3-.584-.226-.85l-3.933-1.985a2.137,2.137,0,0,0-1.682-.114l-9.049,4.581c-.4.2-.3.584.226.85l3.934,1.985A2.133,2.133,0,0,0,277.068,224.614Z" transform="translate(-214.195 -188.217)" fill="#ff8075"/>
        <path id="Path_2066" data-name="Path 2066" d="M288.422,231.183l9.049-4.581c.4-.2.3-.584-.226-.849l-3.934-1.986a2.137,2.137,0,0,0-1.681-.113l-9.049,4.581c-.4.2-.3.583.227.849l3.934,1.985A2.135,2.135,0,0,0,288.422,231.183Z" transform="translate(-236.906 -189.037)" fill="#ff8075"/>
        <path id="Path_2067" data-name="Path 2067" d="M299.777,237.751l9.049-4.58c.4-.2.3-.584-.227-.85l-3.934-1.985a2.135,2.135,0,0,0-1.68-.114l-9.049,4.581c-.4.2-.3.584.226.85l3.934,1.985A2.132,2.132,0,0,0,299.777,237.751Z" transform="translate(-259.618 -189.856)" fill="#ff8075"/>
        <path id="Path_2068" data-name="Path 2068" d="M311.132,244.32l9.048-4.58c.4-.2.3-.585-.226-.85L316.02,236.9a2.141,2.141,0,0,0-1.682-.113l-9.049,4.581c-.4.2-.3.584.227.85l3.934,1.985A2.137,2.137,0,0,0,311.132,244.32Z" transform="translate(-282.329 -190.676)" fill="#ff8075"/>
        <path id="Path_2069" data-name="Path 2069" d="M322.485,250.889l9.049-4.581c.4-.2.3-.584-.226-.85l-3.935-1.985a2.13,2.13,0,0,0-1.68-.113l-9.049,4.58c-.4.2-.3.584.226.85l3.935,1.985A2.134,2.134,0,0,0,322.485,250.889Z" transform="translate(-305.041 -191.496)" fill="#ff8075"/>
        <path id="Path_2070" data-name="Path 2070" d="M333.841,257.457l9.049-4.58c.4-.2.3-.584-.227-.85l-3.934-1.985a2.137,2.137,0,0,0-1.681-.114L328,254.509c-.4.2-.3.584.227.85l3.934,1.985A2.133,2.133,0,0,0,333.841,257.457Z" transform="translate(-327.753 -192.316)" fill="#ff8075"/>
        <path id="Path_2071" data-name="Path 2071" d="M213.591,197.254l8.7-4.4c.5-.252.372-.725-.281-1.055l-6.634-3.348a2.65,2.65,0,0,0-2.087-.14l-8.7,4.4c-.5.253-.373.725.281,1.055l6.634,3.348A2.649,2.649,0,0,0,213.591,197.254Z" transform="translate(-83.713 -184.622)" fill="#ff8075"/>
        <path id="Path_2072" data-name="Path 2072" d="M224.946,203.823l8.7-4.4c.5-.252.373-.725-.28-1.055l-6.635-3.348a2.651,2.651,0,0,0-2.086-.141l-8.7,4.4c-.5.252-.373.725.281,1.055l6.634,3.348A2.655,2.655,0,0,0,224.946,203.823Z" transform="translate(-106.424 -185.441)" fill="#ff8075"/>
        <path id="Path_2073" data-name="Path 2073" d="M236.3,210.391l8.7-4.4c.5-.253.372-.725-.281-1.055l-6.634-3.348a2.648,2.648,0,0,0-2.086-.14l-8.7,4.4c-.5.253-.373.725.281,1.055l6.634,3.349A2.648,2.648,0,0,0,236.3,210.391Z" transform="translate(-129.136 -186.261)" fill="#ff8075"/>
        <path id="Path_2074" data-name="Path 2074" d="M247.654,216.96l8.7-4.4c.5-.252.373-.724-.281-1.055l-6.634-3.348a2.652,2.652,0,0,0-2.086-.141l-8.7,4.4c-.5.252-.372.725.281,1.055l6.634,3.348A2.652,2.652,0,0,0,247.654,216.96Z" transform="translate(-151.848 -187.081)" fill="#ff8075"/>
        <path id="Path_2075" data-name="Path 2075" d="M259.009,223.528l8.7-4.4c.5-.253.373-.725-.281-1.055l-6.634-3.348a2.648,2.648,0,0,0-2.086-.141l-8.7,4.4c-.5.252-.373.725.281,1.055l6.634,3.348A2.648,2.648,0,0,0,259.009,223.528Z" transform="translate(-174.56 -187.901)" fill="#ff8075"/>
        <path id="Path_2076" data-name="Path 2076" d="M270.364,230.1l8.7-4.4c.5-.252.373-.724-.281-1.054l-6.634-3.349a2.647,2.647,0,0,0-2.086-.14l-8.7,4.4c-.5.253-.372.725.281,1.055l6.634,3.348A2.658,2.658,0,0,0,270.364,230.1Z" transform="translate(-197.271 -188.721)" fill="#ff8075"/>
        <path id="Path_2077" data-name="Path 2077" d="M281.718,236.665l8.7-4.4c.5-.253.373-.725-.281-1.055l-6.634-3.348a2.652,2.652,0,0,0-2.087-.141l-8.7,4.4c-.5.252-.373.725.281,1.055l6.634,3.348A2.648,2.648,0,0,0,281.718,236.665Z" transform="translate(-219.983 -189.54)" fill="#ff8075"/>
        <path id="Path_2078" data-name="Path 2078" d="M293.072,243.234l8.7-4.4c.5-.252.374-.724-.281-1.054l-6.633-3.348a2.651,2.651,0,0,0-2.088-.141l-8.7,4.4c-.5.252-.372.725.281,1.054l6.634,3.348A2.654,2.654,0,0,0,293.072,243.234Z" transform="translate(-242.695 -190.36)" fill="#ff8075"/>
        <path id="Path_2079" data-name="Path 2079" d="M304.427,249.8l8.7-4.4c.5-.252.373-.725-.281-1.055L306.21,241a2.648,2.648,0,0,0-2.086-.14l-8.7,4.4c-.5.253-.373.725.281,1.055l6.634,3.348A2.654,2.654,0,0,0,304.427,249.8Z" transform="translate(-265.406 -191.18)" fill="#ff8075"/>
        <path id="Path_2080" data-name="Path 2080" d="M315.781,256.371l8.7-4.4c.5-.253.372-.725-.282-1.055l-6.632-3.348a2.655,2.655,0,0,0-2.088-.141l-8.7,4.4c-.5.252-.372.725.282,1.054l6.633,3.349A2.651,2.651,0,0,0,315.781,256.371Z" transform="translate(-288.118 -192)" fill="#ff8075"/>
        <path id="Path_2081" data-name="Path 2081" d="M327.136,262.94l8.7-4.4c.5-.252.373-.725-.281-1.055l-6.634-3.348a2.648,2.648,0,0,0-2.087-.14l-8.7,4.4c-.5.253-.373.725.281,1.055l6.634,3.348A2.651,2.651,0,0,0,327.136,262.94Z" transform="translate(-310.83 -192.819)" fill="#ff8075"/>
        <path id="Path_2082" data-name="Path 2082" d="M203.551,203.045l8.7-4.4c.5-.252.373-.724-.281-1.054l-6.634-3.348a2.648,2.648,0,0,0-2.087-.141l-8.7,4.4c-.5.252-.373.724.281,1.054l6.634,3.348A2.65,2.65,0,0,0,203.551,203.045Z" transform="translate(-63.629 -185.344)" fill="#ff8075"/>
        <path id="Path_2083" data-name="Path 2083" d="M214.905,209.614l8.7-4.4c.5-.252.372-.725-.281-1.055l-6.634-3.348a2.65,2.65,0,0,0-2.087-.14l-8.7,4.4c-.5.253-.373.725.281,1.055l6.634,3.348A2.652,2.652,0,0,0,214.905,209.614Z" transform="translate(-86.341 -186.164)" fill="#ff8075"/>
        <path id="Path_2084" data-name="Path 2084" d="M226.259,216.182l8.7-4.4c.5-.253.373-.725-.281-1.055l-6.634-3.348a2.652,2.652,0,0,0-2.086-.141l-8.7,4.4c-.5.252-.373.724.281,1.054l6.634,3.348A2.648,2.648,0,0,0,226.259,216.182Z" transform="translate(-109.053 -186.984)" fill="#ff8075"/>
        <path id="Path_2085" data-name="Path 2085" d="M237.614,222.751l8.7-4.4c.5-.252.372-.725-.281-1.055l-6.634-3.348a2.648,2.648,0,0,0-2.087-.14l-8.7,4.4c-.5.253-.373.725.281,1.055l6.634,3.348A2.648,2.648,0,0,0,237.614,222.751Z" transform="translate(-131.765 -187.804)" fill="#ff8075"/>
        <path id="Path_2086" data-name="Path 2086" d="M248.968,229.32l8.7-4.4c.5-.252.373-.725-.281-1.055l-6.634-3.348a2.652,2.652,0,0,0-2.086-.141l-8.7,4.4c-.5.252-.372.724.281,1.055l6.634,3.348A2.652,2.652,0,0,0,248.968,229.32Z" transform="translate(-154.476 -188.623)" fill="#ff8075"/>
        <path id="Path_2087" data-name="Path 2087" d="M260.323,235.888l8.7-4.4c.5-.253.373-.725-.281-1.055l-6.634-3.348a2.648,2.648,0,0,0-2.087-.14l-8.7,4.4c-.5.253-.373.725.281,1.055l6.634,3.348A2.648,2.648,0,0,0,260.323,235.888Z" transform="translate(-177.188 -189.443)" fill="#ff8075"/>
        <path id="Path_2088" data-name="Path 2088" d="M271.678,242.457l8.7-4.4c.5-.252.373-.724-.281-1.055l-6.634-3.348a2.652,2.652,0,0,0-2.087-.141l-8.7,4.4c-.5.252-.372.725.281,1.055l6.634,3.348A2.655,2.655,0,0,0,271.678,242.457Z" transform="translate(-199.9 -190.263)" fill="#ff8075"/>
        <path id="Path_2089" data-name="Path 2089" d="M283.032,249.025l8.7-4.4c.5-.253.373-.725-.281-1.055l-6.634-3.348a2.649,2.649,0,0,0-2.086-.141l-8.7,4.4c-.5.252-.373.725.281,1.055l6.634,3.348A2.648,2.648,0,0,0,283.032,249.025Z" transform="translate(-222.612 -191.083)" fill="#ff8075"/>
        <path id="Path_2090" data-name="Path 2090" d="M294.387,255.594l8.7-4.4c.5-.252.373-.724-.281-1.054l-6.633-3.349a2.651,2.651,0,0,0-2.087-.14l-8.7,4.4c-.5.253-.372.725.281,1.055l6.634,3.348A2.655,2.655,0,0,0,294.387,255.594Z" transform="translate(-245.323 -191.903)" fill="#ff8075"/>
        <path id="Path_2091" data-name="Path 2091" d="M305.74,262.162l8.7-4.4c.5-.253.373-.725-.281-1.054l-6.634-3.348a2.652,2.652,0,0,0-2.086-.141l-8.7,4.4c-.5.252-.373.725.281,1.055l6.634,3.348A2.648,2.648,0,0,0,305.74,262.162Z" transform="translate(-268.035 -192.722)" fill="#ff8075"/>
        <path id="Path_2092" data-name="Path 2092" d="M317.1,268.731l8.7-4.4c.5-.252.372-.724-.282-1.054l-6.633-3.348a2.651,2.651,0,0,0-2.088-.141l-8.7,4.4c-.5.252-.372.724.282,1.054l6.633,3.348A2.65,2.65,0,0,0,317.1,268.731Z" transform="translate(-290.747 -193.542)" fill="#ff8075"/>
        <path id="Path_2093" data-name="Path 2093" d="M193.51,208.836l8.7-4.4c.5-.253.372-.725-.281-1.055l-6.634-3.348a2.651,2.651,0,0,0-2.087-.141l-8.7,4.4c-.5.252-.373.725.281,1.055l6.633,3.348A2.651,2.651,0,0,0,193.51,208.836Z" transform="translate(-43.546 -186.067)" fill="#ff8075"/>
        <path id="Path_2094" data-name="Path 2094" d="M204.864,215.405l8.7-4.4c.5-.252.373-.724-.281-1.054l-6.634-3.349a2.648,2.648,0,0,0-2.086-.14l-8.7,4.4c-.5.253-.373.725.281,1.055l6.634,3.348A2.652,2.652,0,0,0,204.864,215.405Z" transform="translate(-66.258 -186.887)" fill="#ff8075"/>
        <path id="Path_2095" data-name="Path 2095" d="M216.219,221.973l8.7-4.4c.5-.253.372-.725-.281-1.055L218,213.169a2.655,2.655,0,0,0-2.088-.141l-8.7,4.4c-.5.252-.373.725.281,1.055l6.634,3.348A2.648,2.648,0,0,0,216.219,221.973Z" transform="translate(-88.969 -187.707)" fill="#ff8075"/>
        <path id="Path_2096" data-name="Path 2096" d="M227.573,228.542l8.7-4.4c.5-.252.373-.724-.281-1.054l-6.634-3.348a2.648,2.648,0,0,0-2.086-.141l-8.7,4.4c-.5.252-.373.724.281,1.054l6.634,3.348A2.648,2.648,0,0,0,227.573,228.542Z" transform="translate(-111.681 -188.526)" fill="#ff8075"/>
        <path id="Path_2097" data-name="Path 2097" d="M238.928,235.111l8.7-4.4c.5-.252.372-.725-.281-1.055l-6.634-3.348a2.648,2.648,0,0,0-2.086-.14l-8.7,4.4c-.5.253-.373.725.281,1.055l6.634,3.348A2.652,2.652,0,0,0,238.928,235.111Z" transform="translate(-134.393 -189.346)" fill="#ff8075"/>
        <path id="Path_2098" data-name="Path 2098" d="M250.282,241.679l8.7-4.4c.5-.253.373-.725-.281-1.055l-6.634-3.348a2.652,2.652,0,0,0-2.086-.141l-8.7,4.4c-.5.252-.372.724.281,1.054l6.634,3.349A2.648,2.648,0,0,0,250.282,241.679Z" transform="translate(-157.104 -190.166)" fill="#ff8075"/>
        <path id="Path_2099" data-name="Path 2099" d="M261.637,248.248l8.7-4.4c.5-.252.373-.725-.281-1.055l-6.634-3.348a2.648,2.648,0,0,0-2.087-.14l-8.7,4.4c-.5.253-.373.725.281,1.055l6.634,3.348A2.649,2.649,0,0,0,261.637,248.248Z" transform="translate(-179.816 -190.986)" fill="#ff8075"/>
        <path id="Path_2100" data-name="Path 2100" d="M272.992,254.817l8.7-4.4c.5-.252.373-.725-.281-1.055l-6.634-3.348a2.652,2.652,0,0,0-2.086-.141l-8.7,4.4c-.5.252-.372.724.281,1.055l6.634,3.348A2.654,2.654,0,0,0,272.992,254.817Z" transform="translate(-202.528 -191.806)" fill="#ff8075"/>
        <path id="Path_2101" data-name="Path 2101" d="M284.346,261.385l8.7-4.4c.5-.253.373-.725-.281-1.055l-6.634-3.349a2.648,2.648,0,0,0-2.087-.14l-8.7,4.4c-.5.253-.373.725.281,1.056l6.634,3.348A2.649,2.649,0,0,0,284.346,261.385Z" transform="translate(-225.24 -192.625)" fill="#ff8075"/>
        <path id="Path_2102" data-name="Path 2102" d="M295.7,267.954l8.7-4.4c.5-.252.373-.724-.281-1.055l-6.634-3.348a2.652,2.652,0,0,0-2.087-.141l-8.7,4.4c-.5.252-.372.725.281,1.054l6.634,3.348A2.654,2.654,0,0,0,295.7,267.954Z" transform="translate(-247.952 -193.445)" fill="#ff8075"/>
        <path id="Path_2103" data-name="Path 2103" d="M307.054,274.522l8.7-4.4c.5-.253.373-.725-.281-1.055l-6.634-3.348a2.648,2.648,0,0,0-2.087-.141l-8.7,4.4c-.5.252-.373.725.281,1.055l6.634,3.348A2.648,2.648,0,0,0,307.054,274.522Z" transform="translate(-270.663 -194.265)" fill="#ff8075"/>
        <path id="Path_2104" data-name="Path 2104" d="M183.469,214.628l8.7-4.4c.5-.252.373-.725-.281-1.055l-6.634-3.348a2.654,2.654,0,0,0-2.088-.141l-8.7,4.4c-.5.252-.373.724.281,1.055l6.634,3.348A2.652,2.652,0,0,0,183.469,214.628Z" transform="translate(-23.463 -186.79)" fill="#ff8075"/>
        <path id="Path_2105" data-name="Path 2105" d="M194.824,221.2l8.7-4.4c.5-.253.372-.725-.281-1.055l-6.634-3.349a2.65,2.65,0,0,0-2.088-.14l-8.7,4.4c-.5.253-.372.725.282,1.055l6.633,3.349A2.65,2.65,0,0,0,194.824,221.2Z" transform="translate(-46.174 -187.61)" fill="#ff8075"/>
        <path id="Path_2106" data-name="Path 2106" d="M206.178,227.765l8.7-4.4c.5-.252.373-.725-.281-1.055l-6.634-3.348a2.653,2.653,0,0,0-2.087-.141l-8.7,4.4c-.5.252-.373.725.281,1.055l6.634,3.348A2.652,2.652,0,0,0,206.178,227.765Z" transform="translate(-68.886 -188.429)" fill="#ff8075"/>
        <path id="Path_2107" data-name="Path 2107" d="M217.533,234.333l8.7-4.4c.5-.253.372-.725-.281-1.055l-6.634-3.348a2.651,2.651,0,0,0-2.088-.141l-8.7,4.4c-.5.252-.373.725.281,1.055l6.634,3.348A2.648,2.648,0,0,0,217.533,234.333Z" transform="translate(-91.598 -189.249)" fill="#ff8075"/>
        <path id="Path_2108" data-name="Path 2108" d="M228.887,240.9l8.7-4.4c.5-.252.373-.725-.281-1.054L230.67,232.1a2.648,2.648,0,0,0-2.087-.14l-8.7,4.4c-.5.253-.373.725.281,1.055l6.634,3.348A2.653,2.653,0,0,0,228.887,240.9Z" transform="translate(-114.309 -190.069)" fill="#ff8075"/>
        <path id="Path_2109" data-name="Path 2109" d="M240.242,247.47l8.7-4.4c.5-.253.372-.725-.281-1.055l-6.634-3.348a2.654,2.654,0,0,0-2.088-.141l-8.7,4.4c-.5.252-.373.725.281,1.055l6.634,3.348A2.648,2.648,0,0,0,240.242,247.47Z" transform="translate(-137.021 -190.889)" fill="#ff8075"/>
        <path id="Path_2110" data-name="Path 2110" d="M251.6,254.039l8.7-4.4c.5-.252.373-.725-.281-1.054l-6.634-3.348a2.649,2.649,0,0,0-2.086-.141l-8.7,4.4c-.5.252-.373.724.281,1.054l6.634,3.348A2.649,2.649,0,0,0,251.6,254.039Z" transform="translate(-159.733 -191.709)" fill="#ff8075"/>
        <path id="Path_2111" data-name="Path 2111" d="M262.951,260.608l8.7-4.4c.5-.252.372-.725-.281-1.055l-6.634-3.348a2.648,2.648,0,0,0-2.087-.14l-8.7,4.4c-.5.253-.373.725.281,1.055l6.634,3.348A2.653,2.653,0,0,0,262.951,260.608Z" transform="translate(-182.445 -192.528)" fill="#ff8075"/>
        <path id="Path_2112" data-name="Path 2112" d="M274.3,267.176l8.7-4.4c.5-.253.373-.725-.281-1.055l-6.634-3.348a2.652,2.652,0,0,0-2.086-.141l-8.7,4.4c-.5.252-.372.724.281,1.054l6.634,3.348A2.648,2.648,0,0,0,274.3,267.176Z" transform="translate(-205.156 -193.348)" fill="#ff8075"/>
        <path id="Path_2113" data-name="Path 2113" d="M285.66,273.745l8.7-4.4c.5-.252.373-.725-.281-1.055l-6.634-3.348a2.648,2.648,0,0,0-2.087-.14l-8.7,4.4c-.5.253-.373.725.281,1.055l6.634,3.348A2.649,2.649,0,0,0,285.66,273.745Z" transform="translate(-227.868 -194.168)" fill="#ff8075"/>
        <path id="Path_2114" data-name="Path 2114" d="M297.015,280.314l8.7-4.4c.5-.252.373-.725-.281-1.055l-6.634-3.348a2.652,2.652,0,0,0-2.087-.141l-8.7,4.4c-.5.252-.372.724.281,1.055l6.634,3.348A2.654,2.654,0,0,0,297.015,280.314Z" transform="translate(-250.58 -194.988)" fill="#ff8075"/>
        <path id="Path_2115" data-name="Path 2115" d="M173.43,220.419l8.7-4.4c.5-.252.373-.725-.281-1.055l-6.633-3.348a2.655,2.655,0,0,0-2.088-.141l-8.7,4.4c-.5.252-.373.725.281,1.055l6.634,3.348A2.655,2.655,0,0,0,173.43,220.419Z" transform="translate(-3.38 -187.513)" fill="#ff8075"/>
        <path id="Path_2116" data-name="Path 2116" d="M184.783,226.987l8.7-4.4c.5-.253.373-.725-.281-1.055l-6.634-3.349a2.658,2.658,0,0,0-2.087-.14l-8.7,4.4c-.5.252-.373.724.281,1.054l6.634,3.348A2.648,2.648,0,0,0,184.783,226.987Z" transform="translate(-26.091 -188.332)" fill="#ff8075"/>
        <path id="Path_2117" data-name="Path 2117" d="M196.138,233.556l8.7-4.4c.5-.252.372-.725-.282-1.055l-6.633-3.348a2.654,2.654,0,0,0-2.088-.141l-8.7,4.4c-.5.252-.372.725.282,1.055l6.633,3.348A2.651,2.651,0,0,0,196.138,233.556Z" transform="translate(-48.803 -189.152)" fill="#ff8075"/>
        <path id="Path_2118" data-name="Path 2118" d="M207.643,268.8l65.184-32.995c.581-.294.435-.845-.328-1.23l-6.241-3.15a3.085,3.085,0,0,0-2.433-.164l-65.184,32.995c-.582.295-.435.845.327,1.23l6.241,3.15A3.1,3.1,0,0,0,207.643,268.8Z" transform="translate(-128.301 -189.979)" fill="#ff8075"/>
        <path id="Path_2119" data-name="Path 2119" d="M275.619,279.536l8.7-4.4c.5-.252.373-.725-.281-1.054l-6.634-3.348a2.652,2.652,0,0,0-2.087-.14l-8.7,4.4c-.5.252-.372.724.281,1.054l6.634,3.348A2.649,2.649,0,0,0,275.619,279.536Z" transform="translate(-207.785 -194.891)" fill="#ff8075"/>
        <path id="Path_2120" data-name="Path 2120" d="M286.974,286.105l8.7-4.4c.5-.252.373-.725-.281-1.055l-6.634-3.348a2.65,2.65,0,0,0-2.088-.14l-8.7,4.4c-.5.253-.373.725.281,1.055l6.634,3.348A2.651,2.651,0,0,0,286.974,286.105Z" transform="translate(-230.497 -195.71)" fill="#ff8075"/>
      </g>
      <g id="Group_506" data-name="Group 506" transform="translate(17.401 100.911)">
        <path id="Path_2121" data-name="Path 2121" d="M220.3,191.481l9.049-4.58c.4-.2.3-.584-.227-.85l-3.933-1.985a2.137,2.137,0,0,0-1.681-.114l-9.049,4.581c-.4.2-.3.584.226.85l3.934,1.985A2.133,2.133,0,0,0,220.3,191.481Z" transform="translate(-100.636 -183.828)" fill="#ea4335"/>
        <path id="Path_2122" data-name="Path 2122" d="M231.651,198.05l9.048-4.581c.4-.2.3-.584-.226-.85l-3.934-1.985a2.137,2.137,0,0,0-1.681-.113l-9.048,4.58c-.4.2-.3.584.226.85l3.934,1.986A2.14,2.14,0,0,0,231.651,198.05Z" transform="translate(-123.348 -184.648)" fill="#ea4335"/>
        <path id="Path_2123" data-name="Path 2123" d="M243,204.619l9.049-4.581c.4-.2.3-.584-.227-.85l-3.933-1.985a2.133,2.133,0,0,0-1.682-.113l-9.049,4.58c-.4.2-.3.584.227.85l3.933,1.985A2.137,2.137,0,0,0,243,204.619Z" transform="translate(-146.059 -185.467)" fill="#ea4335"/>
        <path id="Path_2124" data-name="Path 2124" d="M254.359,211.187l9.048-4.581c.4-.2.3-.583-.226-.849l-3.934-1.985a2.135,2.135,0,0,0-1.68-.114l-9.049,4.581c-.4.2-.3.584.226.849l3.934,1.986A2.136,2.136,0,0,0,254.359,211.187Z" transform="translate(-168.771 -186.287)" fill="#ea4335"/>
        <path id="Path_2125" data-name="Path 2125" d="M265.713,217.756l9.049-4.581c.4-.2.3-.584-.226-.85L270.6,210.34a2.133,2.133,0,0,0-1.681-.113l-9.049,4.58c-.4.2-.3.584.227.85l3.933,1.985A2.137,2.137,0,0,0,265.713,217.756Z" transform="translate(-191.482 -187.107)" fill="#ea4335"/>
        <path id="Path_2126" data-name="Path 2126" d="M277.068,224.324l9.048-4.58c.4-.2.3-.584-.226-.85l-3.933-1.985a2.137,2.137,0,0,0-1.682-.114l-9.049,4.581c-.4.2-.3.584.226.849l3.934,1.986A2.133,2.133,0,0,0,277.068,224.324Z" transform="translate(-214.195 -187.927)" fill="#ea4335"/>
        <path id="Path_2127" data-name="Path 2127" d="M288.422,230.893l9.049-4.581c.4-.2.3-.584-.226-.849l-3.934-1.986a2.136,2.136,0,0,0-1.681-.113l-9.049,4.581c-.4.2-.3.583.227.849l3.934,1.985A2.135,2.135,0,0,0,288.422,230.893Z" transform="translate(-236.906 -188.747)" fill="#ea4335"/>
        <path id="Path_2128" data-name="Path 2128" d="M299.777,237.461l9.049-4.58c.4-.2.3-.584-.227-.85l-3.934-1.985a2.135,2.135,0,0,0-1.68-.114l-9.049,4.581c-.4.2-.3.584.226.85l3.934,1.985A2.133,2.133,0,0,0,299.777,237.461Z" transform="translate(-259.618 -189.566)" fill="#ea4335"/>
        <path id="Path_2129" data-name="Path 2129" d="M311.132,244.03l9.048-4.58c.4-.2.3-.585-.226-.85l-3.934-1.986a2.14,2.14,0,0,0-1.682-.113l-9.049,4.581c-.4.2-.3.583.227.849l3.934,1.986A2.136,2.136,0,0,0,311.132,244.03Z" transform="translate(-282.329 -190.386)" fill="#ea4335"/>
        <path id="Path_2130" data-name="Path 2130" d="M322.485,250.6l9.049-4.581c.4-.2.3-.584-.226-.85l-3.935-1.985a2.13,2.13,0,0,0-1.68-.113l-9.049,4.58c-.4.2-.3.584.226.85l3.935,1.985A2.134,2.134,0,0,0,322.485,250.6Z" transform="translate(-305.041 -191.206)" fill="#ea4335"/>
        <path id="Path_2131" data-name="Path 2131" d="M333.841,257.167l9.049-4.58c.4-.2.3-.584-.227-.85l-3.934-1.985a2.137,2.137,0,0,0-1.681-.114L328,254.219c-.4.2-.3.584.227.85l3.934,1.985A2.132,2.132,0,0,0,333.841,257.167Z" transform="translate(-327.753 -192.026)" fill="#ea4335"/>
        <path id="Path_2132" data-name="Path 2132" d="M213.591,196.964l8.7-4.4c.5-.252.372-.725-.281-1.055l-6.634-3.348a2.65,2.65,0,0,0-2.087-.14l-8.7,4.4c-.5.253-.373.725.281,1.055l6.634,3.348A2.648,2.648,0,0,0,213.591,196.964Z" transform="translate(-83.713 -184.331)" fill="#ea4335"/>
        <path id="Path_2133" data-name="Path 2133" d="M224.946,203.533l8.7-4.4c.5-.252.373-.725-.28-1.055l-6.635-3.348a2.651,2.651,0,0,0-2.086-.141l-8.7,4.4c-.5.252-.373.725.281,1.055l6.634,3.348A2.654,2.654,0,0,0,224.946,203.533Z" transform="translate(-106.424 -185.151)" fill="#ea4335"/>
        <path id="Path_2134" data-name="Path 2134" d="M236.3,210.1l8.7-4.4c.5-.253.372-.725-.281-1.055l-6.634-3.348a2.648,2.648,0,0,0-2.086-.14l-8.7,4.4c-.5.253-.373.725.281,1.055l6.634,3.348A2.647,2.647,0,0,0,236.3,210.1Z" transform="translate(-129.136 -185.971)" fill="#ea4335"/>
        <path id="Path_2135" data-name="Path 2135" d="M247.654,216.67l8.7-4.4c.5-.252.373-.725-.281-1.055l-6.634-3.348a2.652,2.652,0,0,0-2.086-.141l-8.7,4.4c-.5.252-.372.725.281,1.055l6.634,3.348A2.652,2.652,0,0,0,247.654,216.67Z" transform="translate(-151.848 -186.791)" fill="#ea4335"/>
        <path id="Path_2136" data-name="Path 2136" d="M259.009,223.238l8.7-4.4c.5-.253.373-.725-.281-1.055l-6.634-3.348a2.648,2.648,0,0,0-2.086-.141l-8.7,4.4c-.5.253-.373.725.281,1.055l6.634,3.348A2.648,2.648,0,0,0,259.009,223.238Z" transform="translate(-174.56 -187.611)" fill="#ea4335"/>
        <path id="Path_2137" data-name="Path 2137" d="M270.364,229.807l8.7-4.4c.5-.252.373-.724-.281-1.055L272.146,221a2.647,2.647,0,0,0-2.086-.14l-8.7,4.4c-.5.252-.372.725.281,1.055l6.634,3.348A2.658,2.658,0,0,0,270.364,229.807Z" transform="translate(-197.271 -188.43)" fill="#ea4335"/>
        <path id="Path_2138" data-name="Path 2138" d="M281.718,236.375l8.7-4.4c.5-.253.373-.725-.281-1.055l-6.634-3.348a2.653,2.653,0,0,0-2.087-.141l-8.7,4.4c-.5.252-.373.725.281,1.055l6.634,3.348A2.648,2.648,0,0,0,281.718,236.375Z" transform="translate(-219.983 -189.25)" fill="#ea4335"/>
        <path id="Path_2139" data-name="Path 2139" d="M293.072,242.944l8.7-4.4c.5-.252.374-.724-.281-1.054l-6.633-3.348a2.651,2.651,0,0,0-2.088-.141l-8.7,4.4c-.5.253-.372.725.281,1.055l6.634,3.348A2.654,2.654,0,0,0,293.072,242.944Z" transform="translate(-242.695 -190.07)" fill="#ea4335"/>
        <path id="Path_2140" data-name="Path 2140" d="M304.427,249.513l8.7-4.4c.5-.252.373-.725-.281-1.054l-6.634-3.348a2.648,2.648,0,0,0-2.086-.14l-8.7,4.4c-.5.253-.373.725.281,1.055l6.634,3.348A2.655,2.655,0,0,0,304.427,249.513Z" transform="translate(-265.406 -190.89)" fill="#ea4335"/>
        <path id="Path_2141" data-name="Path 2141" d="M315.781,256.081l8.7-4.4c.5-.253.372-.725-.282-1.055l-6.632-3.348a2.655,2.655,0,0,0-2.088-.141l-8.7,4.4c-.5.252-.372.725.282,1.054l6.633,3.349A2.651,2.651,0,0,0,315.781,256.081Z" transform="translate(-288.118 -191.71)" fill="#ea4335"/>
        <path id="Path_2142" data-name="Path 2142" d="M327.136,262.65l8.7-4.4c.5-.252.373-.725-.281-1.055l-6.634-3.348a2.648,2.648,0,0,0-2.087-.14l-8.7,4.4c-.5.253-.373.725.281,1.055l6.634,3.348A2.651,2.651,0,0,0,327.136,262.65Z" transform="translate(-310.83 -192.529)" fill="#ea4335"/>
        <path id="Path_2143" data-name="Path 2143" d="M203.551,202.755l8.7-4.4c.5-.252.373-.724-.281-1.054l-6.634-3.348a2.649,2.649,0,0,0-2.087-.141l-8.7,4.4c-.5.253-.373.725.281,1.055l6.634,3.348A2.651,2.651,0,0,0,203.551,202.755Z" transform="translate(-63.629 -185.054)" fill="#ea4335"/>
        <path id="Path_2144" data-name="Path 2144" d="M214.905,209.324l8.7-4.4c.5-.252.372-.725-.281-1.055l-6.634-3.348a2.65,2.65,0,0,0-2.087-.14l-8.7,4.4c-.5.253-.373.725.281,1.055l6.634,3.348A2.652,2.652,0,0,0,214.905,209.324Z" transform="translate(-86.341 -185.874)" fill="#ea4335"/>
        <path id="Path_2145" data-name="Path 2145" d="M226.259,215.892l8.7-4.4c.5-.253.373-.725-.281-1.055l-6.634-3.348a2.652,2.652,0,0,0-2.086-.141l-8.7,4.4c-.5.252-.373.724.281,1.054l6.634,3.349A2.648,2.648,0,0,0,226.259,215.892Z" transform="translate(-109.053 -186.694)" fill="#ea4335"/>
        <path id="Path_2146" data-name="Path 2146" d="M237.614,222.461l8.7-4.4c.5-.252.372-.725-.281-1.055l-6.634-3.348a2.648,2.648,0,0,0-2.087-.14l-8.7,4.4c-.5.253-.373.725.281,1.055l6.634,3.348A2.648,2.648,0,0,0,237.614,222.461Z" transform="translate(-131.765 -187.514)" fill="#ea4335"/>
        <path id="Path_2147" data-name="Path 2147" d="M248.968,229.03l8.7-4.4c.5-.252.373-.725-.281-1.055l-6.634-3.348a2.652,2.652,0,0,0-2.086-.141l-8.7,4.4c-.5.252-.372.724.281,1.055l6.634,3.348A2.652,2.652,0,0,0,248.968,229.03Z" transform="translate(-154.476 -188.333)" fill="#ea4335"/>
        <path id="Path_2148" data-name="Path 2148" d="M260.323,235.6l8.7-4.4c.5-.253.373-.725-.281-1.055l-6.634-3.348a2.648,2.648,0,0,0-2.087-.14l-8.7,4.4c-.5.253-.373.725.281,1.055l6.634,3.348A2.647,2.647,0,0,0,260.323,235.6Z" transform="translate(-177.188 -189.153)" fill="#ea4335"/>
        <path id="Path_2149" data-name="Path 2149" d="M271.678,242.167l8.7-4.4c.5-.252.373-.725-.281-1.055l-6.634-3.348a2.652,2.652,0,0,0-2.087-.141l-8.7,4.4c-.5.252-.372.725.281,1.055l6.634,3.348A2.654,2.654,0,0,0,271.678,242.167Z" transform="translate(-199.9 -189.973)" fill="#ea4335"/>
        <path id="Path_2150" data-name="Path 2150" d="M283.032,248.735l8.7-4.4c.5-.253.373-.725-.281-1.055l-6.634-3.348a2.648,2.648,0,0,0-2.086-.141l-8.7,4.4c-.5.253-.373.725.281,1.055l6.634,3.348A2.648,2.648,0,0,0,283.032,248.735Z" transform="translate(-222.612 -190.793)" fill="#ea4335"/>
        <path id="Path_2151" data-name="Path 2151" d="M294.387,255.3l8.7-4.4c.5-.252.373-.724-.281-1.055L296.17,246.5a2.65,2.65,0,0,0-2.087-.14l-8.7,4.4c-.5.252-.372.725.281,1.055l6.634,3.348A2.654,2.654,0,0,0,294.387,255.3Z" transform="translate(-245.323 -191.613)" fill="#ea4335"/>
        <path id="Path_2152" data-name="Path 2152" d="M305.74,261.872l8.7-4.4c.5-.253.373-.725-.281-1.055l-6.634-3.348a2.652,2.652,0,0,0-2.086-.141l-8.7,4.4c-.5.252-.373.725.281,1.055l6.634,3.348A2.648,2.648,0,0,0,305.74,261.872Z" transform="translate(-268.035 -192.432)" fill="#ea4335"/>
        <path id="Path_2153" data-name="Path 2153" d="M317.1,268.441l8.7-4.4c.5-.252.372-.724-.282-1.054l-6.633-3.348a2.651,2.651,0,0,0-2.088-.141l-8.7,4.4c-.5.253-.372.725.282,1.055l6.633,3.348A2.651,2.651,0,0,0,317.1,268.441Z" transform="translate(-290.747 -193.252)" fill="#ea4335"/>
        <path id="Path_2154" data-name="Path 2154" d="M193.51,208.546l8.7-4.4c.5-.253.372-.725-.281-1.055l-6.634-3.348a2.651,2.651,0,0,0-2.087-.141l-8.7,4.4c-.5.253-.373.725.281,1.056l6.633,3.348A2.65,2.65,0,0,0,193.51,208.546Z" transform="translate(-43.546 -185.777)" fill="#ea4335"/>
        <path id="Path_2155" data-name="Path 2155" d="M204.864,215.115l8.7-4.4c.5-.252.373-.724-.281-1.055l-6.634-3.348a2.648,2.648,0,0,0-2.086-.14l-8.7,4.4c-.5.252-.373.725.281,1.055l6.634,3.348A2.652,2.652,0,0,0,204.864,215.115Z" transform="translate(-66.258 -186.597)" fill="#ea4335"/>
        <path id="Path_2156" data-name="Path 2156" d="M216.219,221.683l8.7-4.4c.5-.253.372-.725-.281-1.055L218,212.879a2.654,2.654,0,0,0-2.088-.141l-8.7,4.4c-.5.252-.373.725.281,1.055l6.634,3.348A2.648,2.648,0,0,0,216.219,221.683Z" transform="translate(-88.969 -187.417)" fill="#ea4335"/>
        <path id="Path_2157" data-name="Path 2157" d="M227.573,228.252l8.7-4.4c.5-.252.373-.724-.281-1.054l-6.634-3.348a2.648,2.648,0,0,0-2.086-.141l-8.7,4.4c-.5.253-.373.725.281,1.055l6.634,3.348A2.648,2.648,0,0,0,227.573,228.252Z" transform="translate(-111.681 -188.236)" fill="#ea4335"/>
        <path id="Path_2158" data-name="Path 2158" d="M238.928,234.821l8.7-4.4c.5-.252.372-.725-.281-1.055l-6.634-3.348a2.648,2.648,0,0,0-2.086-.14l-8.7,4.4c-.5.253-.373.725.281,1.055l6.634,3.348A2.652,2.652,0,0,0,238.928,234.821Z" transform="translate(-134.393 -189.056)" fill="#ea4335"/>
        <path id="Path_2159" data-name="Path 2159" d="M250.282,241.389l8.7-4.4c.5-.253.373-.725-.281-1.055l-6.634-3.348a2.651,2.651,0,0,0-2.086-.141l-8.7,4.4c-.5.252-.372.724.281,1.054l6.634,3.349A2.648,2.648,0,0,0,250.282,241.389Z" transform="translate(-157.104 -189.876)" fill="#ea4335"/>
        <path id="Path_2160" data-name="Path 2160" d="M261.637,247.958l8.7-4.4c.5-.252.373-.725-.281-1.055l-6.634-3.348a2.648,2.648,0,0,0-2.087-.14l-8.7,4.4c-.5.253-.373.725.281,1.055l6.634,3.348A2.648,2.648,0,0,0,261.637,247.958Z" transform="translate(-179.816 -190.696)" fill="#ea4335"/>
        <path id="Path_2161" data-name="Path 2161" d="M272.992,254.527l8.7-4.4c.5-.252.373-.725-.281-1.055l-6.634-3.348a2.651,2.651,0,0,0-2.086-.141l-8.7,4.4c-.5.252-.372.724.281,1.055l6.634,3.348A2.654,2.654,0,0,0,272.992,254.527Z" transform="translate(-202.528 -191.516)" fill="#ea4335"/>
        <path id="Path_2162" data-name="Path 2162" d="M284.346,261.1l8.7-4.4c.5-.253.373-.725-.281-1.056l-6.634-3.348a2.648,2.648,0,0,0-2.087-.14l-8.7,4.4c-.5.253-.373.725.281,1.055l6.634,3.348A2.649,2.649,0,0,0,284.346,261.1Z" transform="translate(-225.24 -192.335)" fill="#ea4335"/>
        <path id="Path_2163" data-name="Path 2163" d="M295.7,267.664l8.7-4.4c.5-.252.373-.725-.281-1.055l-6.634-3.348a2.652,2.652,0,0,0-2.087-.141l-8.7,4.4c-.5.252-.372.725.281,1.055l6.634,3.348A2.653,2.653,0,0,0,295.7,267.664Z" transform="translate(-247.952 -193.155)" fill="#ea4335"/>
        <path id="Path_2164" data-name="Path 2164" d="M307.054,274.232l8.7-4.4c.5-.253.373-.725-.281-1.055l-6.634-3.348a2.648,2.648,0,0,0-2.087-.141l-8.7,4.4c-.5.253-.373.725.281,1.056l6.634,3.348A2.648,2.648,0,0,0,307.054,274.232Z" transform="translate(-270.663 -193.975)" fill="#ea4335"/>
        <path id="Path_2165" data-name="Path 2165" d="M183.469,214.338l8.7-4.4c.5-.252.373-.725-.281-1.055l-6.634-3.348a2.654,2.654,0,0,0-2.088-.141l-8.7,4.4c-.5.252-.373.724.281,1.055l6.634,3.348A2.652,2.652,0,0,0,183.469,214.338Z" transform="translate(-23.463 -186.5)" fill="#ea4335"/>
        <path id="Path_2166" data-name="Path 2166" d="M194.824,220.906l8.7-4.4c.5-.253.372-.725-.281-1.055l-6.634-3.348a2.651,2.651,0,0,0-2.088-.14l-8.7,4.4c-.5.253-.372.725.282,1.055l6.633,3.348A2.65,2.65,0,0,0,194.824,220.906Z" transform="translate(-46.174 -187.32)" fill="#ea4335"/>
        <path id="Path_2167" data-name="Path 2167" d="M206.178,227.475l8.7-4.4c.5-.252.373-.725-.281-1.055l-6.634-3.348a2.653,2.653,0,0,0-2.087-.141l-8.7,4.4c-.5.252-.373.725.281,1.055l6.634,3.348A2.652,2.652,0,0,0,206.178,227.475Z" transform="translate(-68.886 -188.139)" fill="#ea4335"/>
        <path id="Path_2168" data-name="Path 2168" d="M217.533,234.043l8.7-4.4c.5-.253.372-.725-.281-1.055l-6.634-3.348a2.651,2.651,0,0,0-2.088-.141l-8.7,4.4c-.5.253-.373.725.281,1.055l6.634,3.348A2.647,2.647,0,0,0,217.533,234.043Z" transform="translate(-91.598 -188.959)" fill="#ea4335"/>
        <path id="Path_2169" data-name="Path 2169" d="M228.887,240.612l8.7-4.4c.5-.252.373-.725-.281-1.055l-6.634-3.348a2.648,2.648,0,0,0-2.087-.14l-8.7,4.4c-.5.252-.373.725.281,1.055l6.634,3.348A2.652,2.652,0,0,0,228.887,240.612Z" transform="translate(-114.309 -189.779)" fill="#ea4335"/>
        <path id="Path_2170" data-name="Path 2170" d="M240.242,247.18l8.7-4.4c.5-.253.372-.725-.281-1.055l-6.634-3.348a2.655,2.655,0,0,0-2.088-.141l-8.7,4.4c-.5.252-.373.725.281,1.055l6.634,3.348A2.648,2.648,0,0,0,240.242,247.18Z" transform="translate(-137.021 -190.599)" fill="#ea4335"/>
        <path id="Path_2171" data-name="Path 2171" d="M251.6,253.749l8.7-4.4c.5-.252.373-.725-.281-1.054l-6.634-3.348a2.648,2.648,0,0,0-2.086-.141l-8.7,4.4c-.5.253-.373.725.281,1.055l6.634,3.348A2.649,2.649,0,0,0,251.6,253.749Z" transform="translate(-159.733 -191.419)" fill="#ea4335"/>
        <path id="Path_2172" data-name="Path 2172" d="M262.951,260.318l8.7-4.4c.5-.252.372-.725-.281-1.055l-6.634-3.348a2.648,2.648,0,0,0-2.087-.14l-8.7,4.4c-.5.253-.373.725.281,1.055l6.634,3.348A2.652,2.652,0,0,0,262.951,260.318Z" transform="translate(-182.445 -192.238)" fill="#ea4335"/>
        <path id="Path_2173" data-name="Path 2173" d="M274.3,266.886l8.7-4.4c.5-.253.373-.725-.281-1.055l-6.634-3.348a2.652,2.652,0,0,0-2.086-.141l-8.7,4.4c-.5.252-.372.724.281,1.054l6.634,3.349A2.648,2.648,0,0,0,274.3,266.886Z" transform="translate(-205.156 -193.058)" fill="#ea4335"/>
        <path id="Path_2174" data-name="Path 2174" d="M285.66,273.455l8.7-4.4c.5-.252.373-.725-.281-1.055l-6.634-3.348a2.649,2.649,0,0,0-2.087-.14l-8.7,4.4c-.5.253-.373.725.281,1.055l6.634,3.348A2.649,2.649,0,0,0,285.66,273.455Z" transform="translate(-227.868 -193.878)" fill="#ea4335"/>
        <path id="Path_2175" data-name="Path 2175" d="M297.015,280.024l8.7-4.4c.5-.252.373-.725-.281-1.055l-6.634-3.348a2.652,2.652,0,0,0-2.087-.141l-8.7,4.4c-.5.252-.372.724.281,1.054l6.634,3.348A2.654,2.654,0,0,0,297.015,280.024Z" transform="translate(-250.58 -194.698)" fill="#ea4335"/>
        <path id="Path_2176" data-name="Path 2176" d="M173.43,220.129l8.7-4.4c.5-.252.373-.725-.281-1.055l-6.633-3.348a2.655,2.655,0,0,0-2.088-.141l-8.7,4.4c-.5.252-.373.725.281,1.055l6.634,3.348A2.655,2.655,0,0,0,173.43,220.129Z" transform="translate(-3.38 -187.223)" fill="#ea4335"/>
        <path id="Path_2177" data-name="Path 2177" d="M184.783,226.7l8.7-4.4c.5-.253.373-.725-.281-1.055l-6.634-3.349a2.658,2.658,0,0,0-2.087-.14l-8.7,4.4c-.5.252-.373.724.281,1.054l6.634,3.349A2.648,2.648,0,0,0,184.783,226.7Z" transform="translate(-26.091 -188.042)" fill="#ea4335"/>
        <path id="Path_2178" data-name="Path 2178" d="M196.138,233.266l8.7-4.4c.5-.252.372-.725-.282-1.055l-6.633-3.348a2.654,2.654,0,0,0-2.088-.141l-8.7,4.4c-.5.252-.372.725.282,1.055l6.633,3.348A2.65,2.65,0,0,0,196.138,233.266Z" transform="translate(-48.803 -188.862)" fill="#ea4335"/>
        <path id="Path_2179" data-name="Path 2179" d="M207.643,268.51l65.184-32.995c.581-.295.435-.845-.328-1.23l-6.241-3.15a3.085,3.085,0,0,0-2.433-.164l-65.184,32.995c-.582.294-.435.845.327,1.23l6.241,3.15A3.1,3.1,0,0,0,207.643,268.51Z" transform="translate(-128.301 -189.689)" fill="#ea4335"/>
        <path id="Path_2180" data-name="Path 2180" d="M275.619,279.246l8.7-4.4c.5-.252.373-.725-.281-1.054l-6.634-3.348a2.651,2.651,0,0,0-2.087-.14l-8.7,4.4c-.5.253-.372.725.281,1.055l6.634,3.348A2.648,2.648,0,0,0,275.619,279.246Z" transform="translate(-207.785 -194.601)" fill="#ea4335"/>
        <path id="Path_2181" data-name="Path 2181" d="M286.974,285.815l8.7-4.4c.5-.252.373-.725-.281-1.054l-6.634-3.348a2.65,2.65,0,0,0-2.088-.14l-8.7,4.4c-.5.253-.373.725.281,1.055l6.634,3.348A2.651,2.651,0,0,0,286.974,285.815Z" transform="translate(-230.497 -195.42)" fill="#ea4335"/>
      </g>
    </g>
    <g id="Group_510" data-name="Group 510" transform="translate(216.976 89.264)">
      <g id="Group_509" data-name="Group 509" transform="translate(0)">
        <path id="Path_2182" data-name="Path 2182" d="M160.373,326.169s1.44,4.229-2.31,5.137-4.4-.925-5.734-1.525-9.7-4.4-11.264-6.129,3.177-4.359,10.506-.285Z" transform="translate(-135.66 -189.327)" fill="#294154"/>
        <path id="Path_2183" data-name="Path 2183" d="M140.021,317.628s1.773,3.885-1.677,5.024-4.711-1.942-5.736-2.513a46.516,46.516,0,0,1-6.767-4.394c-1.65-1.512.829-4.816,8.147-1.518Z" transform="translate(-100.074 -188.279)" fill="#294154"/>
        <path id="Path_2184" data-name="Path 2184" d="M138.38,247.65s1.011,26.422.722,31.476c3.033,6.191,3.364,24.793,2.549,30.718,0,.934-8.181,1.088-8.181-2.226s-3.275-21.5-4.165-24.113-3.874-11.2-3.874-11.2V247.65l9.628-1.252Z" transform="translate(-101.71 -179.99)" fill="#395877"/>
        <path id="Path_2185" data-name="Path 2185" d="M151.942,234.816a9.209,9.209,0,0,0,10.3-3.383c4.393-5.632-3.755-4.647-3.755-4.647l-5.631,2.921Z" transform="translate(-149.739 -177.534)" fill="#35526d"/>
        <path id="Path_2186" data-name="Path 2186" d="M154.915,316.2c-.088,1.078-9.7,2.541-9.7-1.256s-.476-21.019-1.764-28.19-4.717-19.827-3.462-28.166,1.442-11.619,1.637-13.706h14.107s-1.565,35.63-1.565,38.916S155.374,310.638,154.915,316.2Z" transform="translate(-129.702 -179.801)" fill="#44668e"/>
        <path id="Path_2187" data-name="Path 2187" d="M142.375,198.975a9.673,9.673,0,0,1,8.108-1.053c4.1,1.218,7.124,5.384,7.124,12.148s-4.188,8.854-4.188,18.81,4.13,12.383,3.466,19.881-26.162,10.488-29.7,6.318c-2.672-3.917,2.844-21.608,2.093-27.041s-4-17.507-2.495-20.81C127.818,204.963,135.876,200.019,142.375,198.975Z" transform="translate(-118.241 -173.885)" fill="#44668e"/>
        <path id="Path_2188" data-name="Path 2188" d="M160.987,226.608c-3.268,5.9-5.889,6.193-7.192,5.81-1.949-.574-2.86-2.751-1.67-7.426s5.123-19.3,10.794-17.291C168.763,209.774,164.254,220.7,160.987,226.608Z" transform="translate(-151.593 -175.137)" fill="#3b5a7a"/>
        <g id="Group_508" data-name="Group 508" transform="translate(9.887)">
          <path id="Path_2189" data-name="Path 2189" d="M152.271,192.438v4.337c0,1.391-4.469,3.147-8.376,1.559V194.67s-4.429.548-5.391,0-1.829-12.706.818-14.124c4.331-2.933,15.163-1.7,15.163,4.184C154.485,186.583,152.271,188.858,152.271,192.438Z" transform="translate(-136.18 -171.581)" fill="#de976d"/>
          <path id="Path_2190" data-name="Path 2190" d="M154.013,183.563c-1.29,1.313-9.027.069-11.916-1.407s-9.146-5.731-6.5-9.9,3.92.38,8.28,1.222S160.489,176.969,154.013,183.563Z" transform="translate(-134.96 -170.52)" fill="#624638"/>
          <path id="Path_2191" data-name="Path 2191" d="M151.758,183.581c.659,2.819-2.847,10.4-4.3,10.4-3.129-.039-5.872-4.367-8.376-5.151s-4.767-5.529-2.673-6.61S151.758,183.581,151.758,183.581Z" transform="translate(-131.561 -171.946)" fill="#624638"/>
          <path id="Path_2192" data-name="Path 2192" d="M136.822,202.328c-.137.66,3.636,3.625,9.7,1.276s2.585-4.059,2.585-4.059l-4.913,2.3-3.466.1Z" transform="translate(-131.056 -174.143)" fill="#3b5a7a"/>
          <path id="Path_2193" data-name="Path 2193" d="M147.885,198.746s-1.372,3.04-8.376,1.567a2.915,2.915,0,0,0-1.949,1.916c1.8,2.17,11.408,1.391,12.539-2.506A2.608,2.608,0,0,0,147.885,198.746Z" transform="translate(-131.793 -174.043)" fill="#bfd8ef"/>
          <path id="Path_2194" data-name="Path 2194" d="M149.207,190.754c.77-.41,2.224-2.244.759-2.913a1.76,1.76,0,0,0-2.167,1.081" transform="translate(-142.532 -172.67)" fill="#de976d"/>
        </g>
      </g>
    </g>
    <g id="Group_556" data-name="Group 556" transform="translate(30.743 17.566)">
      <g id="Group_519" data-name="Group 519" transform="translate(114.979)">
        <g id="Group_511" data-name="Group 511">
          <path id="Path_2195" data-name="Path 2195" d="M194.358,172.629V110.212L236,89.177v62.417Z" transform="translate(-193.365 -88.671)" fill="#ffd6d2"/>
          <path id="Path_2196" data-name="Path 2196" d="M236.98,175.556l-.993-.507V112.633l.993.507Z" transform="translate(-235.987 -91.598)" fill="#fca9a0"/>
          <path id="Path_2197" data-name="Path 2197" d="M194.358,109.634,236,88.6l.993.506L195.35,110.14Z" transform="translate(-194.358 -88.598)" fill="#fca9a0"/>
        </g>
        <g id="Group_518" data-name="Group 518" transform="translate(3.703 4.658)">
          <path id="Path_2198" data-name="Path 2198" d="M233.287,150.156,196.193,168.9V112.661l37.093-18.74Z" transform="translate(-196.193 -93.921)" fill="#f8ffff"/>
          <path id="Path_2558" data-name="Path 2558" d="M10.519.009c5.272-.3,9.13,6.395,8.618,14.944s-5.2,15.719-10.474,16.015S-.467,24.574.046,16.025,5.247.305,10.519.009Z" transform="translate(19.05 45.883) rotate(-149.815)" fill="#f3f3f3"/>
          <g id="Group_515" data-name="Group 515" transform="translate(2.468 9.461)">
            <g id="Group_514" data-name="Group 514" transform="translate(0 0)" clip-path="url(#clip-path)">
              <g id="Group_513" data-name="Group 513" transform="translate(9.037 8.002)">
                <path id="Path_2199" data-name="Path 2199" d="M221.778,134.942,207.7,142.056v-3.792a6.523,6.523,0,0,1,3.435-5.192l7.213-3.644c1.9-.958,3.435-.187,3.435,1.722Z" transform="translate(-207.696 -115.764)" fill="#ac6f8e"/>
                <path id="Path_2200" data-name="Path 2200" d="M214.736,133.731h0c-1.375.694-2.49.136-2.49-1.249v-2.506l4.979-2.515v2.506A4.731,4.731,0,0,1,214.736,133.731Z" transform="translate(-207.694 -115.569)" fill="#f0cad4"/>
                <g id="Group_512" data-name="Group 512" transform="translate(1.096)">
                  <path id="Path_2201" data-name="Path 2201" d="M220.41,114.613a11.64,11.64,0,0,0-5.92,10.61v7.247a13.3,13.3,0,0,1,6.191-4.414" transform="translate(-214.489 -113.966)" fill="#b9a197"/>
                  <path id="Path_2202" data-name="Path 2202" d="M209.112,114.521c1.175-.594,5.92-2.381,5.92,4.628V126.4s-1.952-.909-6.191,1.841" transform="translate(-203.192 -113.874)" fill="#b9a197"/>
                  <path id="Path_2203" data-name="Path 2203" d="M217.174,127.577l-1.123,1.221a3.544,3.544,0,0,1-2.627,1.327l-1.124-.085c-1.685-.128-2.723-1.413-2.723-3.371v-3.893c0-2.869,2.311-6.362,5.16-7.8h0c2.85-1.44,5.159-.281,5.159,2.587v3.893A9.663,9.663,0,0,1,217.174,127.577Z" transform="translate(-208.792 -113.934)" fill="#f0cad4"/>
                  <path id="Path_2204" data-name="Path 2204" d="M219.9,128.385h0c-.433.219-.785.042-.785-.394v-1.813a1.491,1.491,0,0,1,.785-1.186h0c.433-.219.784-.043.784.393V127.2A1.492,1.492,0,0,1,219.9,128.385Z" transform="translate(-219.11 -115.25)" fill="#f0cad4"/>
                  <path id="Path_2205" data-name="Path 2205" d="M209.576,122.427h0c-.433.219-.784.043-.784-.393v-1.813a1.493,1.493,0,0,1,.784-1.187h0c.434-.219.785-.043.785.394v1.813A1.489,1.489,0,0,1,209.576,122.427Z" transform="translate(-198.472 -114.506)" fill="#f0cad4"/>
                  <path id="Path_2206" data-name="Path 2206" d="M218.363,116.213a22.245,22.245,0,0,1-8.982,9.448v-2.81a9.853,9.853,0,0,1,5.214-7.883c4.407-2.227,5.773-.139,5.517,4.188C220.112,119.155,218.411,119.2,218.363,116.213Z" transform="translate(-208.84 -113.898)" fill="#b9a197"/>
                </g>
              </g>
            </g>
          </g>
          <g id="Group_516" data-name="Group 516" transform="translate(3.765 37.969)">
            <path id="Path_2207" data-name="Path 2207" d="M229.52,146.961,199.958,161.9v-1.6l29.562-14.935Z" transform="translate(-199.958 -138.311)" fill="#c4c4c4"/>
            <path id="Path_2208" data-name="Path 2208" d="M222.545,138.294l-15.615,7.889v-.989l15.615-7.889Z" transform="translate(-199.956 -137.305)" fill="#c4c4c4"/>
            <path id="Path_2209" data-name="Path 2209" d="M229.52,149.668,199.958,164.6v-1.6l29.562-14.935Z" transform="translate(-199.958 -138.649)" fill="#c4c4c4"/>
            <path id="Path_2210" data-name="Path 2210" d="M229.52,152.375,199.958,167.31v-1.6l29.562-14.935Z" transform="translate(-199.958 -138.986)" fill="#c4c4c4"/>
            <path id="Path_2211" data-name="Path 2211" d="M229.52,155.082l-29.562,14.935v-1.6l29.562-14.935Z" transform="translate(-199.958 -139.324)" fill="#c4c4c4"/>
            <path id="Path_2212" data-name="Path 2212" d="M229.52,157.789l-29.562,14.935v-1.6l29.562-14.935Z" transform="translate(-199.958 -139.662)" fill="#c4c4c4"/>
          </g>
          <g id="Group_517" data-name="Group 517" transform="translate(8.697 41.941)">
            <path id="Path_2213" data-name="Path 2213" d="M224.584,152.383a2.961,2.961,0,0,1-1.56,2.359c-.862.436-1.56.086-1.56-.782a2.964,2.964,0,0,1,1.56-2.36C223.886,151.165,224.584,151.515,224.584,152.383Z" transform="translate(-221.463 -143.037)" fill="#e695ae"/>
            <path id="Path_2214" data-name="Path 2214" d="M219.059,149.193a2.964,2.964,0,0,1-1.56,2.36c-.862.436-1.56.085-1.56-.782a2.964,2.964,0,0,1,1.56-2.359C218.361,147.975,219.059,148.325,219.059,149.193Z" transform="translate(-210.412 -142.639)" fill="#98c0ef"/>
            <path id="Path_2215" data-name="Path 2215" d="M213.534,146a2.965,2.965,0,0,1-1.561,2.36c-.861.435-1.56.085-1.56-.782a2.964,2.964,0,0,1,1.56-2.359C212.835,144.784,213.534,145.135,213.534,146Z" transform="translate(-199.359 -142.241)" fill="#eaad59"/>
            <path id="Path_2216" data-name="Path 2216" d="M208.009,142.813a2.962,2.962,0,0,1-1.561,2.359c-.861.436-1.56.086-1.56-.782a2.964,2.964,0,0,1,1.56-2.359C207.31,141.594,208.009,141.945,208.009,142.813Z" transform="translate(-188.308 -141.843)" fill="#b687f2"/>
          </g>
        </g>
      </g>
      <g id="Group_528" data-name="Group 528" transform="translate(0 58.104)">
        <g id="Group_520" data-name="Group 520">
          <path id="Path_2217" data-name="Path 2217" d="M309.308,239.018V176.6l41.64-21.035v62.417Z" transform="translate(-308.315 -155.06)" fill="#ffd6d2"/>
          <path id="Path_2218" data-name="Path 2218" d="M351.931,241.946l-.993-.506V179.023l.993.507Z" transform="translate(-350.938 -157.987)" fill="#fca9a0"/>
          <path id="Path_2219" data-name="Path 2219" d="M309.308,176.023l41.64-21.035.993.507L310.3,176.529Z" transform="translate(-309.308 -154.988)" fill="#fca9a0"/>
        </g>
        <g id="Group_527" data-name="Group 527" transform="translate(3.703 4.659)">
          <path id="Path_2220" data-name="Path 2220" d="M348.237,216.546l-37.093,18.74V179.051l37.093-18.74Z" transform="translate(-311.144 -160.31)" fill="#f8ffff"/>
          <path id="Path_2560" data-name="Path 2560" d="M10.519.009c5.272-.3,9.13,6.395,8.618,14.944s-5.2,15.719-10.474,16.015S-.467,24.574.046,16.025,5.247.305,10.519.009Z" transform="translate(19.05 45.883) rotate(-149.815)" fill="#f3f3f3"/>
          <g id="Group_524" data-name="Group 524" transform="translate(2.468 9.461)">
            <g id="Group_523" data-name="Group 523" transform="translate(0 0)" clip-path="url(#clip-path)">
              <g id="Group_522" data-name="Group 522" transform="translate(9.038 8.002)">
                <path id="Path_2221" data-name="Path 2221" d="M336.729,201.331l-14.082,7.115v-3.791a6.522,6.522,0,0,1,3.434-5.193l7.214-3.644c1.9-.958,3.434-.187,3.434,1.722Z" transform="translate(-322.647 -182.153)" fill="#ac6f8e"/>
                <path id="Path_2222" data-name="Path 2222" d="M329.687,200.12h0c-1.375.695-2.49.136-2.49-1.248v-2.507l4.979-2.515v2.506A4.727,4.727,0,0,1,329.687,200.12Z" transform="translate(-322.646 -181.959)" fill="#f0cad4"/>
                <g id="Group_521" data-name="Group 521" transform="translate(1.096)">
                  <path id="Path_2223" data-name="Path 2223" d="M335.359,181a11.641,11.641,0,0,0-5.921,10.61v7.247a13.3,13.3,0,0,1,6.192-4.415" transform="translate(-329.439 -180.355)" fill="#b9a197"/>
                  <path id="Path_2224" data-name="Path 2224" d="M324.063,180.91c1.175-.593,5.921-2.381,5.921,4.628v7.247s-1.953-.909-6.193,1.841" transform="translate(-318.142 -180.263)" fill="#b9a197"/>
                  <path id="Path_2225" data-name="Path 2225" d="M332.125,193.966,331,195.187a3.546,3.546,0,0,1-2.627,1.328l-1.124-.086c-1.685-.128-2.723-1.413-2.723-3.371v-3.893c0-2.869,2.311-6.361,5.16-7.8h0c2.85-1.44,5.16-.282,5.16,2.587v3.892A9.668,9.668,0,0,1,332.125,193.966Z" transform="translate(-323.743 -180.323)" fill="#f0cad4"/>
                  <path id="Path_2226" data-name="Path 2226" d="M334.844,194.774h0c-.433.219-.784.043-.784-.394v-1.812a1.49,1.49,0,0,1,.784-1.187h0c.434-.219.785-.043.785.394v1.812A1.489,1.489,0,0,1,334.844,194.774Z" transform="translate(-334.06 -181.639)" fill="#f0cad4"/>
                  <path id="Path_2227" data-name="Path 2227" d="M324.528,188.816h0c-.433.22-.785.043-.785-.393v-1.812a1.491,1.491,0,0,1,.785-1.186h0c.433-.22.784-.043.784.393v1.813A1.49,1.49,0,0,1,324.528,188.816Z" transform="translate(-313.423 -180.896)" fill="#f0cad4"/>
                  <path id="Path_2228" data-name="Path 2228" d="M333.315,182.6a22.256,22.256,0,0,1-8.983,9.449v-2.811a9.855,9.855,0,0,1,5.215-7.883c4.407-2.226,5.771-.139,5.516,4.189C335.063,185.545,333.362,185.592,333.315,182.6Z" transform="translate(-323.792 -180.287)" fill="#b9a197"/>
                </g>
              </g>
            </g>
          </g>
          <g id="Group_525" data-name="Group 525" transform="translate(3.766 37.969)">
            <path id="Path_2229" data-name="Path 2229" d="M344.471,213.351l-29.562,14.935v-1.6l29.562-14.935Z" transform="translate(-314.909 -204.7)" fill="#c4c4c4"/>
            <path id="Path_2230" data-name="Path 2230" d="M337.5,204.683l-15.615,7.889v-.989l15.615-7.889Z" transform="translate(-314.907 -203.694)" fill="#c4c4c4"/>
            <path id="Path_2231" data-name="Path 2231" d="M344.471,216.057l-29.562,14.935v-1.6l29.562-14.935Z" transform="translate(-314.909 -205.038)" fill="#c4c4c4"/>
            <path id="Path_2232" data-name="Path 2232" d="M344.471,218.764,314.909,233.7v-1.6l29.562-14.935Z" transform="translate(-314.909 -205.376)" fill="#c4c4c4"/>
            <path id="Path_2233" data-name="Path 2233" d="M344.471,221.471l-29.562,14.935v-1.6l29.562-14.935Z" transform="translate(-314.909 -205.714)" fill="#c4c4c4"/>
            <path id="Path_2234" data-name="Path 2234" d="M344.471,224.178l-29.562,14.935v-1.6l29.562-14.935Z" transform="translate(-314.909 -206.051)" fill="#c4c4c4"/>
          </g>
          <g id="Group_526" data-name="Group 526" transform="translate(8.696 41.941)">
            <path id="Path_2235" data-name="Path 2235" d="M339.535,218.773a2.964,2.964,0,0,1-1.56,2.359c-.862.435-1.56.085-1.56-.783a2.961,2.961,0,0,1,1.56-2.359C338.837,217.554,339.535,217.9,339.535,218.773Z" transform="translate(-336.414 -209.426)" fill="#e695ae"/>
            <path id="Path_2236" data-name="Path 2236" d="M334.01,215.582a2.962,2.962,0,0,1-1.562,2.36c-.861.436-1.56.086-1.56-.782a2.966,2.966,0,0,1,1.56-2.359C333.311,214.364,334.01,214.715,334.01,215.582Z" transform="translate(-325.362 -209.028)" fill="#98c0ef"/>
            <path id="Path_2237" data-name="Path 2237" d="M328.485,212.392a2.966,2.966,0,0,1-1.56,2.36c-.862.436-1.561.085-1.561-.782a2.965,2.965,0,0,1,1.561-2.36C327.786,211.173,328.485,211.524,328.485,212.392Z" transform="translate(-314.31 -208.63)" fill="#eaad59"/>
            <path id="Path_2238" data-name="Path 2238" d="M322.959,209.2a2.964,2.964,0,0,1-1.56,2.36c-.862.435-1.56.085-1.56-.782a2.961,2.961,0,0,1,1.56-2.36C322.261,207.983,322.959,208.334,322.959,209.2Z" transform="translate(-303.258 -208.232)" fill="#b687f2"/>
          </g>
        </g>
      </g>
      <g id="Group_537" data-name="Group 537" transform="translate(97.074 23.062)">
        <g id="Group_529" data-name="Group 529">
          <path id="Path_2239" data-name="Path 2239" d="M212.259,198.98V136.563l41.64-21.035v62.417Z" transform="translate(-211.266 -115.021)" fill="#ffd6d2"/>
          <path id="Path_2240" data-name="Path 2240" d="M254.881,201.907l-.993-.507V138.984l.993.507Z" transform="translate(-253.888 -117.949)" fill="#fca9a0"/>
          <path id="Path_2241" data-name="Path 2241" d="M212.259,135.984l41.64-21.035.993.506-41.64,21.035Z" transform="translate(-212.259 -114.949)" fill="#fca9a0"/>
        </g>
        <g id="Group_536" data-name="Group 536" transform="translate(4.019 4.429)">
          <path id="Path_2242" data-name="Path 2242" d="M250.872,176.245l-37.094,18.74V138.75l37.094-18.74Z" transform="translate(-213.778 -120.01)" fill="#f8ffff"/>
          <path id="Path_2562" data-name="Path 2562" d="M10.519.009c5.272-.3,9.13,6.395,8.618,14.944s-5.2,15.719-10.474,16.015S-.467,24.574.046,16.025,5.247.305,10.519.009Z" transform="translate(19.05 45.883) rotate(-149.815)" fill="#f3f3f3"/>
          <g id="Group_533" data-name="Group 533" transform="translate(2.468 9.461)">
            <g id="Group_532" data-name="Group 532" transform="translate(0 0)" clip-path="url(#clip-path)">
              <g id="Group_531" data-name="Group 531" transform="translate(9.037 7.41)">
                <path id="Path_2243" data-name="Path 2243" d="M239.363,161.03l-14.082,7.114v-3.791a6.523,6.523,0,0,1,3.435-5.193l7.213-3.644c1.9-.958,3.435-.187,3.435,1.722Z" transform="translate(-225.281 -141.26)" fill="#726e8b"/>
                <path id="Path_2244" data-name="Path 2244" d="M232.321,159.819h0c-1.375.695-2.49.136-2.49-1.248v-2.507l4.979-2.515v2.506A4.729,4.729,0,0,1,232.321,159.819Z" transform="translate(-225.279 -141.066)" fill="#f0cad4"/>
                <g id="Group_530" data-name="Group 530" transform="translate(1.096)">
                  <path id="Path_2245" data-name="Path 2245" d="M234.759,153.665l-1.123,1.222a3.551,3.551,0,0,1-2.627,1.327l-1.124-.086c-1.685-.128-2.723-1.413-2.723-3.371v-3.893c0-2.868,2.31-6.361,5.16-7.8h0c2.85-1.44,5.159-.282,5.159,2.587v3.893A9.663,9.663,0,0,1,234.759,153.665Z" transform="translate(-226.377 -139.431)" fill="#f0cad4"/>
                  <path id="Path_2246" data-name="Path 2246" d="M237.48,154.473h0c-.434.219-.785.043-.785-.394v-1.812a1.489,1.489,0,0,1,.785-1.187h0c.433-.219.784-.043.784.394v1.812A1.49,1.49,0,0,1,237.48,154.473Z" transform="translate(-236.695 -140.746)" fill="#f0cad4"/>
                  <path id="Path_2247" data-name="Path 2247" d="M227.161,148.516h0c-.433.219-.784.042-.784-.394v-1.813a1.49,1.49,0,0,1,.784-1.186h0c.434-.219.785-.043.785.393v1.812A1.491,1.491,0,0,1,227.161,148.516Z" transform="translate(-216.056 -140.003)" fill="#f0cad4"/>
                  <path id="Path_2248" data-name="Path 2248" d="M226.844,150.118s-.456-3.175.259-4.419a11.3,11.3,0,0,1,5.239-5.273c3.924-1.982,4.778-1.02,5.586.176,0,0,.669,2.592-.22,4.027l-.265,1.237a3.575,3.575,0,0,1-1.154-3.646,15.219,15.219,0,0,1-7.524,5.242,4.652,4.652,0,0,1-1.385,3.092Z" transform="translate(-226.604 -139.286)" fill="#8c7866"/>
                </g>
              </g>
            </g>
          </g>
          <g id="Group_534" data-name="Group 534" transform="translate(3.766 37.969)">
            <path id="Path_2249" data-name="Path 2249" d="M247.105,173.05l-29.562,14.935v-1.6l29.562-14.935Z" transform="translate(-217.543 -164.399)" fill="#c4c4c4"/>
            <path id="Path_2250" data-name="Path 2250" d="M240.13,164.382l-15.615,7.889v-.989l15.615-7.889Z" transform="translate(-217.541 -163.393)" fill="#c4c4c4"/>
            <path id="Path_2251" data-name="Path 2251" d="M247.105,175.757l-29.562,14.935v-1.6l29.562-14.935Z" transform="translate(-217.543 -164.737)" fill="#c4c4c4"/>
            <path id="Path_2252" data-name="Path 2252" d="M247.105,178.463,217.543,193.4v-1.6l29.562-14.935Z" transform="translate(-217.543 -165.075)" fill="#c4c4c4"/>
            <path id="Path_2253" data-name="Path 2253" d="M247.105,181.17l-29.562,14.935v-1.6l29.562-14.935Z" transform="translate(-217.543 -165.413)" fill="#c4c4c4"/>
            <path id="Path_2254" data-name="Path 2254" d="M247.105,183.877l-29.562,14.935v-1.6l29.562-14.935Z" transform="translate(-217.543 -165.751)" fill="#c4c4c4"/>
          </g>
          <g id="Group_535" data-name="Group 535" transform="translate(8.697 41.941)">
            <path id="Path_2255" data-name="Path 2255" d="M242.169,178.472a2.966,2.966,0,0,1-1.56,2.36c-.862.435-1.56.085-1.56-.782a2.961,2.961,0,0,1,1.56-2.36C241.47,177.253,242.169,177.6,242.169,178.472Z" transform="translate(-239.048 -169.126)" fill="#e695ae"/>
            <path id="Path_2256" data-name="Path 2256" d="M236.644,175.282a2.961,2.961,0,0,1-1.56,2.359c-.862.436-1.56.086-1.56-.782a2.961,2.961,0,0,1,1.56-2.359C235.946,174.063,236.644,174.413,236.644,175.282Z" transform="translate(-227.997 -168.727)" fill="#98c0ef"/>
            <path id="Path_2257" data-name="Path 2257" d="M231.119,172.091a2.962,2.962,0,0,1-1.561,2.36c-.861.436-1.56.085-1.56-.782a2.966,2.966,0,0,1,1.56-2.36C230.42,170.873,231.119,171.223,231.119,172.091Z" transform="translate(-216.944 -168.329)" fill="#eaad59"/>
            <path id="Path_2258" data-name="Path 2258" d="M225.594,168.9a2.965,2.965,0,0,1-1.561,2.36c-.861.435-1.56.085-1.56-.782a2.965,2.965,0,0,1,1.56-2.36C224.895,167.682,225.594,168.033,225.594,168.9Z" transform="translate(-205.893 -167.931)" fill="#b687f2"/>
          </g>
        </g>
      </g>
      <g id="Group_546" data-name="Group 546" transform="translate(41.64 51.084)">
        <g id="Group_538" data-name="Group 538">
          <path id="Path_2259" data-name="Path 2259" d="M267.679,231V168.581l41.64-21.035v62.417Z" transform="translate(-266.686 -147.04)" fill="#ffd6d2"/>
          <path id="Path_2260" data-name="Path 2260" d="M310.3,233.925l-.993-.507V171l.993.507Z" transform="translate(-309.308 -149.967)" fill="#fca9a0"/>
          <path id="Path_2261" data-name="Path 2261" d="M267.679,168l41.64-21.035.993.506-41.64,21.035Z" transform="translate(-267.679 -146.967)" fill="#fca9a0"/>
        </g>
        <g id="Group_545" data-name="Group 545" transform="translate(4.019 4.429)">
          <path id="Path_2262" data-name="Path 2262" d="M306.292,208.263,269.2,227V170.768l37.093-18.74Z" transform="translate(-269.198 -152.028)" fill="#f8ffff"/>
          <path id="Path_2564" data-name="Path 2564" d="M10.519.009c5.272-.3,9.13,6.395,8.618,14.944s-5.2,15.719-10.474,16.015S-.467,24.574.046,16.025,5.247.305,10.519.009Z" transform="matrix(-0.864, -0.503, 0.503, -0.864, 19.05, 45.883)" fill="#f3f3f3"/>
          <g id="Group_542" data-name="Group 542" transform="translate(2.468 9.461)">
            <g id="Group_541" data-name="Group 541" transform="translate(0 0)" clip-path="url(#clip-path-4)">
              <g id="Group_540" data-name="Group 540" transform="translate(9.037 7.411)">
                <path id="Path_2263" data-name="Path 2263" d="M294.784,193.048,280.7,200.162v-3.791a6.523,6.523,0,0,1,3.435-5.193l7.213-3.644c1.9-.958,3.435-.187,3.435,1.722Z" transform="translate(-280.701 -173.279)" fill="#726e8b"/>
                <path id="Path_2264" data-name="Path 2264" d="M287.741,191.837h0c-1.375.695-2.49.136-2.49-1.248v-2.506l4.979-2.516v2.507A4.729,4.729,0,0,1,287.741,191.837Z" transform="translate(-280.699 -173.085)" fill="#f0cad4"/>
                <g id="Group_539" data-name="Group 539" transform="translate(1.096)">
                  <path id="Path_2265" data-name="Path 2265" d="M290.179,185.684l-1.123,1.221a3.551,3.551,0,0,1-2.627,1.327l-1.124-.086c-1.685-.128-2.723-1.413-2.723-3.371v-3.893c0-2.868,2.31-6.361,5.16-7.8h0c2.85-1.44,5.159-.282,5.159,2.587v3.893A9.667,9.667,0,0,1,290.179,185.684Z" transform="translate(-281.797 -171.449)" fill="#f0cad4"/>
                  <path id="Path_2266" data-name="Path 2266" d="M292.9,186.491h0c-.434.219-.785.043-.785-.393v-1.813a1.491,1.491,0,0,1,.785-1.187h0c.433-.219.784-.043.784.394v1.813A1.49,1.49,0,0,1,292.9,186.491Z" transform="translate(-292.115 -172.765)" fill="#f0cad4"/>
                  <path id="Path_2267" data-name="Path 2267" d="M282.581,180.534h0c-.433.219-.784.043-.784-.394v-1.812a1.49,1.49,0,0,1,.784-1.187h0c.434-.219.785-.043.785.394v1.812A1.49,1.49,0,0,1,282.581,180.534Z" transform="translate(-271.477 -172.022)" fill="#f0cad4"/>
                  <path id="Path_2268" data-name="Path 2268" d="M282.264,182.137s-.456-3.175.259-4.42a11.3,11.3,0,0,1,5.239-5.272c3.924-1.982,4.778-1.02,5.585.175,0,0,.67,2.592-.219,4.027l-.265,1.237a3.575,3.575,0,0,1-1.154-3.646,15.219,15.219,0,0,1-7.524,5.242,4.652,4.652,0,0,1-1.385,3.092Z" transform="translate(-282.024 -171.305)" fill="#8c7866"/>
                </g>
              </g>
            </g>
          </g>
          <g id="Group_543" data-name="Group 543" transform="translate(3.765 37.969)">
            <path id="Path_2269" data-name="Path 2269" d="M302.525,205.068,272.963,220v-1.6l29.562-14.935Z" transform="translate(-272.963 -196.417)" fill="#c4c4c4"/>
            <path id="Path_2270" data-name="Path 2270" d="M295.55,196.4l-15.615,7.889V203.3l15.615-7.889Z" transform="translate(-272.961 -195.412)" fill="#c4c4c4"/>
            <path id="Path_2271" data-name="Path 2271" d="M302.525,207.775,272.963,222.71v-1.6l29.562-14.935Z" transform="translate(-272.963 -196.755)" fill="#c4c4c4"/>
            <path id="Path_2272" data-name="Path 2272" d="M302.525,210.482l-29.562,14.935v-1.6l29.562-14.935Z" transform="translate(-272.963 -197.093)" fill="#c4c4c4"/>
            <path id="Path_2273" data-name="Path 2273" d="M302.525,213.188l-29.562,14.935v-1.6l29.562-14.935Z" transform="translate(-272.963 -197.431)" fill="#c4c4c4"/>
            <path id="Path_2274" data-name="Path 2274" d="M302.525,215.9l-29.562,14.935v-1.6L302.525,214.3Z" transform="translate(-272.963 -197.769)" fill="#c4c4c4"/>
          </g>
          <g id="Group_544" data-name="Group 544" transform="translate(8.696 41.941)">
            <path id="Path_2275" data-name="Path 2275" d="M297.59,210.49a2.966,2.966,0,0,1-1.56,2.36c-.862.435-1.561.085-1.561-.782a2.963,2.963,0,0,1,1.561-2.36C296.891,209.271,297.59,209.622,297.59,210.49Z" transform="translate(-294.468 -201.144)" fill="#e695ae"/>
            <path id="Path_2276" data-name="Path 2276" d="M292.064,207.3a2.964,2.964,0,0,1-1.56,2.36c-.862.435-1.56.085-1.56-.783a2.962,2.962,0,0,1,1.56-2.359C291.366,206.081,292.064,206.432,292.064,207.3Z" transform="translate(-283.416 -200.746)" fill="#98c0ef"/>
            <path id="Path_2277" data-name="Path 2277" d="M286.539,204.109a2.961,2.961,0,0,1-1.56,2.36c-.862.436-1.56.086-1.56-.782a2.964,2.964,0,0,1,1.56-2.359C285.841,202.891,286.539,203.241,286.539,204.109Z" transform="translate(-272.364 -200.348)" fill="#eaad59"/>
            <path id="Path_2278" data-name="Path 2278" d="M281.014,200.919a2.965,2.965,0,0,1-1.561,2.36c-.861.436-1.56.085-1.56-.782a2.966,2.966,0,0,1,1.56-2.36C280.315,199.7,281.014,200.051,281.014,200.919Z" transform="translate(-261.312 -199.949)" fill="#b687f2"/>
          </g>
        </g>
      </g>
      <g id="Group_555" data-name="Group 555" transform="translate(83.289 44.097)">
        <g id="Group_547" data-name="Group 547" transform="translate(0)">
          <path id="Path_2279" data-name="Path 2279" d="M226.04,223.015V160.6l41.64-21.035V201.98Z" transform="translate(-225.047 -139.056)" fill="#ffd6d2"/>
          <path id="Path_2280" data-name="Path 2280" d="M268.663,225.942l-.993-.507V163.019l.993.507Z" transform="translate(-267.67 -141.984)" fill="#fca9a0"/>
          <path id="Path_2281" data-name="Path 2281" d="M226.04,160.019l41.64-21.035.993.507-41.64,21.035Z" transform="translate(-226.04 -138.984)" fill="#fca9a0"/>
        </g>
        <g id="Group_554" data-name="Group 554" transform="translate(4.019 4.429)">
          <path id="Path_2282" data-name="Path 2282" d="M264.653,200.28,227.56,219.02V162.785l37.093-18.74Z" transform="translate(-227.56 -144.045)" fill="#f8ffff"/>
          <path id="Path_2566" data-name="Path 2566" d="M10.519.009c5.272-.3,9.13,6.395,8.618,14.944s-5.2,15.719-10.474,16.015S-.467,24.574.046,16.025,5.247.305,10.519.009Z" transform="translate(19.05 45.883) rotate(-149.815)" fill="#f3f3f3"/>
          <g id="Group_551" data-name="Group 551" transform="translate(2.468 9.461)">
            <g id="Group_550" data-name="Group 550" transform="translate(0 0)" clip-path="url(#clip-path)">
              <g id="Group_549" data-name="Group 549" transform="translate(9.038 7.41)">
                <path id="Path_2283" data-name="Path 2283" d="M253.145,185.065l-14.082,7.114v-3.791A6.521,6.521,0,0,1,242.5,183.2l7.213-3.644c1.9-.958,3.434-.187,3.434,1.722Z" transform="translate(-239.063 -165.295)" fill="#726e8b"/>
                <path id="Path_2284" data-name="Path 2284" d="M246.1,183.854h0c-1.375.695-2.49.136-2.49-1.248V180.1l4.979-2.515v2.506A4.727,4.727,0,0,1,246.1,183.854Z" transform="translate(-239.062 -165.101)" fill="#f0cad4"/>
                <g id="Group_548" data-name="Group 548" transform="translate(1.096)">
                  <path id="Path_2285" data-name="Path 2285" d="M248.541,177.7l-1.124,1.221a3.545,3.545,0,0,1-2.627,1.328l-1.124-.086c-1.684-.128-2.723-1.413-2.723-3.371V172.9c0-2.868,2.311-6.361,5.16-7.8h0c2.85-1.44,5.16-.282,5.16,2.587v3.893A9.668,9.668,0,0,1,248.541,177.7Z" transform="translate(-240.159 -163.466)" fill="#f0cad4"/>
                  <path id="Path_2286" data-name="Path 2286" d="M251.26,178.508h0c-.433.219-.784.043-.784-.394V176.3a1.49,1.49,0,0,1,.784-1.187h0c.434-.219.785-.043.785.394v1.812A1.489,1.489,0,0,1,251.26,178.508Z" transform="translate(-250.476 -164.781)" fill="#f0cad4"/>
                  <path id="Path_2287" data-name="Path 2287" d="M240.944,172.55h0c-.433.22-.785.043-.785-.393v-1.813a1.491,1.491,0,0,1,.785-1.186h0c.433-.219.784-.043.784.393v1.813A1.49,1.49,0,0,1,240.944,172.55Z" transform="translate(-229.84 -164.038)" fill="#f0cad4"/>
                  <path id="Path_2288" data-name="Path 2288" d="M240.625,174.153s-.456-3.175.26-4.419a11.3,11.3,0,0,1,5.239-5.273c3.924-1.982,4.777-1.02,5.585.175,0,0,.669,2.593-.219,4.028l-.266,1.237a3.574,3.574,0,0,1-1.153-3.646,15.215,15.215,0,0,1-7.525,5.241,4.65,4.65,0,0,1-1.384,3.093Z" transform="translate(-240.386 -163.321)" fill="#8c7866"/>
                </g>
              </g>
            </g>
          </g>
          <g id="Group_552" data-name="Group 552" transform="translate(3.766 37.969)">
            <path id="Path_2289" data-name="Path 2289" d="M260.887,197.085,231.325,212.02v-1.6l29.562-14.935Z" transform="translate(-231.325 -188.434)" fill="#c4c4c4"/>
            <path id="Path_2290" data-name="Path 2290" d="M253.912,188.417,238.3,196.307v-.989l15.616-7.889Z" transform="translate(-231.323 -187.428)" fill="#c4c4c4"/>
            <path id="Path_2291" data-name="Path 2291" d="M260.887,199.792l-29.562,14.935v-1.6l29.562-14.935Z" transform="translate(-231.325 -188.772)" fill="#c4c4c4"/>
            <path id="Path_2292" data-name="Path 2292" d="M260.887,202.5l-29.562,14.935v-1.6L260.887,200.9Z" transform="translate(-231.325 -189.11)" fill="#c4c4c4"/>
            <path id="Path_2293" data-name="Path 2293" d="M260.887,205.205l-29.562,14.935v-1.6l29.562-14.935Z" transform="translate(-231.325 -189.448)" fill="#c4c4c4"/>
            <path id="Path_2294" data-name="Path 2294" d="M260.887,207.912l-29.562,14.935v-1.6l29.562-14.935Z" transform="translate(-231.325 -189.785)" fill="#c4c4c4"/>
          </g>
          <g id="Group_553" data-name="Group 553" transform="translate(8.696 41.941)">
            <path id="Path_2295" data-name="Path 2295" d="M255.951,202.507a2.965,2.965,0,0,1-1.561,2.359c-.861.435-1.56.085-1.56-.782a2.964,2.964,0,0,1,1.56-2.36C255.252,201.288,255.951,201.639,255.951,202.507Z" transform="translate(-252.829 -193.161)" fill="#e695ae"/>
            <path id="Path_2296" data-name="Path 2296" d="M250.426,199.316a2.963,2.963,0,0,1-1.561,2.36c-.861.436-1.56.086-1.56-.782a2.966,2.966,0,0,1,1.56-2.359C249.727,198.1,250.426,198.448,250.426,199.316Z" transform="translate(-241.778 -192.762)" fill="#98c0ef"/>
            <path id="Path_2297" data-name="Path 2297" d="M244.9,196.126a2.965,2.965,0,0,1-1.56,2.36c-.862.436-1.561.085-1.561-.782a2.965,2.965,0,0,1,1.561-2.359C244.2,194.908,244.9,195.258,244.9,196.126Z" transform="translate(-230.726 -192.364)" fill="#eaad59"/>
            <path id="Path_2298" data-name="Path 2298" d="M239.375,192.936a2.964,2.964,0,0,1-1.56,2.36c-.862.435-1.56.085-1.56-.782a2.961,2.961,0,0,1,1.56-2.36C238.677,191.718,239.375,192.068,239.375,192.936Z" transform="translate(-219.674 -191.966)" fill="#b687f2"/>
          </g>
        </g>
      </g>
    </g>
    <g id="Group_562" data-name="Group 562" transform="translate(48.443 81.687)">
      <g id="Group_559" data-name="Group 559" transform="translate(79.822)">
        <path id="Path_2299" data-name="Path 2299" d="M191.021,186.764c13.507-19.914,36.246-29.937,50.789-22.386l12.641,6.356-4.846,7.051a16.972,16.972,0,0,0-2.754-2.986c-12.294-3.482-29.208,4.842-39.606,20.173s-10.644,32.308-1.26,40.082a20.749,20.749,0,0,0,3.794.66l-4.726,6.876L192.9,236.5C178.356,228.945,177.516,206.679,191.021,186.764Z" transform="translate(-181.417 -161.863)" fill="#2db6f6"/>
        <path id="Path_2300" data-name="Path 2300" d="M180.03,193.726c13.506-19.914,36.245-29.937,50.788-22.386s15.384,29.817,1.878,49.732-36.245,29.937-50.788,22.386S166.524,213.641,180.03,193.726Zm2.811,42.2c12.3,3.482,29.209-4.842,39.606-20.172s10.645-32.309,1.26-40.083c-12.294-3.482-29.208,4.842-39.606,20.173S173.458,228.148,182.841,235.923Z" transform="translate(-158.273 -162.732)" fill="#1388bf"/>
        <path id="Path_2301" data-name="Path 2301" d="M215.3,216.61c10.4-15.331,10.645-32.309,1.26-40.083-5.362-1.518-11.6-.789-17.8,1.786,7.6-3.169,15.265-3.585,21.293-.454,12.385,6.431,13.168,25.291,1.75,42.128s-30.715,25.271-43.1,18.841a17.063,17.063,0,0,1-3.01-2.045C187.995,240.265,204.908,231.94,215.3,216.61Z" transform="translate(-151.131 -163.591)" fill="#1899d6"/>
        <path id="Path_2302" data-name="Path 2302" d="M190.276,196.7c10.4-15.331,27.312-23.655,39.606-20.173,9.384,7.774,9.137,24.752-1.26,40.083s-27.311,23.655-39.606,20.172C179.633,229.012,179.88,212.034,190.276,196.7Z" transform="translate(-164.448 -163.595)" fill="#d4f2ff" opacity="0.6"/>
        <g id="Group_557" data-name="Group 557" transform="translate(25.987 42.319)" opacity="0.8">
          <path id="Path_2303" data-name="Path 2303" d="M195.322,238.021c10.177,0,21.721-6.859,29.214-17.906a43.69,43.69,0,0,0,3.742-6.7,2.268,2.268,0,0,0-1.525-3.042,2.823,2.823,0,0,0-3.476,1.335,39.144,39.144,0,0,1-3.358,6.006c-7.513,11.076-19.772,17.563-28.517,15.085a2.779,2.779,0,0,0-3.38,1.511,2.3,2.3,0,0,0,1.726,2.957A20.4,20.4,0,0,0,195.322,238.021Z" transform="translate(-187.891 -210.217)" fill="#fff"/>
        </g>
        <g id="Group_558" data-name="Group 558" transform="translate(58.646 16.638)" opacity="0.8">
          <path id="Path_2304" data-name="Path 2304" d="M193.092,199.875a2.551,2.551,0,0,0,2.68-2.25c.328-6.783-1.888-12.5-6.241-16.108a2.959,2.959,0,0,0-3.794.091,2.147,2.147,0,0,0,.1,3.32c3.207,2.656,4.829,7.1,4.568,12.5a2.5,2.5,0,0,0,2.569,2.445Z" transform="translate(-185.002 -180.874)" fill="#fff"/>
        </g>
      </g>
      <g id="Group_560" data-name="Group 560" transform="translate(51.819 55.071)">
        <path id="Path_2305" data-name="Path 2305" d="M280.216,227.474c-1.457-2.149-3.911-3.23-5.479-2.416L246.758,239.29l5.33,7.752,27.925-14.2C281.582,232.025,281.672,229.622,280.216,227.474Z" transform="translate(-245.572 -224.787)" fill="#8fcdef"/>
        <path id="Path_2306" data-name="Path 2306" d="M275.713,246.653c1.456,2.148,3.91,3.23,5.479,2.415s1.659-3.216.2-5.365-3.91-3.23-5.479-2.416S274.255,244.5,275.713,246.653Z" transform="translate(-274.676 -226.812)" fill="#7d7d7d"/>
      </g>
      <g id="Group_561" data-name="Group 561" transform="translate(0 66.031)">
        <path id="Path_2307" data-name="Path 2307" d="M330.318,242.064c-2.58-3.8-6.921-5.716-9.7-4.275l-49.511,25.186,9.431,13.719,49.418-25.135C332.735,250.117,332.9,245.866,330.318,242.064Z" transform="translate(-269.01 -237.309)" fill="#3abdfb"/>
        <path id="Path_2308" data-name="Path 2308" d="M322.349,276c2.58,3.8,6.921,5.715,9.7,4.274s2.937-5.693.358-9.495-6.92-5.716-9.7-4.274S319.77,272.2,322.349,276Z" transform="translate(-320.516 -240.894)" fill="#7d7d7d"/>
        <path id="Path_2309" data-name="Path 2309" d="M324.286,275.576c1.682,2.482,4.516,3.731,6.328,2.79s1.918-3.716.234-6.2-4.516-3.731-6.329-2.79S322.6,273.094,324.286,275.576Z" transform="translate(-320.897 -241.273)" fill="#999"/>
      </g>
    </g>
    <g id="Group_584" data-name="Group 584" transform="translate(17.498 196.599)">
      <g id="Group_569" data-name="Group 569" transform="translate(0 13.782)">
        <g id="Group_563" data-name="Group 563">
          <path id="Path_2311" data-name="Path 2311" d="M344.346,342.71l-60.907-30.768a4.428,4.428,0,0,0-3.937,0l-39.208,19.807a2.569,2.569,0,0,0,0,4.724l23.982,12.115a12.894,12.894,0,0,0,11.463,0h0l32.831,16.585a3.5,3.5,0,0,0,3.117,0l32.659-16.5A3.244,3.244,0,0,0,344.346,342.71Z" transform="translate(-238.735 -310.43)" fill="#ea9c35"/>
          <path id="Path_2312" data-name="Path 2312" d="M344.346,341.061l-60.907-30.768a4.427,4.427,0,0,0-3.937,0L240.294,330.1a2.569,2.569,0,0,0,0,4.724l23.982,12.115a12.9,12.9,0,0,0,11.463,0h0l32.831,16.585a3.5,3.5,0,0,0,3.117,0l32.659-16.5A3.245,3.245,0,0,0,344.346,341.061Z" transform="translate(-238.735 -309.831)" fill="url(#linear-gradient)"/>
        </g>
        <g id="Group_568" data-name="Group 568" transform="translate(82.797 30.468)">
          <path id="Path_2313" data-name="Path 2313" d="M252.452,369.412l11.632-5.876-11.632-5.876-11.632,5.876Z" transform="translate(-240.819 -357.66)" fill="#fff"/>
          <g id="Group_567" data-name="Group 567">
            <g id="Group_566" data-name="Group 566" clip-path="url(#clip-path-6)">
              <g id="Group_565" data-name="Group 565" transform="translate(1.315 0.965)">
                <path id="Path_2314" data-name="Path 2314" d="M264.508,359.174l-7.283,3.8,1.972.965a4.456,4.456,0,0,0,3.573-.046l3.73-1.944c.981-.512.971-1.32-.022-1.805Z" transform="translate(-257.225 -359.174)" fill="#726e8b"/>
                <path id="Path_2315" data-name="Path 2315" d="M257.88,363.816h0c-.711.371-.7.957.015,1.309l1.3.638,2.575-1.342-1.3-.638A3.232,3.232,0,0,0,257.88,363.816Z" transform="translate(-251.86 -360.754)" fill="#f0cad4"/>
                <g id="Group_564" data-name="Group 564" transform="translate(6.338 3.158)">
                  <path id="Path_2316" data-name="Path 2316" d="M251.618,364.215l-.921.137a1.819,1.819,0,0,0-1.359.708l-.242.469c-.362.7.042,1.443,1.061,1.942l2.024.99a6.694,6.694,0,0,0,5.369-.069h0c1.474-.768,1.46-1.983-.032-2.713l-2.024-.991A6.972,6.972,0,0,0,251.618,364.215Z" transform="translate(-248.966 -364.132)" fill="#f0cad4"/>
                  <path id="Path_2317" data-name="Path 2317" d="M258.428,369.161h0c-.224.116-.222.3.005.412l.942.461a1.018,1.018,0,0,0,.817-.011h0c.224-.116.222-.3-.005-.412l-.942-.461A1.018,1.018,0,0,0,258.428,369.161Z" transform="translate(-257.446 -365.924)" fill="#f0cad4"/>
                  <path id="Path_2318" data-name="Path 2318" d="M251.1,364.794h0c-.224.117-.222.3.005.413l.942.46a1.016,1.016,0,0,0,.816-.01h0c.224-.117.222-.3,0-.413l-.943-.461A1.016,1.016,0,0,0,251.1,364.794Z" transform="translate(-244.778 -364.339)" fill="#f0cad4"/>
                  <path id="Path_2319" data-name="Path 2319" d="M248.049,368.921a7.065,7.065,0,0,0,2.364,1.021,7.308,7.308,0,0,0,4.074-.744c2.029-1.057,1.746-1.642,1.33-2.268a4.536,4.536,0,0,0-2.15-.938l-.711-.209s.156.908,1.6,1.388a8.864,8.864,0,0,0-4.64,1.661,3.363,3.363,0,0,0-1.961-.236Z" transform="translate(-245.7 -364.731)" fill="#8c7866"/>
                </g>
              </g>
            </g>
          </g>
        </g>
      </g>
      <g id="Group_576" data-name="Group 576" transform="translate(0 6.891)">
        <g id="Group_570" data-name="Group 570">
          <path id="Path_2321" data-name="Path 2321" d="M344.346,331.892l-60.907-30.768a4.428,4.428,0,0,0-3.937,0l-39.208,19.807a2.569,2.569,0,0,0,0,4.724l23.982,12.115a12.9,12.9,0,0,0,11.463,0h0l32.831,16.585a3.5,3.5,0,0,0,3.117,0l32.659-16.5A3.245,3.245,0,0,0,344.346,331.892Z" transform="translate(-238.735 -299.612)" fill="#ea9c35"/>
          <path id="Path_2322" data-name="Path 2322" d="M344.346,330.244l-60.907-30.769a4.429,4.429,0,0,0-3.937,0l-39.208,19.808a2.569,2.569,0,0,0,0,4.724l23.982,12.115a12.894,12.894,0,0,0,11.463,0h0l32.831,16.585a3.5,3.5,0,0,0,3.117,0l32.659-16.5A3.244,3.244,0,0,0,344.346,330.244Z" transform="translate(-238.735 -299.014)" fill="url(#linear-gradient)"/>
        </g>
        <g id="Group_575" data-name="Group 575" transform="translate(82.797 30.469)">
          <path id="Path_2323" data-name="Path 2323" d="M252.452,358.595l11.632-5.876-11.632-5.876-11.632,5.876Z" transform="translate(-240.819 -346.842)" fill="#fff"/>
          <g id="Group_574" data-name="Group 574">
            <g id="Group_573" data-name="Group 573" clip-path="url(#clip-path-7)">
              <g id="Group_572" data-name="Group 572" transform="translate(1.315 0.965)">
                <path id="Path_2324" data-name="Path 2324" d="M264.508,348.357l-7.283,3.8,1.972.964a4.454,4.454,0,0,0,3.573-.046l3.73-1.944c.981-.511.971-1.319-.022-1.805Z" transform="translate(-257.225 -348.357)" fill="#726e8b"/>
                <path id="Path_2325" data-name="Path 2325" d="M257.88,353h0c-.711.371-.7.956.015,1.308l1.3.638,2.575-1.342-1.3-.638A3.229,3.229,0,0,0,257.88,353Z" transform="translate(-251.86 -349.937)" fill="#f0cad4"/>
                <g id="Group_571" data-name="Group 571" transform="translate(6.338 3.158)">
                  <path id="Path_2326" data-name="Path 2326" d="M251.618,353.4l-.921.136a1.818,1.818,0,0,0-1.359.708l-.242.469c-.362.7.042,1.444,1.061,1.942l2.024.991a6.7,6.7,0,0,0,5.369-.069h0c1.474-.768,1.46-1.983-.032-2.713l-2.024-.991A6.972,6.972,0,0,0,251.618,353.4Z" transform="translate(-248.966 -353.315)" fill="#f0cad4"/>
                  <path id="Path_2327" data-name="Path 2327" d="M258.428,358.343h0c-.224.117-.222.3.005.413l.942.461a1.018,1.018,0,0,0,.817-.01h0c.224-.117.222-.3-.005-.413l-.942-.461A1.018,1.018,0,0,0,258.428,358.343Z" transform="translate(-257.446 -355.107)" fill="#f0cad4"/>
                  <path id="Path_2328" data-name="Path 2328" d="M251.1,353.977h0c-.224.117-.222.3.005.412l.942.461a1.019,1.019,0,0,0,.816-.01h0c.224-.117.222-.3,0-.413l-.943-.461A1.017,1.017,0,0,0,251.1,353.977Z" transform="translate(-244.778 -353.522)" fill="#f0cad4"/>
                  <path id="Path_2329" data-name="Path 2329" d="M248.049,358.1a7.065,7.065,0,0,0,2.364,1.021,7.309,7.309,0,0,0,4.074-.744c2.029-1.058,1.746-1.642,1.33-2.268a4.531,4.531,0,0,0-2.15-.937l-.711-.209s.156.908,1.6,1.387a8.87,8.87,0,0,0-4.64,1.661,3.368,3.368,0,0,0-1.961-.236Z" transform="translate(-245.7 -353.914)" fill="#8c7866"/>
                </g>
              </g>
            </g>
          </g>
        </g>
      </g>
      <g id="Group_583" data-name="Group 583">
        <g id="Group_577" data-name="Group 577">
          <path id="Path_2331" data-name="Path 2331" d="M344.346,321.075l-60.907-30.769a4.428,4.428,0,0,0-3.937,0l-39.208,19.808a2.569,2.569,0,0,0,0,4.724l23.982,12.115a12.894,12.894,0,0,0,11.463,0h0l32.831,16.585a3.5,3.5,0,0,0,3.117,0l32.659-16.5A3.244,3.244,0,0,0,344.346,321.075Z" transform="translate(-238.735 -288.795)" fill="#ea9c35"/>
          <path id="Path_2332" data-name="Path 2332" d="M344.346,319.426l-60.907-30.768a4.428,4.428,0,0,0-3.937,0l-39.208,19.807a2.569,2.569,0,0,0,0,4.724L264.276,325.3a12.9,12.9,0,0,0,11.463,0h0L308.57,341.89a3.509,3.509,0,0,0,3.117,0l32.659-16.5A3.245,3.245,0,0,0,344.346,319.426Z" transform="translate(-238.735 -288.196)" fill="url(#linear-gradient)"/>
        </g>
        <g id="Group_582" data-name="Group 582" transform="translate(82.797 30.469)">
          <path id="Path_2333" data-name="Path 2333" d="M252.452,347.777l11.632-5.876-11.632-5.876L240.819,341.9Z" transform="translate(-240.819 -336.025)" fill="#fff"/>
          <g id="Group_581" data-name="Group 581">
            <g id="Group_580" data-name="Group 580" clip-path="url(#clip-path-8)">
              <g id="Group_579" data-name="Group 579" transform="translate(1.315 0.965)">
                <path id="Path_2334" data-name="Path 2334" d="M264.508,337.539l-7.283,3.8,1.972.965a4.457,4.457,0,0,0,3.573-.046l3.73-1.944c.981-.512.971-1.319-.022-1.805Z" transform="translate(-257.225 -337.539)" fill="#726e8b"/>
                <path id="Path_2335" data-name="Path 2335" d="M257.88,342.182h0c-.711.37-.7.956.015,1.308l1.3.638,2.575-1.342-1.3-.638A3.229,3.229,0,0,0,257.88,342.182Z" transform="translate(-251.86 -339.12)" fill="#f0cad4"/>
                <g id="Group_578" data-name="Group 578" transform="translate(6.338 3.158)">
                  <path id="Path_2336" data-name="Path 2336" d="M251.618,342.58l-.921.137a1.819,1.819,0,0,0-1.359.708l-.242.47c-.362.7.042,1.444,1.061,1.942l2.024.991a6.7,6.7,0,0,0,5.369-.069h0c1.474-.768,1.46-1.982-.032-2.713l-2.024-.991A6.971,6.971,0,0,0,251.618,342.58Z" transform="translate(-248.966 -342.497)" fill="#f0cad4"/>
                  <path id="Path_2337" data-name="Path 2337" d="M258.428,347.526h0c-.224.116-.222.3.005.412l.942.461a1.021,1.021,0,0,0,.817-.01h0c.224-.117.222-.3-.005-.413l-.942-.461A1.018,1.018,0,0,0,258.428,347.526Z" transform="translate(-257.446 -344.289)" fill="#f0cad4"/>
                  <path id="Path_2338" data-name="Path 2338" d="M251.1,343.16h0c-.224.117-.222.3.005.413l.942.461a1.017,1.017,0,0,0,.816-.011h0c.224-.117.222-.3,0-.412l-.943-.461A1.019,1.019,0,0,0,251.1,343.16Z" transform="translate(-244.778 -342.704)" fill="#f0cad4"/>
                  <path id="Path_2339" data-name="Path 2339" d="M248.049,347.286a7.064,7.064,0,0,0,2.364,1.021,7.309,7.309,0,0,0,4.074-.744c2.029-1.058,1.746-1.642,1.33-2.268a4.536,4.536,0,0,0-2.15-.938l-.711-.209s.156.908,1.6,1.387a8.865,8.865,0,0,0-4.64,1.661,3.363,3.363,0,0,0-1.961-.236Z" transform="translate(-245.7 -343.096)" fill="#8c7866"/>
                </g>
              </g>
            </g>
          </g>
        </g>
      </g>
    </g>
    <g id="Group_586" data-name="Group 586" transform="translate(232.522 51.083)">
      <g id="Group_585" data-name="Group 585" transform="translate(0)">
        <path id="Path_2341" data-name="Path 2341" d="M145.41,153.767a3.676,3.676,0,0,1-3.864-3.242l-.928-19.313c-.079-2.363,2.09-4.317,4.792-4.317s4.87,1.954,4.792,4.317l-.929,19.313a3.675,3.675,0,0,1-3.863,3.242Z" transform="translate(-140.616 -126.895)" fill="#2db6f6"/>
      </g>
      <path id="Path_2342" data-name="Path 2342" d="M141.7,163.011a3.749,3.749,0,1,0,3.716-3.251A3.507,3.507,0,0,0,141.7,163.011Z" transform="translate(-140.617 -130.997)" fill="#2db6f6"/>
    </g>
  </g>
</svg>
