<svg xmlns="http://www.w3.org/2000/svg" xmlns:xlink="http://www.w3.org/1999/xlink" width="283.525" height="250.453" viewBox="0 0 283.525 250.453">
  
  <g id="Group_822" data-name="Group 822" transform="translate(-352.819 -154.676)">
    <g id="Group_711" data-name="Group 711" transform="translate(352.819 247.791)" opacity="0.15">
      <path id="Path_2570" data-name="Path 2570" d="M585.345,330.1l-50.326,28.19c-2.229,1.286-6.159,1.123-8.733-.363l-16.741-9.985c-2.573-1.487-2.856-3.755-.627-5.043l50.135-28.756c2.228-1.287,6.159-1.123,8.733.362l16.932,10.553C587.293,326.548,587.575,328.818,585.345,330.1Z" transform="translate(-324.274 -218.506)" fill="#bdcefa"/>
      <path id="Path_2571" data-name="Path 2571" d="M625.935,303.285,474.076,388c-6.726,3.884-18.586,3.393-26.352-1.092l-88.476-51.08c-7.766-4.485-8.618-11.332-1.892-15.215L509.215,235.9c6.726-3.883,18.585-3.392,26.352,1.092l88.475,51.082C631.81,292.555,632.661,299.4,625.935,303.285Z" transform="translate(-352.819 -233.278)" fill="#bdcefa"/>
    </g>
    <g id="Group_729" data-name="Group 729" transform="translate(535.959 314.357)">
      <path id="Path_2605" data-name="Path 2605" d="M585.345,306.294l-50.326,28.188c-2.229,1.286-6.159,1.124-8.733-.362l-16.741-9.985c-2.573-1.486-2.856-3.755-.627-5.042l50.135-28.756c2.228-1.288,6.159-1.124,8.733.361l16.932,10.553C587.293,302.738,587.575,305.007,585.345,306.294Z" transform="translate(-507.415 -289.469)" fill="#fff"/>
      <g id="Group_728" data-name="Group 728" transform="translate(0.001 15.04)">
        <path id="Path_2606" data-name="Path 2606" d="M583.137,307.1v-4.932h0a2.779,2.779,0,0,1-1.462,1.785l-50.326,28.188a7.928,7.928,0,0,1-4.056.856v5.721a7.928,7.928,0,0,0,4.056-.857l50.326-28.19A2.457,2.457,0,0,0,583.137,307.1Z" transform="translate(-503.745 -302.165)" fill="url(#linear-gradient)"/>
        <path id="Path_2607" data-name="Path 2607" d="M526.286,329.1l-16.74-9.985a3.9,3.9,0,0,1-2.09-2.47v4.932c-.226,1.106.487,2.334,2.09,3.259l16.74,9.985a10.065,10.065,0,0,0,4.677,1.219v-5.721A10.065,10.065,0,0,1,526.286,329.1Z" transform="translate(-507.415 -299.491)" fill="url(#linear-gradient-2)"/>
      </g>
    </g>
    <g id="Group_731" data-name="Group 731" transform="translate(556.91 345.367)">
      <path id="Path_2608" data-name="Path 2608" d="M603.031,332.471,552.7,360.66c-2.229,1.287-6.159,1.124-8.733-.362l-16.74-9.985c-2.574-1.486-2.856-3.755-.627-5.042l50.134-28.756c2.229-1.288,6.159-1.124,8.733.361L602.4,327.428C604.978,328.915,605.26,331.184,603.031,332.471Z" transform="translate(-525.1 -315.646)" fill="#fff"/>
      <g id="Group_730" data-name="Group 730" transform="translate(0.001 15.04)">
        <path id="Path_2609" data-name="Path 2609" d="M600.822,333.275v-4.932h0a2.78,2.78,0,0,1-1.462,1.785l-50.327,28.188a7.924,7.924,0,0,1-4.055.857v5.721a7.924,7.924,0,0,0,4.055-.857l50.327-28.19A2.455,2.455,0,0,0,600.822,333.275Z" transform="translate(-521.431 -328.342)" fill="url(#linear-gradient-3)"/>
        <path id="Path_2610" data-name="Path 2610" d="M543.971,355.279l-16.74-9.985a3.9,3.9,0,0,1-2.089-2.47v4.932c-.226,1.106.487,2.334,2.089,3.259L543.971,361a10.069,10.069,0,0,0,4.678,1.219V356.5A10.069,10.069,0,0,1,543.971,355.279Z" transform="translate(-525.101 -325.668)" fill="url(#linear-gradient-4)"/>
      </g>
    </g>
    <g id="Group_753" data-name="Group 753" transform="translate(352.819 211.786)">
      <g id="Group_733" data-name="Group 733" transform="translate(0 0.614)">
        <path id="Path_2611" data-name="Path 2611" d="M625.935,273.412l-149.283,86c-6.726,3.883-18.586,3.392-26.352-1.092l-91.051-52.369c-7.766-4.484-8.618-11.331-1.892-15.214l151.859-84.71c6.726-3.884,18.585-3.393,26.352,1.092L624.042,258.2C631.81,262.681,632.661,269.527,625.935,273.412Z" transform="translate(-352.819 -203.403)" fill="#ffb6af"/>
        <g id="Group_732" data-name="Group 732" transform="translate(0.003 64.624)">
          <path id="Path_2612" data-name="Path 2612" d="M612.952,262.068v-4.111h0c-.413,2.026-1.869,3.916-4.41,5.384l-149.283,86c-3.233,1.867-7.658,2.7-12.237,2.584v6.493c4.58.113,9-.718,12.237-2.585l149.283-86C612.059,267.8,613.484,264.959,612.952,262.068Z" transform="translate(-335.429 -257.955)" fill="#ffa79f"/>
          <path id="Path_2613" data-name="Path 2613" d="M450.3,343.5l-91.051-52.369c-3.7-2.139-5.817-4.816-6.3-7.453v4.112c-.684,3.337,1.469,7.043,6.3,9.834L450.3,349.988a30.4,30.4,0,0,0,14.115,3.677v-6.493A30.387,30.387,0,0,1,450.3,343.5Z" transform="translate(-352.821 -253.206)" fill="#c9c9c9"/>
          <path id="Path_2614" data-name="Path 2614" d="M450.3,343.5l-91.051-52.369c-3.7-2.139-5.817-4.816-6.3-7.453v4.112c-.684,3.337,1.469,7.043,6.3,9.834L450.3,349.988a30.4,30.4,0,0,0,14.115,3.677v-6.493A30.387,30.387,0,0,1,450.3,343.5Z" transform="translate(-352.821 -253.206)" fill="#ffa79f"/>
        </g>
      </g>
      <g id="Group_742" data-name="Group 742" transform="translate(22.425 72.163)">
        <g id="Group_734" data-name="Group 734">
          <path id="Path_2615" data-name="Path 2615" d="M482.217,309.63l-31.172,18-79.3-45.83,31.172-18Z" transform="translate(-371.748 -263.8)" fill="#fff"/>
          <path id="Path_2616" data-name="Path 2616" d="M469.858,302.487v12.939l-31.172,18V320.484Z" transform="translate(-359.389 -256.657)" fill="url(#linear-gradient-5)"/>
          <path id="Path_2617" data-name="Path 2617" d="M371.748,278.992v12.939l79.3,45.83V324.822Z" transform="translate(-371.748 -260.995)" fill="url(#linear-gradient-6)"/>
        </g>
        <g id="Group_741" data-name="Group 741" transform="translate(14.087 3.501)">
          <g id="Group_736" data-name="Group 736">
            <path id="Path_2618" data-name="Path 2618" d="M415.295,277.135l-13.678,7.9a4.36,4.36,0,0,1-3.907-.162L384.594,277.3c-1.151-.665-1.278-1.68-.281-2.256l13.678-7.9a4.36,4.36,0,0,1,3.907.162l13.117,7.572C416.167,275.544,416.292,276.559,415.295,277.135Z" transform="translate(-383.64 -266.755)" fill="#9ce1f0"/>
            <g id="Group_735" data-name="Group 735" transform="translate(0.001 9.436)">
              <path id="Path_2619" data-name="Path 2619" d="M413.429,280.866v-6.023h0a1.242,1.242,0,0,1-.654.8l-13.678,7.9a3.548,3.548,0,0,1-1.814.383V290.3a3.535,3.535,0,0,0,1.814-.383l13.678-7.9A1.1,1.1,0,0,0,413.429,280.866Z" transform="translate(-381.122 -274.698)" fill="#39bed1"/>
              <path id="Path_2620" data-name="Path 2620" d="M397.71,283.4l-13.116-7.573a1.742,1.742,0,0,1-.935-1.1v6.023c-.1.494.218,1.044.935,1.457l13.116,7.573a4.5,4.5,0,0,0,2.093.545v-6.376A4.511,4.511,0,0,1,397.71,283.4Z" transform="translate(-383.641 -274.721)" fill="#20a4af"/>
            </g>
          </g>
          <g id="Group_738" data-name="Group 738" transform="translate(24.124 13.975)">
            <path id="Path_2621" data-name="Path 2621" d="M435.659,288.932l-13.678,7.9a4.36,4.36,0,0,1-3.907-.162l-13.116-7.573c-1.151-.665-1.278-1.68-.281-2.256l13.678-7.9a4.359,4.359,0,0,1,3.907.162l13.116,7.572C436.529,287.341,436.656,288.355,435.659,288.932Z" transform="translate(-404.004 -278.552)" fill="#c4c4c4"/>
            <g id="Group_737" data-name="Group 737" transform="translate(0 9.436)">
              <path id="Path_2622" data-name="Path 2622" d="M433.793,292.663V286.64h0a1.246,1.246,0,0,1-.654.8l-13.678,7.9a3.55,3.55,0,0,1-1.814.383v6.376a3.549,3.549,0,0,0,1.814-.383l13.678-7.9A1.1,1.1,0,0,0,433.793,292.663Z" transform="translate(-401.485 -286.495)" fill="#cbcbcb"/>
              <path id="Path_2623" data-name="Path 2623" d="M418.074,295.2l-13.116-7.573a1.742,1.742,0,0,1-.935-1.1v6.023c-.1.494.218,1.044.935,1.457l13.116,7.573a4.5,4.5,0,0,0,2.093.545V295.74A4.511,4.511,0,0,1,418.074,295.2Z" transform="translate(-404.004 -286.518)" fill="#9a9a9a"/>
            </g>
          </g>
          <g id="Group_740" data-name="Group 740" transform="translate(48.75 28.148)">
            <path id="Path_2624" data-name="Path 2624" d="M456.447,300.895l-13.678,7.9a4.355,4.355,0,0,1-3.907-.161l-13.116-7.573c-1.151-.665-1.278-1.68-.281-2.256l13.678-7.9a4.356,4.356,0,0,1,3.907.162l13.117,7.572C457.319,299.3,457.444,300.319,456.447,300.895Z" transform="translate(-424.792 -290.516)" fill="#ffa39b"/>
            <g id="Group_739" data-name="Group 739" transform="translate(0.001 9.436)">
              <path id="Path_2625" data-name="Path 2625" d="M454.581,304.627V298.6h0a1.237,1.237,0,0,1-.654.8l-13.678,7.9a3.535,3.535,0,0,1-1.814.384v6.376a3.547,3.547,0,0,0,1.814-.383l13.678-7.9A1.1,1.1,0,0,0,454.581,304.627Z" transform="translate(-422.274 -298.458)" fill="#ff8075"/>
              <path id="Path_2626" data-name="Path 2626" d="M438.862,307.16l-13.116-7.573a1.746,1.746,0,0,1-.935-1.105V304.5c-.1.494.218,1.044.935,1.457l13.116,7.573a4.511,4.511,0,0,0,2.093.545V307.7A4.511,4.511,0,0,1,438.862,307.16Z" transform="translate(-424.793 -298.481)" fill="#ea4335"/>
            </g>
          </g>
        </g>
      </g>
      <g id="Group_747" data-name="Group 747" transform="translate(225.056 20.747)">
        <g id="Group_744" data-name="Group 744" transform="translate(0 15.234)">
          <ellipse id="Ellipse_86" data-name="Ellipse 86" cx="21.091" cy="12.177" rx="21.091" ry="12.177" fill="#fff"/>
          <g id="Group_743" data-name="Group 743" transform="translate(0.005 12.243)">
            <path id="Path_2627" data-name="Path 2627" d="M578.8,252.137c-8.237,4.755-21.591,4.755-29.828,0-4.089-2.361-6.144-5.451-6.172-8.545v13.087c-.03,3.138,2.025,6.281,6.172,8.676,8.237,4.755,21.591,4.755,29.828,0,4.146-2.4,6.2-5.538,6.172-8.676V243.592C584.945,246.686,582.891,249.776,578.8,252.137Z" transform="translate(-542.802 -243.592)" fill="url(#linear-gradient-7)"/>
          </g>
        </g>
        <g id="Group_746" data-name="Group 746" transform="translate(2.913)">
          <path id="Path_2628" data-name="Path 2628" d="M563.434,237.35l12.879,7.436c-7.065,4.079-18.692,4.079-25.759,0s-7.065-10.793,0-14.872c3.946-2.278,9.494-3.388,15.034-3.007Z" transform="translate(-545.256 -219.21)" fill="#76b3ce"/>
          <g id="Group_745" data-name="Group 745" transform="translate(0.002 18.177)">
            <path id="Path_2629" data-name="Path 2629" d="M550.555,243.14c-3.516-2.029-5.281-4.712-5.3-7.4v7.485c-.017,2.71,1.749,5.424,5.3,7.473,7.066,4.08,18.694,4.08,25.759,0v-7.558C569.248,247.22,557.621,247.22,550.555,243.14Z" transform="translate(-545.258 -235.742)" fill="#20a4af"/>
          </g>
          <path id="Path_2630" data-name="Path 2630" d="M563.434,237.35l12.879,7.436c-7.065,4.079-18.692,4.079-25.759,0s-7.065-10.793,0-14.872c3.946-2.278,9.494-3.388,15.034-3.007Z" transform="translate(-545.256 -219.21)" fill="#9ce1f0"/>
          <path id="Path_2631" data-name="Path 2631" d="M560.6,230.839l2.155-10.441A25.276,25.276,0,0,1,573.48,223.4c7.065,4.08,7.065,10.793,0,14.872Z" transform="translate(-542.423 -220.398)" fill="#16b4ff"/>
          <path id="Path_2632" data-name="Path 2632" d="M560.6,229.212v7.7l12.879,7.436v-7.7Z" transform="translate(-542.423 -218.77)" fill="#3abdfb"/>
          <path id="Path_2633" data-name="Path 2633" d="M576.769,244.382V229.276c-.033,2.674-1.8,5.34-5.3,7.36v15.257C575.039,249.835,576.8,247.106,576.769,244.382Z" transform="translate(-540.415 -218.759)" fill="#4285f4"/>
        </g>
      </g>
      <g id="Group_752" data-name="Group 752" transform="translate(170.399)">
        <g id="Group_750" data-name="Group 750">
          <g id="Group_748" data-name="Group 748">
            <path id="Path_2634" data-name="Path 2634" d="M529.031,230.127l-29.981-17.309c-3.542-2.046-3.1-5.618.993-7.98h0c4.091-2.362,10.279-2.618,13.822-.573l29.98,17.309c3.542,2.046,3.1,5.619-.993,7.981h0C538.762,231.916,532.574,232.173,529.031,230.127Z" transform="translate(-496.659 -202.885)" fill="#fff"/>
          </g>
          <g id="Group_749" data-name="Group 749" transform="translate(0.005 6.62)">
            <path id="Path_2635" data-name="Path 2635" d="M542.852,228.523c-4.091,2.361-10.279,2.618-13.822.572l-29.98-17.309a4.168,4.168,0,0,1-2.386-3.313h0v8.837c0,.025,0,.051,0,.077a4.13,4.13,0,0,0,2.386,3.389l29.98,17.309c3.543,2.046,9.732,1.789,13.822-.573,2.31-1.333,3.456-3.053,3.379-4.666v-8.913C546.268,225.523,545.125,227.209,542.852,228.523Z" transform="translate(-496.664 -208.473)" fill="url(#linear-gradient-8)"/>
          </g>
        </g>
        <g id="Group_751" data-name="Group 751" transform="translate(8.451 3.448)">
          <path id="Path_2636" data-name="Path 2636" d="M510.512,209.675a6.154,6.154,0,0,1-5.567,0c-1.536-.887-1.536-2.327,0-3.214a6.154,6.154,0,0,1,5.567,0C512.049,207.348,512.049,208.787,510.512,209.675Z" transform="translate(-503.793 -205.795)" fill="#bdcefa"/>
          <path id="Path_2637" data-name="Path 2637" d="M517.845,213.909a6.151,6.151,0,0,1-5.565,0c-1.536-.887-1.536-2.325,0-3.214a6.151,6.151,0,0,1,5.565,0C519.383,211.583,519.383,213.021,517.845,213.909Z" transform="translate(-502.439 -205.013)" fill="#bdcefa"/>
          <path id="Path_2638" data-name="Path 2638" d="M525.179,218.143a6.151,6.151,0,0,1-5.565,0c-1.538-.887-1.538-2.327,0-3.214a6.151,6.151,0,0,1,5.565,0C526.716,215.816,526.716,217.255,525.179,218.143Z" transform="translate(-501.085 -204.232)" fill="#bdcefa"/>
          <path id="Path_2639" data-name="Path 2639" d="M532.513,222.377a6.153,6.153,0,0,1-5.567,0c-1.537-.887-1.537-2.325,0-3.213a6.146,6.146,0,0,1,5.567,0C534.05,220.051,534.05,221.489,532.513,222.377Z" transform="translate(-499.731 -203.45)" fill="#bdcefa"/>
        </g>
      </g>
    </g>
    <g id="Group_762" data-name="Group 762" transform="translate(534.348 194.68)">
      <g id="Group_754" data-name="Group 754" transform="translate(0 14.212)">
        <path id="Path_2640" data-name="Path 2640" d="M513.629,214.968h0a1.927,1.927,0,0,0,2.229-1.553l1.891-10.714a1.927,1.927,0,0,0-1.553-2.229h0a1.926,1.926,0,0,0-2.228,1.553l-1.892,10.714A1.927,1.927,0,0,0,513.629,214.968Z" transform="translate(-504.949 -200.442)" fill="#f9bb83"/>
        <path id="Path_2641" data-name="Path 2641" d="M506.143,213.986h0a1.928,1.928,0,0,0,2.41,1.256l6.629-1.933a1.925,1.925,0,0,0,1.794-2.04h0a1.926,1.926,0,0,0-2.04-1.794l-7.535,2.1A1.928,1.928,0,0,0,506.143,213.986Z" transform="translate(-506.055 -198.775)" fill="#f9bb83"/>
      </g>
      <g id="Group_757" data-name="Group 757" transform="translate(11.486 40.861)">
        <g id="Group_756" data-name="Group 756" transform="translate(0 16.803)">
          <g id="Group_755" data-name="Group 755">
            <path id="Path_2642" data-name="Path 2642" d="M524.289,240.643c.026.256-.179.476-.519.692-.1.062.013-1.379-.322-1.138-.1.07-4.726,3.674-7.309,3.008a.548.548,0,0,1-.386-.556v-.58c-.036-.656.939-1.655,2.42-3.1,1.631-1.589,2.671-2.581,5.109-1.174.7.4.977.7.981.961Z" transform="translate(-515.751 -237.121)" fill="#010400"/>
            <path id="Path_2643" data-name="Path 2643" d="M518.172,238.969c-1.971,1.921-3.047,3.056-2.034,3.64s3.035-.3,5.109-1.863c1.818-1.374,4.473-1.542,2.034-2.951S519.8,237.38,518.172,238.969Z" transform="translate(-515.751 -237.121)" fill="#484968"/>
          </g>
        </g>
        <path id="Path_2644" data-name="Path 2644" d="M519.467,240.672l.145-17.735,5.863,1.9-1.006,2.889a21.342,21.342,0,0,1-.74,7.772s-.836,1.706-.671,5.68C523.058,241.18,520.9,242.4,519.467,240.672Z" transform="translate(-515.065 -222.937)" fill="#f1bb85"/>
      </g>
      <g id="Group_760" data-name="Group 760" transform="translate(5.828 36.212)">
        <g id="Group_759" data-name="Group 759" transform="translate(0 16.803)">
          <g id="Group_758" data-name="Group 758">
            <path id="Path_2645" data-name="Path 2645" d="M519.513,236.719c.026.255-.179.476-.519.692-.1.062.013-1.379-.322-1.138-.1.069-4.726,3.674-7.309,3.008a.548.548,0,0,1-.386-.556v-.582c-.036-.655.939-1.655,2.42-3.1,1.631-1.59,2.671-2.581,5.111-1.174.7.4.976.7.98.961Z" transform="translate(-510.975 -233.197)" fill="#010400"/>
            <path id="Path_2646" data-name="Path 2646" d="M513.4,235.045c-1.971,1.92-3.047,3.055-2.034,3.64s3.035-.3,5.111-1.863c1.817-1.374,4.472-1.544,2.034-2.951S515.028,233.455,513.4,235.045Z" transform="translate(-510.975 -233.197)" fill="#484968"/>
          </g>
        </g>
        <path id="Path_2647" data-name="Path 2647" d="M514.692,236.747l.143-17.734,5.863,1.9-1,2.891a21.357,21.357,0,0,1-.742,7.772s-.836,1.706-.671,5.679C518.281,237.255,516.129,238.48,514.692,236.747Z" transform="translate(-510.289 -219.013)" fill="#e29d66"/>
      </g>
      <path id="Path_2648" data-name="Path 2648" d="M528.606,220.431v6.549s-7.674,2.591-14.887-6.549v-6.338Z" transform="translate(-504.64 -183.709)" fill="#9ce1f0"/>
      <path id="Path_2649" data-name="Path 2649" d="M524.987,225.761a.539.539,0,0,1-.246.082c-1.286.1-5.91-.907-10.536-6.121a2.428,2.428,0,0,1-.627-1.5V203.428a2.43,2.43,0,0,1,1.039-2.258l3.478-2.029a2.432,2.432,0,0,1,2.479.226l4.743,2.739a7.727,7.727,0,0,1,3.483,6.032V223.02a.756.756,0,0,1-.335.712Z" transform="translate(-504.666 -186.515)" fill="#54a3f8"/>
      <path id="Path_2650" data-name="Path 2650" d="M522.836,203.108a1.207,1.207,0,0,1-.717,1.016,3.832,3.832,0,0,1-3.469,0,1.2,1.2,0,0,1-.717-1.016v-3.223a1.2,1.2,0,0,1,.717-1.018,3.832,3.832,0,0,1,3.469,0,1.207,1.207,0,0,1,.717,1.016Z" transform="translate(-503.862 -186.597)" fill="#dda26f"/>
      <path id="Path_2651" data-name="Path 2651" d="M521.907,198.891c0,.806.566,1.131,1.264.729a2.794,2.794,0,0,0,1.263-2.187c0-.806-.566-1.133-1.263-.73A2.793,2.793,0,0,0,521.907,198.891Z" transform="translate(-503.128 -186.952)" fill="#f9bb83"/>
      <path id="Path_2652" data-name="Path 2652" d="M516.95,208.427s-6.531-5.937-2.548-16.5l3.061,10.965Z" transform="translate(-504.751 -187.802)" fill="#3f4893"/>
      <circle id="Ellipse_87" data-name="Ellipse 87" cx="6.754" cy="6.754" r="6.754" transform="translate(9.804 1.342)" fill="#f1bb85"/>
      <path id="Path_2653" data-name="Path 2653" d="M519.125,209.07s5.024-5.536,1.538-15.788l-6.253,2.154s-2.154-5.331,4.921-6.869c0,0,4.715-1.026,6.356,2.87,0,0,3.793.307,2.357,8.1C528.044,199.536,527.839,206.917,519.125,209.07Z" transform="translate(-504.569 -188.445)" fill="#3f4893"/>
      <g id="Group_761" data-name="Group 761" transform="translate(8.17 18.22)">
        <path id="Path_2654" data-name="Path 2654" d="M522.306,218.669h0a1.927,1.927,0,0,0,2.366-1.335l2.974-11.073a1.927,1.927,0,0,0-1.335-2.366h0a1.927,1.927,0,0,0-2.366,1.335L520.971,216.3A1.927,1.927,0,0,0,522.306,218.669Z" transform="translate(-511.484 -203.825)" fill="#f9bb83"/>
        <path id="Path_2655" data-name="Path 2655" d="M512.994,217.332h0a1.926,1.926,0,0,0,2.279,1.478L524.218,217a1.927,1.927,0,0,0,1.978-1.862h0a1.927,1.927,0,0,0-1.862-1.978l-9.862,1.9A1.926,1.926,0,0,0,512.994,217.332Z" transform="translate(-512.951 -202.102)" fill="#f9bb83"/>
      </g>
    </g>
    <g id="Group_770" data-name="Group 770" transform="translate(418.151 154.676)">
      <g id="Group_764" data-name="Group 764">
        <path id="Path_2656" data-name="Path 2656" d="M410.529,273.062V206.771a4.7,4.7,0,0,1,2.352-4.074l79.683-46.005a4.705,4.705,0,0,1,7.058,4.075v66.291a4.7,4.7,0,0,1-2.353,4.074l-79.684,46.005A4.7,4.7,0,0,1,410.529,273.062Z" transform="translate(-407.495 -154.421)" fill="#f67065"/>
        <path id="Path_2657" data-name="Path 2657" d="M415,275.95a3.141,3.141,0,0,1-3.135-3.135V206.525a3.134,3.134,0,0,1,1.563-2.707l79.685-46.005a3.073,3.073,0,0,1,1.555-.426,3.14,3.14,0,0,1,3.135,3.133v66.291a3.135,3.135,0,0,1-1.564,2.708l-79.684,46.005A3.073,3.073,0,0,1,415,275.95Z" transform="translate(-407.249 -154.175)" fill="#ffe3e0"/>
        <g id="Group_763" data-name="Group 763">
          <path id="Path_2658" data-name="Path 2658" d="M411,273.316V207.025a4.7,4.7,0,0,1,2.352-4.074l79.683-46.005a4.637,4.637,0,0,1,4.023-.317l0,0-1.886-1a4.676,4.676,0,0,0-5.172-.309l-79.683,46.005a4.7,4.7,0,0,0-2.353,4.075v66.291a4.646,4.646,0,0,0,1.938,3.8v0l.047.026a4.749,4.749,0,0,0,1.009.546l2.105,1.141A4.643,4.643,0,0,1,411,273.316Z" transform="translate(-407.968 -154.676)" fill="#ff8075"/>
          <path id="Path_2659" data-name="Path 2659" d="M413.013,258.506l.018.009,0,0Z" transform="translate(-407.036 -135.505)" fill="url(#linear-gradient-9)"/>
        </g>
      </g>
      <g id="Group_765" data-name="Group 765" transform="translate(7.738 76.08)">
        <path id="Path_2660" data-name="Path 2660" d="M416.853,273.684l57.41,33.145a4.7,4.7,0,0,0,4.705,0l79.683-46.005a4.7,4.7,0,0,0,0-8.149l-57.41-33.146a4.708,4.708,0,0,0-4.705,0l-79.683,46.005A4.706,4.706,0,0,0,416.853,273.684Z" transform="translate(-414.5 -218.898)" fill="#fff"/>
        <path id="Path_2661" data-name="Path 2661" d="M558.651,254.958l-79.683,46.005a4.7,4.7,0,0,1-4.705,0l-57.41-33.145a4.663,4.663,0,0,1-2.353-4.075v4.3a4.661,4.661,0,0,0,2.353,4.075l57.41,33.146a4.708,4.708,0,0,0,4.705,0l79.683-46.005a4.649,4.649,0,0,0,2.34-3.864h0v-.044c0-.11,0-.22,0-.332v-3.973A4.647,4.647,0,0,1,558.651,254.958Zm2.34-4.291,0,.051v-.051Z" transform="translate(-414.5 -213.033)" fill="url(#linear-gradient-10)"/>
        <path id="Path_2662" data-name="Path 2662" d="M527,246.334l-68.423,39.5c-2.669,1.541-7.332,1.348-10.414-.432l-20.6-11.891c-3.082-1.78-3.418-4.472-.749-6.013L495.243,228c2.67-1.541,7.333-1.348,10.415.431l20.6,11.893C529.338,242.1,529.674,244.793,527,246.334Z" transform="translate(-412.558 -217.41)" fill="#ff8075"/>
        <path id="Path_2663" data-name="Path 2663" d="M426.819,268.448l68.423-39.5c2.67-1.541,7.333-1.347,10.415.432l20.6,11.891a4.667,4.667,0,0,1,2.5,2.941c.274-1.317-.579-2.78-2.5-3.888l-20.6-11.893c-3.082-1.779-7.745-1.972-10.415-.431l-68.423,39.5a2.931,2.931,0,0,0-1.751,3.072A3.33,3.33,0,0,1,426.819,268.448Z" transform="translate(-412.557 -217.41)" fill="#f3675b"/>
        <path id="Path_2664" data-name="Path 2664" d="M480.276,244.943l-3.629-2.094-3.629,2.094,3.629,2.1Zm-7.133,4.119-3.629-2.1-3.629,2.1,3.629,2.094Zm14.265-8.237-3.629-2.094-3.629,2.094,3.629,2.094Zm20.722,2.193,7.556-4.363-3.629-2.094-7.556,4.362Zm1.426-7.9-3.629-2.1-3.629,2.1,3.629,2.094Zm-15.015,1.591-3.629-2.1-3.629,2.1,3.629,2.094ZM466.011,253.18l-3.629-2.1-3.629,2.1,3.629,2.094Zm37.25-11.541-62.531,36.1,3.629,2.094,62.531-36.1ZM458.878,257.3l-3.628-2.094-3.629,2.094,3.629,2.1ZM500.4,236.214,434.6,274.2l3.628,2.1,65.8-37.99Zm17.787,3.886-71.328,41.182,3.629,2.1,71.328-41.182Zm-73.575,25.435-3.629-2.1-3.629,2.1,3.629,2.094Zm7.134-4.119-3.629-2.094-3.63,2.094,3.63,2.1Z" transform="translate(-410.789 -216.291)" fill="#fb5f51"/>
        <path id="Path_2665" data-name="Path 2665" d="M480.276,244.41l-3.629-2.094-3.629,2.094,3.629,2.1Zm-7.133,4.119-3.629-2.1-3.629,2.1,3.629,2.094Zm14.265-8.237L483.78,238.2l-3.629,2.094,3.629,2.1Zm20.722,2.193,7.556-4.363-3.629-2.094-7.556,4.362Zm1.426-7.9-3.629-2.094-3.629,2.094,3.629,2.094Zm-15.015,1.591-3.629-2.1-3.629,2.1,3.629,2.094Zm-28.531,16.472-3.629-2.1-3.629,2.1,3.629,2.094Zm37.25-11.541-62.531,36.1,3.629,2.094,62.531-36.1Zm-44.382,15.659-3.628-2.094-3.629,2.094,3.629,2.1ZM500.4,235.68l-65.8,37.989,3.628,2.1,65.8-37.99Zm17.787,3.886-71.328,41.182,3.629,2.1,71.328-41.182ZM444.611,265l-3.629-2.1-3.629,2.1,3.629,2.094Zm7.134-4.119-3.629-2.094-3.63,2.094,3.63,2.1Z" transform="translate(-410.789 -216.389)" fill="#e4f2ff"/>
        <path id="Path_2666" data-name="Path 2666" d="M483.78,238.513l3.355,1.937.274-.158L483.78,238.2l-3.629,2.094.274.158Zm7.133-4.118,3.355,1.937.274-.158-3.629-2.1-3.629,2.1.274.158Zm-14.265,8.236L480,244.568l.274-.158-3.629-2.094-3.629,2.094.274.158Zm28.127-2.083,7.283-4.205,3.355,1.938.274-.159-3.629-2.094-7.556,4.362Zm-35.26,6.2,3.355,1.938.274-.158-3.629-2.1-3.629,2.1.274.158ZM505.928,232.8l3.355,1.937.274-.158-3.629-2.094-3.629,2.094.272.158Zm12.259,6.762-71.328,41.182.274.158,71.055-41.023,3.356,1.937.272-.158Zm-14.432-1.632.274-.159L500.4,235.68l-65.8,37.989.272.159L500.4,236Zm-62.772,25.288,3.356,1.937.272-.158-3.629-2.1-3.629,2.1.274.158Zm65.634-19.863.272-.158-3.629-2.1-62.531,36.1.274.158,62.257-35.944Zm-58.5,15.745,3.355,1.937.274-.159-3.629-2.094-3.63,2.094.274.159Zm14.265-8.237,3.355,1.937.274-.158-3.629-2.1-3.629,2.1.274.158Zm-7.133,4.118,3.355,1.937.274-.158-3.628-2.094-3.629,2.094.272.158Z" transform="translate(-410.789 -216.389)" fill="#fff"/>
        <path id="Path_2667" data-name="Path 2667" d="M511.441,263.9l-21.322,12.31a5.782,5.782,0,0,1-5.184-.214l-4.684-2.7c-1.528-.883-1.7-2.229-.372-2.994l21.322-12.31a5.785,5.785,0,0,1,5.184.214l4.684,2.7C512.6,261.788,512.765,263.135,511.441,263.9Z" transform="translate(-402.593 -211.776)" fill="#cbcbcb"/>
        <path id="Path_2668" data-name="Path 2668" d="M479.877,270.927l21.322-12.31a5.785,5.785,0,0,1,5.184.214l4.684,2.7a2.358,2.358,0,0,1,1.209,1.384c.19-.676-.219-1.443-1.209-2.015l-4.684-2.7a5.785,5.785,0,0,0-5.184-.214L479.877,270.3a1.433,1.433,0,0,0-.839,1.61A1.682,1.682,0,0,1,479.877,270.927Z" transform="translate(-402.591 -211.776)" fill="#cbcbcb"/>
      </g>
      <g id="Group_769" data-name="Group 769" transform="translate(15.899 21.596)">
        <g id="Group_768" data-name="Group 768">
          <path id="Path_2669" data-name="Path 2669" d="M484.751,177.716v-2.45c0-2.107-1.48-2.963-3.305-1.908L424.7,206.122a7.309,7.309,0,0,0-3.306,5.727V214.3Z" transform="translate(-421.389 -172.906)" fill="#fff"/>
          <g id="Group_766" data-name="Group 766" transform="translate(3.181 28.534)">
            <path id="Path_2670" data-name="Path 2670" d="M426.736,202.5a2.945,2.945,0,0,1-1.33,2.305c-.736.424-1.332.081-1.332-.769a2.943,2.943,0,0,1,1.332-2.305C426.14,201.309,426.736,201.654,426.736,202.5Z" transform="translate(-424.074 -196.151)" fill="#fff"/>
            <path id="Path_2671" data-name="Path 2671" d="M430.684,200.222a2.942,2.942,0,0,1-1.33,2.305c-.734.424-1.33.081-1.33-.768a2.941,2.941,0,0,1,1.33-2.305C430.088,199.03,430.684,199.374,430.684,200.222Z" transform="translate(-423.345 -196.572)" fill="#fff"/>
            <path id="Path_2672" data-name="Path 2672" d="M434.633,197.943a2.939,2.939,0,0,1-1.332,2.3c-.734.425-1.33.081-1.33-.768a2.943,2.943,0,0,1,1.33-2.305C434.037,196.75,434.633,197.094,434.633,197.943Z" transform="translate(-422.616 -196.993)" fill="#fff"/>
          </g>
          <path id="Path_2673" data-name="Path 2673" d="M431.424,214.381l-10.035,5.793v-9.125l10.035-5.793Z" transform="translate(-421.389 -166.933)" fill="#ff8075"/>
          <path id="Path_2674" data-name="Path 2674" d="M442.006,208.272l-10.035,5.794V204.94l10.035-5.794Z" transform="translate(-419.435 -168.061)" fill="#ff8075"/>
          <path id="Path_2675" data-name="Path 2675" d="M452.587,202.163l-10.035,5.793v-9.126l10.035-5.794Z" transform="translate(-417.481 -169.189)" fill="#9ce1f0"/>
          <path id="Path_2676" data-name="Path 2676" d="M453.937,201.589l24.805-14.321v-1.919l-24.805,14.321Z" transform="translate(-415.379 -170.608)" fill="url(#linear-gradient-11)"/>
          <path id="Path_2677" data-name="Path 2677" d="M453.937,198.548l24.805-14.321v-1.919l-24.805,14.321Z" transform="translate(-415.379 -171.17)" fill="url(#linear-gradient-11)"/>
          <path id="Path_2678" data-name="Path 2678" d="M453.937,195.506l24.805-14.321v-1.919l-24.805,14.321Z" transform="translate(-415.379 -171.732)" fill="url(#linear-gradient-13)"/>
          <path id="Path_2679" data-name="Path 2679" d="M482.574,207.229,423.566,241.3c-1.2.692-2.177-.05-2.177-1.647V228.694a5.238,5.238,0,0,1,2.177-4.16l59.008-34.067c1.2-.692,2.176.049,2.176,1.645v10.957A5.235,5.235,0,0,1,482.574,207.229Z" transform="translate(-421.389 -169.711)" fill="#fff"/>
          <g id="Group_767" data-name="Group 767" transform="translate(18.191 32.613)">
            <path id="Path_2680" data-name="Path 2680" d="M444.457,221.18l-7.712,4.453v-9.518l7.712-4.453Z" transform="translate(-436.745 -198.363)" fill="#ffbab4"/>
            <path id="Path_2681" data-name="Path 2681" d="M452.59,216.251l-7.713,4.453v-8.017l7.713-4.453Z" transform="translate(-435.243 -198.996)" fill="#9ce1f0"/>
            <path id="Path_2682" data-name="Path 2682" d="M460.722,212.128l-7.712,4.453V204.888l7.712-4.453Z" transform="translate(-433.741 -200.436)" fill="#ffbab4"/>
          </g>
          <path id="Path_2683" data-name="Path 2683" d="M471.25,203.07l2.072-1.2v-1.919l-2.072,1.2Z" transform="translate(-412.183 -167.912)" fill="url(#linear-gradient-14)"/>
          <path id="Path_2684" data-name="Path 2684" d="M471.25,200.028l2.072-1.2v-1.919l-2.072,1.2Z" transform="translate(-412.183 -168.473)" fill="url(#linear-gradient-15)"/>
          <path id="Path_2685" data-name="Path 2685" d="M471.25,196.986l2.072-1.2v-1.919l-2.072,1.2Z" transform="translate(-412.183 -169.035)" fill="url(#linear-gradient-16)"/>
          <path id="Path_2686" data-name="Path 2686" d="M461.358,209.559l10.719-6.188v-1.919l-10.719,6.188Z" transform="translate(-414.009 -167.635)" fill="url(#linear-gradient-17)"/>
          <path id="Path_2687" data-name="Path 2687" d="M461.358,206.518l10.719-6.188V198.41L461.358,204.6Z" transform="translate(-414.009 -168.197)" fill="url(#linear-gradient-18)"/>
          <path id="Path_2688" data-name="Path 2688" d="M461.358,203.476l10.719-6.188v-1.919l-10.719,6.188Z" transform="translate(-414.009 -168.758)" fill="url(#linear-gradient-19)"/>
          <path id="Path_2689" data-name="Path 2689" d="M425.4,221.541l-2.072,1.2v1.919l2.072-1.2Z" transform="translate(-421.031 -163.926)" fill="url(#linear-gradient-20)"/>
          <path id="Path_2690" data-name="Path 2690" d="M425.4,224.582l-2.072,1.2V227.7l2.072-1.2Z" transform="translate(-421.031 -163.364)" fill="url(#linear-gradient-21)"/>
          <path id="Path_2691" data-name="Path 2691" d="M425.4,227.624l-2.072,1.2v1.919l2.072-1.2Z" transform="translate(-421.031 -162.803)" fill="url(#linear-gradient-22)"/>
          <path id="Path_2692" data-name="Path 2692" d="M436.637,215.829l-10.719,6.188v1.919l10.719-6.188Z" transform="translate(-420.553 -164.981)" fill="url(#linear-gradient-23)"/>
          <path id="Path_2693" data-name="Path 2693" d="M436.637,218.871l-10.719,6.188v1.919l10.719-6.188Z" transform="translate(-420.553 -164.419)" fill="url(#linear-gradient-24)"/>
          <path id="Path_2694" data-name="Path 2694" d="M436.637,221.913,425.918,228.1v1.919l10.719-6.188Z" transform="translate(-420.553 -163.857)" fill="url(#linear-gradient-25)"/>
        </g>
        <path id="Path_2695" data-name="Path 2695" d="M480.04,214.318l-53.965,31.157c-1.12.646-2.035-.046-2.035-1.539h0a4.893,4.893,0,0,1,2.035-3.889l53.965-31.156c1.119-.647,2.035.045,2.035,1.538h0A4.892,4.892,0,0,1,480.04,214.318Z" transform="translate(-420.9 -166.306)" fill="#fff"/>
      </g>
    </g>
    <g id="Group_795" data-name="Group 795" transform="translate(563.988 277.863)">
      <g id="Group_786" data-name="Group 786" transform="translate(3.272 36.231)">
        <g id="Group_785" data-name="Group 785">
          <g id="Group_784" data-name="Group 784" transform="translate(0 11.517)">
            <g id="Group_783" data-name="Group 783">
              <path id="Path_2724" data-name="Path 2724" d="M534.183,299.921c-.235.1-.325.389-.346.789-.006.115,1.191-.686,1.147-.277-.013.118-.872,5.9.971,7.816a.548.548,0,0,0,.672.063l.5-.285c.586-.29.975-1.626,1.5-3.618.58-2.2.931-3.584-1.486-5.01-.691-.408-1.089-.5-1.312-.379Z" transform="translate(-533.837 -298.969)" fill="#010400"/>
              <path id="Path_2725" data-name="Path 2725" d="M538.383,304.409c-.7,2.651-1.157,4.14-2.161,3.549s-1.231-2.779-.887-5.347c.3-2.251-.854-4.637,1.563-3.212S538.964,302.214,538.383,304.409Z" transform="translate(-533.588 -298.969)" fill="#484968"/>
            </g>
          </g>
          <path id="Path_2726" data-name="Path 2726" d="M553.838,289.247l-4.962,1.816-2.015,2.288a21.284,21.284,0,0,0-6.38,4.453s-1.071,1.561-4.6,3.366c0,0-.007,2.469,2.2,2.866l14.142-8.14a3.571,3.571,0,0,0,1.767-2.712A15.947,15.947,0,0,0,553.838,289.247Z" transform="translate(-533.46 -289.247)" fill="#e29d66"/>
        </g>
      </g>
      <g id="Group_789" data-name="Group 789" transform="translate(12.268 40.969)">
        <g id="Group_788" data-name="Group 788" transform="translate(0.946 16.745)">
          <g id="Group_787" data-name="Group 787">
            <path id="Path_2727" data-name="Path 2727" d="M542.231,310.892c-.026.255.179.474.516.689.1.062-.012-1.374.322-1.135.1.07,4.709,3.661,7.283,3a.547.547,0,0,0,.385-.554v-.579c.036-.653-.936-1.649-2.412-3.087-1.625-1.584-2.662-2.573-5.092-1.169-.7.4-.974.7-.977.956Z" transform="translate(-542.229 -307.382)" fill="#2b0d60"/>
            <path id="Path_2728" data-name="Path 2728" d="M548.322,309.224c1.964,1.914,3.036,3.046,2.027,3.627s-3.024-.294-5.092-1.858c-1.811-1.368-4.458-1.536-2.027-2.939S546.7,307.64,548.322,309.224Z" transform="translate(-542.225 -307.382)" fill="#484968"/>
          </g>
        </g>
        <path id="Path_2729" data-name="Path 2729" d="M546.5,310.921l-.143-17.674-4.793,1.554-.047,3.22a21.282,21.282,0,0,0,.738,7.745s.834,1.7.668,5.661C542.921,311.428,545.068,312.647,546.5,310.921Z" transform="translate(-541.431 -293.247)" fill="#f1bb85"/>
      </g>
      <g id="Group_790" data-name="Group 790" transform="translate(20.118 13.466)">
        <path id="Path_2730" data-name="Path 2730" d="M558.347,290.447h0a1.919,1.919,0,0,1-2.534-.952l-7.585-16.759a1.92,1.92,0,0,1,.952-2.535h0a1.92,1.92,0,0,1,2.534.952l7.585,16.76A1.919,1.919,0,0,1,558.347,290.447Z" transform="translate(-548.057 -270.031)" fill="#e29d66"/>
      </g>
      <g id="Group_792" data-name="Group 792" transform="translate(19.268 15.542)">
        <path id="Path_2731" data-name="Path 2731" d="M559.218,288.219l-11.878-6.858v-9.578l11.878,6.858Z" transform="translate(-547.34 -271.782)" fill="url(#linear-gradient-26)"/>
        <g id="Group_791" data-name="Group 791" transform="translate(6.656 5.256)">
          <path id="Path_2732" data-name="Path 2732" d="M554.9,284.605v-7.267l.254.147v7.267Z" transform="translate(-552.601 -276.013)" fill="#a19afb"/>
          <path id="Path_2733" data-name="Path 2733" d="M554.413,282.173v-5.114l.254.147v5.114Z" transform="translate(-552.69 -276.064)" fill="#a19afb"/>
          <path id="Path_2734" data-name="Path 2734" d="M553.928,283.485v-6.706l.254.147v6.706Z" transform="translate(-552.78 -276.116)" fill="#a19afb"/>
          <path id="Path_2735" data-name="Path 2735" d="M553.444,283.766V276.5l.254.147v7.267Z" transform="translate(-552.869 -276.168)" fill="#a19afb"/>
          <path id="Path_2736" data-name="Path 2736" d="M552.959,278.882v-2.663l.254.147v2.662Z" transform="translate(-552.959 -276.219)" fill="#a19afb"/>
        </g>
      </g>
      <path id="Path_2737" data-name="Path 2737" d="M538.914,290.749v6.526s7.648,2.583,14.836-6.526v-6.316Z" transform="translate(-529.628 -253.905)" fill="#ffb200"/>
      <path id="Path_2738" data-name="Path 2738" d="M542.432,295.645a.529.529,0,0,0,.245.082c1.282.1,5.89-.905,10.5-6.1a2.414,2.414,0,0,0,.625-1.495V273.389a2.428,2.428,0,0,0-1.035-2.251l-3.467-2.022a2.424,2.424,0,0,0-2.47.226l-4.728,2.729a7.7,7.7,0,0,0-3.47,6.012v14.829a.75.75,0,0,0,.334.71Z" transform="translate(-529.68 -256.778)" fill="#fdffeb"/>
      <path id="Path_2739" data-name="Path 2739" d="M542.972,273.069a1.206,1.206,0,0,0,.716,1.014,3.822,3.822,0,0,0,3.457,0,1.2,1.2,0,0,0,.714-1.014v-3.213a1.2,1.2,0,0,0-.714-1.014,3.822,3.822,0,0,0-3.457,0,1.206,1.206,0,0,0-.716,1.014Z" transform="translate(-528.878 -256.86)" fill="#dda26f"/>
      <g id="Group_793" data-name="Group 793" transform="translate(0 17.164)">
        <path id="Path_2740" data-name="Path 2740" d="M532.125,293.292h0a1.921,1.921,0,0,1-.845-2.573l8.335-16.517a1.92,1.92,0,0,1,2.572-.845h0a1.92,1.92,0,0,1,.845,2.572L534.7,292.447A1.922,1.922,0,0,1,532.125,293.292Z" transform="translate(-531.075 -273.152)" fill="#f9bb83"/>
      </g>
      <g id="Group_794" data-name="Group 794" transform="translate(7.799)">
        <path id="Path_2741" data-name="Path 2741" d="M551.109,264.227l2.417,9.378a1.094,1.094,0,0,1-1.48,1.284l-5.562-2.314a1.094,1.094,0,0,1-.653-1.223l1.822-9.225a1.094,1.094,0,0,1,2.007-.36l1.322,2.161A1.09,1.09,0,0,1,551.109,264.227Z" transform="translate(-536.153 -258.186)" fill="#903bbb"/>
        <path id="Path_2742" data-name="Path 2742" d="M543.532,268.867c0,.8-.564,1.128-1.258.727a2.783,2.783,0,0,1-1.259-2.18c0-.8.564-1.129,1.259-.727A2.785,2.785,0,0,1,543.532,268.867Z" transform="translate(-537.039 -257.213)" fill="#f9bb83"/>
        <circle id="Ellipse_91" data-name="Ellipse 91" cx="6.73" cy="6.73" r="6.73" transform="translate(1.978 1.094)" fill="#f9bb83"/>
        <path id="Path_2743" data-name="Path 2743" d="M539.514,267.385s5.687,3.119,8.459-4.994a4.674,4.674,0,0,0,5.182,2.67,6.6,6.6,0,0,0-5.506-6.371S537.913,257.719,539.514,267.385Z" transform="translate(-537.349 -258.663)" fill="#903bbb"/>
        <path id="Path_2744" data-name="Path 2744" d="M542.957,266.716l2.417,9.379a1.094,1.094,0,0,1-1.48,1.283l-5.561-2.314a1.1,1.1,0,0,1-.654-1.223l1.822-9.225a1.094,1.094,0,0,1,2.007-.359l1.323,2.16A1.051,1.051,0,0,1,542.957,266.716Z" transform="translate(-537.659 -257.727)" fill="#903bbb"/>
      </g>
    </g>
    <g id="Group_802" data-name="Group 802" transform="translate(519.385 255.69)">
      <g id="Group_796" data-name="Group 796" transform="translate(3.968 57.155)">
        <path id="Path_2745" data-name="Path 2745" d="M496.776,290.985c-.045.785,1.138,1.886,2.941,2.927,2.4,1.385,3.248,3.139,6.212,1.427.848-.49,1.2-.88,1.224-1.219v-1.843c.084-.858-1.972-1.391-3.7-2.386-2.4-1.385-4.981-2.138-6.212-1.427a.809.809,0,0,0-.469.679Z" transform="translate(-496.774 -288.192)"/>
        <path id="Path_2746" data-name="Path 2746" d="M499.718,292.05c-2.4-1.385-3.7-2.875-2.472-3.586s3.813.043,6.212,1.427,5.436,1.875,2.472,3.586S502.117,293.435,499.718,292.05Z" transform="translate(-496.774 -288.192)" fill="#2b0d60"/>
      </g>
      <g id="Group_797" data-name="Group 797" transform="translate(10.634 52.563)">
        <path id="Path_2747" data-name="Path 2747" d="M502.4,287.109c-.046.784,1.138,1.886,2.941,2.927,2.4,1.385,3.248,3.138,6.212,1.428.848-.49,1.2-.88,1.224-1.219V288.4c.083-.858-1.972-1.391-3.7-2.386-2.4-1.385-4.981-2.138-6.212-1.428a.807.807,0,0,0-.469.679Z" transform="translate(-502.401 -284.316)"/>
        <path id="Path_2748" data-name="Path 2748" d="M505.345,288.174c-2.4-1.385-3.7-2.876-2.472-3.586s3.813.043,6.212,1.428,5.436,1.875,2.472,3.586S507.742,289.559,505.345,288.174Z" transform="translate(-502.401 -284.316)" fill="#2b0d60"/>
      </g>
      <g id="Group_798" data-name="Group 798" transform="translate(7.081)">
        <path id="Path_2749" data-name="Path 2749" d="M500.32,240.246h0a1.975,1.975,0,0,1,2.714.618l8.182,13.013a1.975,1.975,0,0,1-.618,2.714h0a1.975,1.975,0,0,1-2.714-.618L499.7,242.96A1.975,1.975,0,0,1,500.32,240.246Z" transform="translate(-499.402 -239.946)" fill="#fcbdb7"/>
        <path id="Path_2750" data-name="Path 2750" d="M504.7,252.757l2.639,4.2a3.054,3.054,0,0,0,4.2.956h0a3.053,3.053,0,0,0,.957-4.2l-2.641-4.2S506.549,248.272,504.7,252.757Z" transform="translate(-498.423 -238.208)" fill="#3abdfb"/>
      </g>
      <g id="Group_799" data-name="Group 799" transform="translate(8.441 36.873)">
        <path id="Path_2751" data-name="Path 2751" d="M506.372,294.6a1.285,1.285,0,0,0,.137-.6V273.437c0-1.3-1.341-2.365-2.981-2.365h0c-1.638,0-2.979,1.064-2.979,2.365V295.8a.749.749,0,0,0,.53.719A4.189,4.189,0,0,0,506.372,294.6Z" transform="translate(-500.55 -271.072)" fill="#55cdff"/>
      </g>
      <g id="Group_800" data-name="Group 800" transform="translate(14.661 32.118)">
        <path id="Path_2752" data-name="Path 2752" d="M512.086,290.518a1.271,1.271,0,0,0,.124-.6l-.45-20.561c-.028-1.3-1.392-2.335-3.031-2.3h0c-1.638.037-2.956,1.13-2.927,2.43l.49,22.358a.749.749,0,0,0,.545.707A4.188,4.188,0,0,0,512.086,290.518Z" transform="translate(-505.801 -267.058)" fill="#55cdff"/>
      </g>
      <path id="Path_2753" data-name="Path 2753" d="M501.988,280.479a.545.545,0,0,0,.252.083c1.317.1,6.055-.93,10.793-6.27a2.475,2.475,0,0,0,.642-1.536V257.6a2.492,2.492,0,0,0-1.064-2.314l-3.563-2.079a2.492,2.492,0,0,0-2.54.232l-4.859,2.806a7.914,7.914,0,0,0-3.568,6.18V277.67a.772.772,0,0,0,.344.73Z" transform="translate(-492.565 -237.544)" fill="#bedaff"/>
      <path id="Path_2754" data-name="Path 2754" d="M502.543,257.27a1.238,1.238,0,0,0,.734,1.042,3.923,3.923,0,0,0,3.554,0,1.238,1.238,0,0,0,.734-1.042v-3.3a1.239,1.239,0,0,0-.734-1.042,3.93,3.93,0,0,0-3.554,0,1.239,1.239,0,0,0-.734,1.042Z" transform="translate(-491.741 -237.628)" fill="#f1bb85"/>
      <path id="Path_2755" data-name="Path 2755" d="M512.659,250.371a6.918,6.918,0,1,1-6.918-6.918A6.917,6.917,0,0,1,512.659,250.371Z" transform="translate(-492.428 -239.298)" fill="#fcbdb7"/>
      <g id="Group_801" data-name="Group 801" transform="translate(0 20.293)">
        <path id="Path_2756" data-name="Path 2756" d="M494.757,277.909h0a1.974,1.974,0,0,1-1.227-2.5l5.2-14.068a1.974,1.974,0,0,1,2.5-1.227h0a1.974,1.974,0,0,1,1.227,2.5l-5.2,14.068A1.973,1.973,0,0,1,494.757,277.909Z" transform="translate(-493.424 -256.534)" fill="#fcbdb7"/>
        <path id="Path_2757" data-name="Path 2757" d="M502.147,265.8l1.6-4.695a3.053,3.053,0,0,0-1.9-3.863h0a3.053,3.053,0,0,0-3.864,1.9l-1.6,4.695S497.5,267.186,502.147,265.8Z" transform="translate(-492.878 -257.076)" fill="#3abdfb"/>
      </g>
      <path id="Path_2758" data-name="Path 2758" d="M509.644,256.988c-2.182,1.271-3.85.306-4.442-.615-1.493-2.315-1.74-.771-2.63-1.861-1.166-1.916-.905-4.526-2.522-5.732-2.32-1.733-1.685-5.18,4.368-6.724,8.133-2.073,11.337,8.174,6.261,14.1A3.208,3.208,0,0,1,509.644,256.988Z" transform="translate(-492.431 -239.607)" fill="#e5a600" fill-rule="evenodd"/>
      <path id="Path_2759" data-name="Path 2759" d="M502.859,253.275a.788.788,0,0,1-1.443-.386,2.862,2.862,0,0,1,.669-2.5.788.788,0,0,1,1.443.386A2.855,2.855,0,0,1,502.859,253.275Z" transform="translate(-491.962 -238.081)" fill="#fcbdb7"/>
    </g>
    <g id="Group_814" data-name="Group 814" transform="translate(470.994 322.533)">
      <g id="Group_812" data-name="Group 812">
        <g id="Group_810" data-name="Group 810">
          <g id="Group_803" data-name="Group 803" transform="translate(11.178 12.889)">
            <path id="Path_2760" data-name="Path 2760" d="M474.521,323.9h0a1.75,1.75,0,0,1-2.431-.418l-7.861-11.132a1.75,1.75,0,0,1,.418-2.431h0a1.75,1.75,0,0,1,2.432.418l7.861,11.131A1.75,1.75,0,0,1,474.521,323.9Z" transform="translate(-461.66 -306.816)" fill="#fcbdb7"/>
            <path id="Path_2761" data-name="Path 2761" d="M469.447,311.981l-2.536-3.592a2.707,2.707,0,0,0-3.76-.648h0a2.706,2.706,0,0,0-.648,3.761l2.536,3.591S468.028,316.039,469.447,311.981Z" transform="translate(-462.011 -307.251)" fill="#bdcefa"/>
          </g>
          <g id="Group_804" data-name="Group 804" transform="translate(9.143 26.783)">
            <path id="Path_2762" data-name="Path 2762" d="M460.909,324.075a1.153,1.153,0,0,0,.4.37l9.181,5.251a2.425,2.425,0,0,0,3.133-1.247h0a2.425,2.425,0,0,0-.5-3.335l-10.562-6.045a.663.663,0,0,0-.787.09A3.713,3.713,0,0,0,460.909,324.075Z" transform="translate(-460.293 -318.98)" fill="#5258a6"/>
          </g>
          <g id="Group_805" data-name="Group 805" transform="translate(3.064 29.897)">
            <path id="Path_2763" data-name="Path 2763" d="M455.777,326.7a1.124,1.124,0,0,0,.4.37l9.18,5.253a2.425,2.425,0,0,0,3.133-1.249h0a2.425,2.425,0,0,0-.5-3.335L457.422,321.7a.665.665,0,0,0-.787.09A3.713,3.713,0,0,0,455.777,326.7Z" transform="translate(-455.161 -321.608)" fill="#5258a6"/>
          </g>
          <g id="Group_807" data-name="Group 807" transform="translate(17.772 32.585)">
            <g id="Group_806" data-name="Group 806" transform="translate(0.265 14.415)">
              <path id="Path_2764" data-name="Path 2764" d="M467.8,339.841c-.076.762,1.747,1.234,3.277,2.117,2.126,1.228,4.416,1.9,5.507,1.266a.719.719,0,0,0,.416-.6v-1.249c.039-.706-1.012-1.783-2.607-3.338-1.758-1.713-2.88-2.783-5.507-1.265-.751.434-1.052.758-1.055,1.035Z" transform="translate(-467.801 -336.045)" fill="#010400"/>
              <path id="Path_2765" data-name="Path 2765" d="M474.391,338.037c2.124,2.07,3.283,3.293,2.192,3.922s-3.271-.319-5.507-2.008c-1.958-1.48-4.819-1.662-2.192-3.18S472.633,336.325,474.391,338.037Z" transform="translate(-467.796 -336.045)" fill="#1c1c38"/>
            </g>
            <path id="Path_2766" data-name="Path 2766" d="M472.738,338.783a1.148,1.148,0,0,0,.121-.528V325.973a2.424,2.424,0,0,0-2.642-2.1h0a2.423,2.423,0,0,0-2.641,2.1v13.875a.663.663,0,0,0,.469.637A3.713,3.713,0,0,0,472.738,338.783Z" transform="translate(-467.577 -323.877)" fill="#5258a6"/>
          </g>
          <path id="Path_2767" data-name="Path 2767" d="M456.992,330.618a.5.5,0,0,0,.223.073c1.168.09,5.368-.825,9.568-5.558a2.2,2.2,0,0,0,.57-1.362V310.335a2.211,2.211,0,0,0-.944-2.051l-3.158-1.842a2.2,2.2,0,0,0-2.251.206l-4.309,2.487a7.019,7.019,0,0,0-3.163,5.479v13.513a.685.685,0,0,0,.3.647Z" transform="translate(-452.399 -294.552)" fill="#fcfdff"/>
          <g id="Group_809" data-name="Group 809" transform="translate(11.475 35.368)">
            <g id="Group_808" data-name="Group 808" transform="translate(0.267 14.415)">
              <path id="Path_2768" data-name="Path 2768" d="M462.489,342.191c-.076.761,1.747,1.233,3.277,2.117,2.126,1.227,4.416,1.9,5.507,1.265a.718.718,0,0,0,.416-.6v-1.247c.039-.707-1.012-1.784-2.607-3.34-1.758-1.713-2.88-2.782-5.507-1.265-.751.434-1.052.758-1.056,1.035Z" transform="translate(-462.487 -338.395)" fill="#010400"/>
              <path id="Path_2769" data-name="Path 2769" d="M469.077,340.386c2.123,2.071,3.283,3.293,2.192,3.924s-3.271-.319-5.507-2.009c-1.958-1.48-4.819-1.662-2.192-3.18S467.319,338.673,469.077,340.386Z" transform="translate(-462.482 -338.395)" fill="#1c1c38"/>
            </g>
            <path id="Path_2770" data-name="Path 2770" d="M467.425,341.132a1.148,1.148,0,0,0,.121-.528V328.323a2.424,2.424,0,0,0-2.642-2.1h0a2.424,2.424,0,0,0-2.642,2.1V342.2a.663.663,0,0,0,.47.636A3.714,3.714,0,0,0,467.425,341.132Z" transform="translate(-462.262 -326.226)" fill="#5258a6"/>
          </g>
          <path id="Path_2771" data-name="Path 2771" d="M456.855,310.044a1.1,1.1,0,0,0,.652.924,3.481,3.481,0,0,0,3.15,0,1.1,1.1,0,0,0,.65-.924v-2.927a1.1,1.1,0,0,0-.65-.924,3.481,3.481,0,0,0-3.15,0,1.1,1.1,0,0,0-.652.924Z" transform="translate(-451.785 -294.627)" fill="#f1bb85"/>
          <path id="Path_2772" data-name="Path 2772" d="M465.823,303.929a6.133,6.133,0,1,1-6.133-6.134A6.133,6.133,0,0,1,465.823,303.929Z" transform="translate(-452.394 -296.108)" fill="#fcbdb7"/>
          <path id="Path_2773" data-name="Path 2773" d="M456.579,309a4.89,4.89,0,0,0,1.264-2.044.533.533,0,0,0,.02-.149V303.87a3.143,3.143,0,0,1,.449-1.662,1.35,1.35,0,0,1,1.2-.762s4.922,2.145,6.763-1.862a.537.537,0,0,0-.351-.751c-.352-.084-.817-.387-1.332-1.224a.54.54,0,0,0-.582-.252,2.165,2.165,0,0,1-2.208-.814.523.523,0,0,0-.405-.172c-.937.018-4.176.174-5.939,1.449l-.038.028c-.378.31-6.468,5.5.434,11.179A.542.542,0,0,0,456.579,309Z" transform="translate(-452.575 -296.371)" fill="#037fff"/>
          <path id="Path_2774" data-name="Path 2774" d="M457.363,306.215c0,.731-.514,1.028-1.148.662a2.539,2.539,0,0,1-1.147-1.987c0-.731.514-1.028,1.147-.662A2.537,2.537,0,0,1,457.363,306.215Z" transform="translate(-452.115 -294.949)" fill="#fcbdb7"/>
        </g>
        <g id="Group_811" data-name="Group 811" transform="translate(3.335 21.271)">
          <path id="Path_2775" data-name="Path 2775" d="M474.708,324.31l-10.932,6.29-8.385-4.572,11.189-6.4Z" transform="translate(-455.39 -313.348)" fill="#babeb5"/>
          <path id="Path_2776" data-name="Path 2776" d="M473.4,325.288l1.719-10.961-12.136,7-.516,10.254Z" transform="translate(-454.083 -314.327)" fill="#eaeef1"/>
        </g>
      </g>
      <g id="Group_813" data-name="Group 813" transform="translate(0.046 17.103)">
        <path id="Path_2777" data-name="Path 2777" d="M465.283,327.382h0a1.749,1.749,0,0,1-2.433-.409l-7.907-11.1a1.751,1.751,0,0,1,.409-2.433h0a1.749,1.749,0,0,1,2.433.409l7.907,11.1A1.749,1.749,0,0,1,465.283,327.382Z" transform="translate(-452.243 -310.382)" fill="#fcbdb7"/>
        <path id="Path_2778" data-name="Path 2778" d="M459.849,315.957l-2.2-3.805a2.708,2.708,0,0,0-3.688-.983h0a2.708,2.708,0,0,0-.983,3.688l2.2,3.805S458.069,319.872,459.849,315.957Z" transform="translate(-452.614 -310.809)" fill="#bdcefa"/>
      </g>
    </g>
  </g>
</svg>
