<svg xmlns="http://www.w3.org/2000/svg" xmlns:xlink="http://www.w3.org/1999/xlink" width="185.822" height="277.766" viewBox="0 0 185.822 277.766">
  <defs>
    <linearGradient id="linear-gradient" x1="-0.069" y1="0.5" x2="1.125" y2="0.894" gradientUnits="objectBoundingBox">
      <stop offset="0" stop-color="#ff8075"/>
      <stop offset="1" stop-color="#ea9c35"/>
      <stop offset="1" stop-color="#0382ff"/>
    </linearGradient>
    <linearGradient id="linear-gradient-2" x1="1.295" y1="-0.689" x2="-0.878" y2="2.561" gradientUnits="objectBoundingBox">
      <stop offset="0" stop-color="#fff"/>
      <stop offset="0.121" stop-color="#f4f7fe" stop-opacity="0.843"/>
      <stop offset="0.366" stop-color="#e1e8fc" stop-opacity="0.549"/>
      <stop offset="0.585" stop-color="#d1ddfb" stop-opacity="0.314"/>
      <stop offset="0.77" stop-color="#c6d4fa" stop-opacity="0.141"/>
      <stop offset="0.914" stop-color="#bfcffa" stop-opacity="0.039"/>
      <stop offset="0.999" stop-color="#bdcefa" stop-opacity="0"/>
    </linearGradient>
    <linearGradient id="linear-gradient-3" x1="0.966" y1="-0.213" x2="-0.759" y2="2.427" xlink:href="#linear-gradient-2"/>
    <linearGradient id="linear-gradient-4" x1="0.883" y1="-0.087" x2="-0.842" y2="2.554" xlink:href="#linear-gradient-2"/>
    <linearGradient id="linear-gradient-5" x1="1.008" y1="-0.07" x2="-0.017" y2="1.08" gradientUnits="objectBoundingBox">
      <stop offset="0" stop-color="#e4f2ff"/>
      <stop offset="0.056" stop-color="#e1effe"/>
      <stop offset="0.648" stop-color="#c6d7fb"/>
      <stop offset="0.999" stop-color="#bdcefa"/>
    </linearGradient>
    <linearGradient id="linear-gradient-6" x1="0.787" y1="0.147" x2="-0.252" y2="1.964" gradientUnits="objectBoundingBox">
      <stop offset="0" stop-color="#fff"/>
      <stop offset="0.121" stop-color="#f6f6f6" stop-opacity="0.843"/>
      <stop offset="0.431" stop-color="#e1e8fc" stop-opacity="0.549"/>
      <stop offset="0.585" stop-color="#d1ddfb" stop-opacity="0.314"/>
      <stop offset="0.594" stop-color="#e8eeff" stop-opacity="0.988"/>
      <stop offset="0.914" stop-color="#bfcffa" stop-opacity="0.039"/>
      <stop offset="0.999" stop-color="#bdcefa" stop-opacity="0"/>
      <stop offset="1" stop-color="#bdcefa" stop-opacity="0"/>
    </linearGradient>
    <linearGradient id="linear-gradient-7" x1="0.5" x2="0.5" y2="1" gradientUnits="objectBoundingBox">
      <stop offset="0" stop-color="#e7f2fe"/>
      <stop offset="0.037" stop-color="#96c5fe"/>
      <stop offset="0.641" stop-color="#cad6f9"/>
      <stop offset="0.999" stop-color="#c1cdf8"/>
      <stop offset="1" stop-color="#c1cdf8"/>
    </linearGradient>
    <linearGradient id="linear-gradient-8" x1="0.5" y1="1.206" x2="0.5" y2="-0.087" gradientUnits="objectBoundingBox">
      <stop offset="0.072" stop-color="#55d1ff"/>
      <stop offset="0.164" stop-color="#4fc3ee" stop-opacity="0.933"/>
      <stop offset="0.347" stop-color="#409fc2" stop-opacity="0.761"/>
      <stop offset="0.602" stop-color="#29667a" stop-opacity="0.482"/>
      <stop offset="0.919" stop-color="#09181a" stop-opacity="0.102"/>
      <stop offset="1" stop-color="#010400" stop-opacity="0"/>
    </linearGradient>
    <linearGradient id="linear-gradient-9" x1="0.5" x2="0.5" y2="1" gradientUnits="objectBoundingBox">
      <stop offset="0" stop-color="#e7f2fe"/>
      <stop offset="0.037" stop-color="#e5f0fd"/>
      <stop offset="0.641" stop-color="#cad6f9"/>
      <stop offset="0.999" stop-color="#c1cdf8"/>
    </linearGradient>
    <linearGradient id="linear-gradient-15" x1="1.214" y1="-0.159" x2="-0.067" y2="0.984" gradientUnits="objectBoundingBox">
      <stop offset="0" stop-color="#fff"/>
      <stop offset="0.582" stop-color="#dae3fc"/>
      <stop offset="0.999" stop-color="#bdcefa"/>
    </linearGradient>
    <linearGradient id="linear-gradient-16" x1="5.448" y1="-0.166" x2="-4.321" y2="1.149" xlink:href="#linear-gradient-2"/>
    <linearGradient id="linear-gradient-17" x1="4.261" y1="-0.213" x2="-5.508" y2="1.639" xlink:href="#linear-gradient-2"/>
    <linearGradient id="linear-gradient-18" x1="4.835" y1="-0.131" x2="-4.932" y2="1.291" xlink:href="#linear-gradient-2"/>
    <linearGradient id="linear-gradient-19" x1="4.924" y1="-0.096" x2="-4.842" y2="1.219" xlink:href="#linear-gradient-2"/>
    <linearGradient id="linear-gradient-20" x1="2.584" y1="-0.24" x2="-7.182" y2="3.229" xlink:href="#linear-gradient-2"/>
    <linearGradient id="linear-gradient-21" x1="-0.358" y1="1.237" x2="1.479" y2="0.254" gradientUnits="objectBoundingBox">
      <stop offset="0" stop-color="#ea4335"/>
      <stop offset="1" stop-color="#ea9c35"/>
    </linearGradient>
  </defs>
  <g id="Group_953" data-name="Group 953" transform="translate(-62.402 -50.568)">
    <g id="Group_622" data-name="Group 622" transform="translate(62.402 50.568)">
      <g id="Group_606" data-name="Group 606" transform="translate(0 0)">
        <g id="Group_605" data-name="Group 605">
          <path id="Path_2365" data-name="Path 2365" d="M124.677,301.43V116.772c0-5.1,3.1-11.035,6.932-13.245l79.128-45.684c3.828-2.21,6.932.136,6.932,5.24V247.741c0,5.105-3.1,11.036-6.932,13.246l-79.127,45.684C127.78,308.881,124.677,306.535,124.677,301.43Z" transform="translate(-119.904 -54.245)" fill="#f67065"/>
          <g id="Group_602" data-name="Group 602">
            <path id="Path_2366" data-name="Path 2366" d="M236.04,57.594l0-.007-.142-.081C235.949,57.53,235.993,57.565,236.04,57.594Z" transform="translate(-140.65 -54.337)" fill="#a9bdea"/>
            <path id="Path_2367" data-name="Path 2367" d="M125.475,306.038c-1.17-.979-1.892-2.787-1.892-5.241V116.137c0-5.1,3.1-11.035,6.932-13.245l79.128-45.684a4.5,4.5,0,0,1,4.405-.437l-4.223-2.406c-1.259-.99-3.012-1.046-4.955.076l-79.128,45.684c-3.828,2.21-6.932,8.14-6.932,13.245V298.029c0,3.06,1.119,5.118,2.837,5.808v.011Z" transform="translate(-118.81 -53.611)" fill="#ff8075"/>
            <path id="Path_2368" data-name="Path 2368" d="M128.379,364.7l.012.007v0Z" transform="translate(-120.595 -111.636)" fill="#a9bdea"/>
          </g>
          <path id="Path_2369" data-name="Path 2369" d="M127.548,307.269v0l-.012-.006Zm82.37-249.7-79.128,45.684c-3.828,2.211-6.932,8.14-6.932,13.245V301.159a7.162,7.162,0,0,0,1.5,4.856l1.062.608c-1.17-.979-1.892-2.787-1.892-5.241V116.722c0-5.1,3.1-11.035,6.932-13.245l79.128-45.684a4.973,4.973,0,0,1,3.549-.741A4.581,4.581,0,0,0,209.919,57.571ZM215,57.363c.048.025.092.06.139.089l0-.007Z" transform="translate(-119.752 -54.195)" fill="none"/>
          <path id="Path_2370" data-name="Path 2370" d="M210.913,62.553l-13.653,7.883-2.049,5.139a12.03,12.03,0,0,1-4.739,5.838L153.26,102.9c-1.943,1.122-3.742.982-4.739-.367l-2.049-2.773-13.653,7.883a9.778,9.778,0,0,0-4.425,7.664V301.246c0,2.822,1.981,3.966,4.425,2.555l78.093-45.088a9.78,9.78,0,0,0,4.425-7.664V65.109C215.338,62.287,213.356,61.143,210.913,62.553Z" transform="translate(-120.598 -55.166)" fill="#ffd6d2"/>
          <path id="Path_2371" data-name="Path 2371" d="M190.972,85.318,166.789,99.28c-.433.25-.787-.018-.787-.6h0a1.892,1.892,0,0,1,.787-1.5l24.182-13.962c.433-.25.787.018.787.6h0A1.9,1.9,0,0,1,190.972,85.318Z" transform="translate(-127.612 -59.116)" fill="#fbbc05"/>
          <path id="Path_2372" data-name="Path 2372" d="M122.032,185.729l-.119-.068a1.92,1.92,0,0,1-.8-1.525V167.2c0-.586.36-.857.8-.6l.119.069a1.917,1.917,0,0,1,.8,1.524v16.937C122.83,185.711,122.471,185.983,122.032,185.729Z" transform="translate(-119.24 -74.667)" fill="#fbbc05"/>
          <path id="Path_2373" data-name="Path 2373" d="M120.941,185.729l-.119-.068a1.919,1.919,0,0,1-.8-1.525V167.2c0-.586.359-.857.8-.6l.119.069a1.917,1.917,0,0,1,.8,1.524v16.937C121.74,185.711,121.38,185.983,120.941,185.729Z" transform="translate(-119.036 -74.667)" fill="#ea9c35"/>
          <g id="Group_603" data-name="Group 603" transform="translate(77.357 5.903)">
            <path id="Path_2374" data-name="Path 2374" d="M217.237,61.2a.842.842,0,0,1,0,1.594,3.052,3.052,0,0,1-2.761,0,.841.841,0,0,1,0-1.594A3.052,3.052,0,0,1,217.237,61.2Z" transform="translate(-213.904 -60.867)" fill="#fbbc05"/>
            <path id="Path_2375" data-name="Path 2375" d="M217.268,61.2a3.052,3.052,0,0,0-2.761,0,1.294,1.294,0,0,0-.436.386,1.635,1.635,0,0,1,.168-.119,3.052,3.052,0,0,1,2.761,0c.565.327.709.8.436,1.208C218.017,62.231,217.966,61.6,217.268,61.2Z" transform="translate(-213.935 -60.867)" fill="#7b97c9"/>
          </g>
          <g id="Group_604" data-name="Group 604" transform="translate(7.773 6.783)" opacity="0.32">
            <path id="Path_2376" data-name="Path 2376" d="M215.309,159.734V97.778l-86.944,86.943v61.956Z" transform="translate(-128.366 -68.632)" fill="#fff"/>
            <path id="Path_2377" data-name="Path 2377" d="M128.366,159.833,215.309,72.89V65.109c0-2.822-1.981-3.966-4.425-2.555L203.9,66.588l-8.536,8.536-.181.452a12.028,12.028,0,0,1-4.738,5.838L187.2,83.288l-58.83,58.831Z" transform="translate(-128.366 -61.949)" fill="#fff"/>
            <path id="Path_2378" data-name="Path 2378" d="M215.309,226.628v-35.59l-86.944,86.943v35.59Z" transform="translate(-128.366 -86.027)" fill="#fff"/>
            <path id="Path_2379" data-name="Path 2379" d="M219.129,272.314v-8.141l-70.284,70.284,19.263-11.121Z" transform="translate(-132.185 -99.668)" fill="#fff"/>
          </g>
          <path id="Path_2381" data-name="Path 2381" d="M190.756,81.414,153.545,102.9c-1.943,1.122-3.742.982-4.739-.367l-2.049-2.773L133.1,107.641a9.092,9.092,0,0,0-3.185,3.405,8.212,8.212,0,0,1,2.3-2.074l13.653-7.883,2.049,2.773c1,1.349,2.8,1.488,4.739.367l37.212-21.484a11.308,11.308,0,0,0,3.895-4.112A10.447,10.447,0,0,1,190.756,81.414ZM211.2,62.553l-13.653,7.883L197.12,71.5l13.191-7.616c2.444-1.411,4.425-.267,4.425,2.554V252.38a8.979,8.979,0,0,1-1.241,4.258,9.626,9.626,0,0,0,2.128-5.589V65.109C215.622,62.287,213.641,61.143,211.2,62.553Z" transform="translate(-120.882 -55.166)" fill="none"/>
        </g>
      </g>
      <g id="Group_621" data-name="Group 621" transform="translate(12.707 29.231)">
        <g id="Group_607" data-name="Group 607" transform="translate(0.068 75.405)">
          <path id="Path_2382" data-name="Path 2382" d="M161.515,190.682l-23.972,13.84c-1.673.966-3.029-.059-3.029-2.291h0a7.254,7.254,0,0,1,3.029-5.788l23.972-13.84c1.673-.966,3.029.059,3.029,2.291h0A7.256,7.256,0,0,1,161.515,190.682Z" transform="translate(-134.514 -182.239)" fill="#c3e0fe"/>
          <path id="Path_2383" data-name="Path 2383" d="M170.09,198.418l-32.546,18.791c-1.673.966-3.029-.059-3.029-2.29h0a7.254,7.254,0,0,1,3.029-5.789l32.546-18.791c1.673-.966,3.029.059,3.029,2.291h0A7.256,7.256,0,0,1,170.09,198.418Z" transform="translate(-134.514 -183.682)" fill="#c3e0fe"/>
          <path id="Path_2384" data-name="Path 2384" d="M155.791,222.389l-18.247,10.535c-1.673.966-3.029-.059-3.029-2.29h0a7.256,7.256,0,0,1,3.029-5.789l18.247-10.535c1.673-.966,3.029.059,3.029,2.291h0A7.256,7.256,0,0,1,155.791,222.389Z" transform="translate(-134.514 -188.153)" fill="#c3e0fe"/>
        </g>
        <path id="Path_2385" data-name="Path 2385" d="M208.024,281.507l-68.732,39.682c-2.674,1.544-4.862-.11-4.862-3.676V279.965c0-3.566,2.188-7.746,4.862-9.29l68.732-39.682c2.675-1.544,4.862.11,4.862,3.676v37.549C212.886,275.783,210.7,279.964,208.024,281.507Z" transform="translate(-134.43 -115.82)" fill="url(#linear-gradient)"/>
        <g id="Group_609" data-name="Group 609" transform="translate(0)">
          <path id="Path_2386" data-name="Path 2386" d="M212.982,96.264V92.842c0-2.946-2.068-4.139-4.619-2.667l-69.314,40.018a10.21,10.21,0,0,0-4.619,8v3.421Z" transform="translate(-134.43 -89.545)" fill="#ff8075"/>
          <g id="Group_608" data-name="Group 608" transform="translate(4.443 34.109)">
            <path id="Path_2387" data-name="Path 2387" d="M143.61,142.077a4.108,4.108,0,0,1-1.86,3.221c-1.027.593-1.859.112-1.859-1.074a4.11,4.11,0,0,1,1.859-3.22C142.778,140.411,143.61,140.891,143.61,142.077Z" transform="translate(-139.892 -133.205)" fill="#fbbc05"/>
            <path id="Path_2388" data-name="Path 2388" d="M151.643,137.44a4.11,4.11,0,0,1-1.859,3.22c-1.027.593-1.859.112-1.859-1.073a4.11,4.11,0,0,1,1.859-3.221C150.81,135.774,151.643,136.254,151.643,137.44Z" transform="translate(-141.39 -132.34)" fill="#fbbc05"/>
            <path id="Path_2389" data-name="Path 2389" d="M159.675,132.8a4.11,4.11,0,0,1-1.859,3.221c-1.027.592-1.86.112-1.86-1.074a4.107,4.107,0,0,1,1.86-3.22C158.843,131.136,159.675,131.617,159.675,132.8Z" transform="translate(-142.888 -131.475)" fill="#fbbc05"/>
          </g>
        </g>
        <g id="Group_612" data-name="Group 612" transform="translate(0 50.192)">
          <path id="Path_2390" data-name="Path 2390" d="M146.591,170.539l6.461,8.16c-5.181,6.745-12.048,9.394-15.9,6.135-1.621-1.372-2.567-3.668-2.7-6.558Z" transform="translate(-134.434 -154.844)" fill="#fff"/>
          <path id="Path_2391" data-name="Path 2391" d="M146.587,167.041l-12.141,7.737c-.2-4.36,1.467-9.65,4.481-14.216,2.906-4.4,6.744-7.643,10.391-8.777Z" transform="translate(-134.43 -151.346)" fill="#00e9ff"/>
          <g id="Group_611" data-name="Group 611" transform="translate(12.157)">
            <path id="Path_2392" data-name="Path 2392" d="M157.337,171.571l2.731-15.256c2.641-.822,5-.483,6.71.961,4.2,3.553,3.4,12.931-1.781,20.774-.382.578-.782,1.14-1.2,1.681Z" transform="translate(-150.86 -152.109)" fill="#16b4ff"/>
            <g id="Group_610" data-name="Group 610">
              <path id="Path_2393" data-name="Path 2393" d="M158.583,155.552l-6.477-3.767-2.731,15.256,6.477,3.767Z" transform="translate(-149.375 -151.346)" fill="#3abdfb"/>
              <path id="Path_2394" data-name="Path 2394" d="M168.079,156.974h0Z" transform="translate(-152.864 -152.314)" fill="#335185"/>
              <path id="Path_2395" data-name="Path 2395" d="M165.216,155.906l-6.434-3.742a7.144,7.144,0,0,0-6.051-.479l6.477,3.767A7.163,7.163,0,0,1,165.216,155.906Z" transform="translate(-150.001 -151.246)" fill="#3abdfb"/>
              <path id="Path_2396" data-name="Path 2396" d="M155.847,178.684l6.466,3.783-6.461-8.16-6.477-3.767,6.461,8.16Z" transform="translate(-149.375 -154.844)" fill="#3abdfb"/>
            </g>
          </g>
        </g>
        <g id="Group_614" data-name="Group 614" transform="translate(0.601 83.303)">
          <path id="Path_2397" data-name="Path 2397" d="M213.119,220.907l-77.951,45.005V264.17l77.951-45.005Z" transform="translate(-135.168 -197.025)" fill="#c3e0fe"/>
          <path id="Path_2398" data-name="Path 2398" d="M213.119,193.69,135.168,238.7v-1.742l77.951-45.005Z" transform="translate(-135.168 -191.949)" fill="#c3e0fe"/>
          <g id="Group_613" data-name="Group 613" transform="translate(3.509 9.927)">
            <path id="Path_2399" data-name="Path 2399" d="M187.617,234.2l-14.1,8.139c-1.14.658-2.064-.041-2.064-1.56v-5.833A4.943,4.943,0,0,1,173.52,231l14.1-8.139c1.14-.658,2.064.041,2.064,1.56v5.833A4.944,4.944,0,0,1,187.617,234.2Z" transform="translate(-145.446 -207.595)" fill="#bedaff"/>
            <path id="Path_2400" data-name="Path 2400" d="M219.591,215.736l-14.1,8.139c-1.14.658-2.064-.04-2.064-1.56v-5.833a4.944,4.944,0,0,1,2.064-3.944l14.1-8.139c1.14-.658,2.064.041,2.064,1.56v5.833A4.94,4.94,0,0,1,219.591,215.736Z" transform="translate(-151.41 -204.152)" fill="#bedaff"/>
            <path id="Path_2401" data-name="Path 2401" d="M147,265.769a1.262,1.262,0,0,0,1.476-.02l14.1-8.139a4.941,4.941,0,0,0,2.064-3.943v-5.833a1.9,1.9,0,0,0-.634-1.612l-6.889-4.921a1.264,1.264,0,0,0-1.476.019l-14.1,8.139a4.943,4.943,0,0,0-2.064,3.944v5.833a1.9,1.9,0,0,0,.633,1.612Z" transform="translate(-139.482 -211.039)" fill="#9cc0e8"/>
            <path id="Path_2402" data-name="Path 2402" d="M164.167,258.747l-14.1,8.139c-1.14.657-2.064-.041-2.064-1.561v-5.833a4.943,4.943,0,0,1,2.064-3.943l14.1-8.139c1.14-.658,2.064.04,2.064,1.56V254.8A4.944,4.944,0,0,1,164.167,258.747Z" transform="translate(-141.072 -212.174)" fill="#bedaff"/>
          </g>
        </g>
        <g id="Group_618" data-name="Group 618" transform="translate(33.128 20.088)">
          <g id="Group_616" data-name="Group 616">
            <path id="Path_2403" data-name="Path 2403" d="M217.771,132.073l-39.915,23.045c-1.492.861-2.7-.053-2.7-2.043v-10.3a6.473,6.473,0,0,1,2.7-5.163l39.915-23.045c1.493-.861,2.7.053,2.7,2.043V126.91A6.469,6.469,0,0,1,217.771,132.073Z" transform="translate(-175.154 -114.238)" fill="#c3e0fe"/>
            <g id="Group_615" data-name="Group 615" transform="translate(1.995 16.596)">
              <path id="Path_2404" data-name="Path 2404" d="M193.365,147.912l-15.108,8.722c-.36.207-.651-.013-.651-.492V156.1a1.559,1.559,0,0,1,.651-1.244l15.108-8.722c.36-.207.651.013.651.492v.038A1.559,1.559,0,0,1,193.365,147.912Z" transform="translate(-177.606 -136.77)" fill="url(#linear-gradient-2)"/>
              <path id="Path_2405" data-name="Path 2405" d="M197.62,140.692l-19.363,11.179c-.36.208-.651-.012-.651-.491v-.039a1.557,1.557,0,0,1,.651-1.243l19.363-11.18c.36-.207.652.012.652.492v.038A1.561,1.561,0,0,1,197.62,140.692Z" transform="translate(-177.606 -135.423)" fill="url(#linear-gradient-3)"/>
              <path id="Path_2406" data-name="Path 2406" d="M197.62,136.492l-19.363,11.18c-.36.207-.651-.013-.651-.492v-.038a1.559,1.559,0,0,1,.651-1.244l19.363-11.18c.36-.207.652.013.652.492v.038A1.559,1.559,0,0,1,197.62,136.492Z" transform="translate(-177.606 -134.64)" fill="url(#linear-gradient-4)"/>
            </g>
          </g>
          <g id="Group_617" data-name="Group 617" transform="translate(31.443 5.209)">
            <path id="Path_2407" data-name="Path 2407" d="M235.712,136.931l-9.879,5.7V133.4l9.879-5.7Z" transform="translate(-216.05 -121.958)" fill="url(#linear-gradient-5)"/>
            <path id="Path_2408" data-name="Path 2408" d="M233.469,126.379l-.065.037-9.719-5.7v-.075l-9.879,5.7v9.236l9.784,5.737v-9.236Z" transform="translate(-213.806 -120.642)" fill="#bdcefa"/>
          </g>
        </g>
        <g id="Group_620" data-name="Group 620" transform="translate(52.007 47.452)">
          <path id="Path_2409" data-name="Path 2409" d="M231.692,184.6l-20.033,11.567c-1.8,1.038-3.256-.064-3.256-2.462v-21.97a7.8,7.8,0,0,1,3.256-6.22l20.033-11.567c1.8-1.038,3.256.064,3.256,2.462v21.97A7.8,7.8,0,0,1,231.692,184.6Z" transform="translate(-200.234 -148.936)" fill="#2db6f6"/>
          <g id="Group_619" data-name="Group 619">
            <path id="Path_2410" data-name="Path 2410" d="M206.53,192.643v-21.97a7.8,7.8,0,0,1,3.256-6.22l20.034-11.567a2.12,2.12,0,0,1,2.053-.211h0l-8.114-4.59a2.089,2.089,0,0,0-2.108.181l-20.034,11.567a7.8,7.8,0,0,0-3.256,6.22v21.97a2.816,2.816,0,0,0,1.2,2.673l8.114,4.59h0A2.862,2.862,0,0,1,206.53,192.643Z" transform="translate(-198.361 -147.877)" fill="#3abdfb"/>
          </g>
          <path id="Path_2411" data-name="Path 2411" d="M224.412,176.775a10.727,10.727,0,0,0,3-6.884c0-3.07-2.155-4.315-4.814-2.78a10.642,10.642,0,0,0-4.814,8.339c0,2.33,1.243,3.6,3,3.414-4.1,3.312-7.225,9.2-7.418,14.273l18.457-10.657C231.637,177.63,228.518,175.346,224.412,176.775Z" transform="translate(-201.161 -151.342)" fill="url(#linear-gradient-6)"/>
        </g>
      </g>
    </g>
    <g id="Group_636" data-name="Group 636" transform="translate(132.016 170.301)">
      <g id="Group_624" data-name="Group 624">
        <path id="Path_2412" data-name="Path 2412" d="M253.861,218.795l-28.2,15.733a5.461,5.461,0,0,1-4.894-.2l-16.432-9.487c-1.442-.833-1.6-2.1-.351-2.825l28.2-15.733a5.458,5.458,0,0,1,4.894.2l16.432,9.487C254.952,216.8,255.111,218.073,253.861,218.795Z" transform="translate(-203.137 -205.793)" fill="#fff"/>
        <g id="Group_623" data-name="Group 623" transform="translate(0.001 12.002)">
          <path id="Path_2413" data-name="Path 2413" d="M259.323,297.389V220.547h0a1.559,1.559,0,0,1-.819,1l-28.2,15.733a4.444,4.444,0,0,1-2.273.48v77.284a4.436,4.436,0,0,0,2.273-.48l28.2-15.733A1.377,1.377,0,0,0,259.323,297.389Z" transform="translate(-207.78 -220.547)" fill="url(#linear-gradient-7)"/>
          <path id="Path_2414" data-name="Path 2414" d="M220.764,238.374l-16.432-9.487a2.185,2.185,0,0,1-1.171-1.384v76.842c-.127.62.273,1.307,1.171,1.826l16.432,9.487a5.634,5.634,0,0,0,2.621.682V239.057A5.644,5.644,0,0,1,220.764,238.374Z" transform="translate(-203.138 -221.845)" fill="url(#linear-gradient-8)"/>
          <path id="Path_2415" data-name="Path 2415" d="M220.764,238.374l-16.432-9.487a2.185,2.185,0,0,1-1.171-1.384v76.842c-.127.62.273,1.307,1.171,1.826l16.432,9.487a5.634,5.634,0,0,0,2.621.682V239.057A5.644,5.644,0,0,1,220.764,238.374Z" transform="translate(-203.138 -221.845)" fill="url(#linear-gradient-9)"/>
        </g>
      </g>
      <g id="Group_635" data-name="Group 635" transform="translate(23.469 25.974)">
        <g id="Group_626" data-name="Group 626">
          <path id="Path_2416" data-name="Path 2416" d="M275.661,246.755l-28.2,16.194a5.462,5.462,0,0,1-4.895-.2l-9.382-5.6c-1.442-.832-1.6-2.1-.351-2.825l28.1-16.115a5.458,5.458,0,0,1,4.894.2l9.489,5.517C276.752,244.762,276.911,246.034,275.661,246.755Z" transform="translate(-231.987 -237.723)" fill="#fff"/>
          <g id="Group_625" data-name="Group 625" transform="translate(0 8.033)">
            <path id="Path_2417" data-name="Path 2417" d="M279.506,250.361V247.6h0a1.556,1.556,0,0,1-.819,1l-28.2,16.194a4.439,4.439,0,0,1-2.273.48v3.206a4.44,4.44,0,0,0,2.273-.48l28.2-16.194A1.377,1.377,0,0,0,279.506,250.361Z" transform="translate(-235.014 -247.597)" fill="#cbcbcb"/>
            <path id="Path_2418" data-name="Path 2418" d="M242.563,266.883l-9.382-5.6a2.185,2.185,0,0,1-1.171-1.384v2.763c-.127.62.273,1.308,1.171,1.826l9.382,5.6a5.655,5.655,0,0,0,2.622.683v-3.206A5.656,5.656,0,0,1,242.563,266.883Z" transform="translate(-231.988 -249.892)" fill="url(#linear-gradient-8)"/>
            <path id="Path_2419" data-name="Path 2419" d="M242.563,266.883l-9.382-5.6a2.185,2.185,0,0,1-1.171-1.384v2.763c-.127.62.273,1.308,1.171,1.826l9.382,5.6a5.655,5.655,0,0,0,2.622.683v-3.206A5.656,5.656,0,0,1,242.563,266.883Z" transform="translate(-231.988 -249.892)" fill="#bdcefa"/>
          </g>
        </g>
        <g id="Group_628" data-name="Group 628" transform="translate(12.056 16.799)">
          <path id="Path_2420" data-name="Path 2420" d="M290.481,267.406l-28.2,16.194a5.461,5.461,0,0,1-4.894-.2L248,277.8c-1.442-.833-1.6-2.1-.351-2.825l28.1-16.116a5.461,5.461,0,0,1,4.894.2l9.489,5.517C291.572,265.413,291.731,266.684,290.481,267.406Z" transform="translate(-246.807 -258.373)" fill="#fff"/>
          <g id="Group_627" data-name="Group 627" transform="translate(0 8.033)">
            <path id="Path_2421" data-name="Path 2421" d="M294.326,271.011v-2.763h0a1.556,1.556,0,0,1-.819,1l-28.2,16.194a4.443,4.443,0,0,1-2.273.48v3.206a4.443,4.443,0,0,0,2.273-.48l28.2-16.194A1.379,1.379,0,0,0,294.326,271.011Z" transform="translate(-249.834 -268.248)" fill="#cbcbcb"/>
            <path id="Path_2422" data-name="Path 2422" d="M257.383,287.534l-9.382-5.6a2.184,2.184,0,0,1-1.171-1.384v2.763c-.127.62.273,1.308,1.171,1.826l9.382,5.6a5.648,5.648,0,0,0,2.621.683v-3.206A5.645,5.645,0,0,1,257.383,287.534Z" transform="translate(-246.808 -270.543)" fill="url(#linear-gradient-8)"/>
            <path id="Path_2423" data-name="Path 2423" d="M257.383,287.534l-9.382-5.6a2.184,2.184,0,0,1-1.171-1.384v2.763c-.127.62.273,1.308,1.171,1.826l9.382,5.6a5.648,5.648,0,0,0,2.621.683v-3.206A5.645,5.645,0,0,1,257.383,287.534Z" transform="translate(-246.808 -270.543)" fill="#bdcefa"/>
          </g>
        </g>
        <g id="Group_630" data-name="Group 630" transform="translate(24.111 33.597)">
          <path id="Path_2424" data-name="Path 2424" d="M305.3,288.057,277.1,304.25a5.458,5.458,0,0,1-4.894-.2l-9.382-5.6c-1.442-.833-1.6-2.1-.351-2.826l28.1-16.115a5.459,5.459,0,0,1,4.895.2l9.489,5.518C306.392,286.064,306.55,287.335,305.3,288.057Z" transform="translate(-261.627 -279.023)" fill="#fff"/>
          <g id="Group_629" data-name="Group 629" transform="translate(0.001 8.033)">
            <path id="Path_2425" data-name="Path 2425" d="M309.146,291.662V288.9h0a1.558,1.558,0,0,1-.819,1l-28.2,16.193a4.427,4.427,0,0,1-2.273.48v3.206a4.435,4.435,0,0,0,2.273-.48l28.2-16.194A1.377,1.377,0,0,0,309.146,291.662Z" transform="translate(-264.654 -288.898)" fill="#cbcbcb"/>
            <path id="Path_2426" data-name="Path 2426" d="M272.2,308.185l-9.382-5.6a2.188,2.188,0,0,1-1.171-1.385v2.764c-.127.62.273,1.308,1.171,1.826l9.382,5.6a5.633,5.633,0,0,0,2.621.683v-3.206A5.631,5.631,0,0,1,272.2,308.185Z" transform="translate(-261.628 -291.193)" fill="url(#linear-gradient-8)"/>
            <path id="Path_2427" data-name="Path 2427" d="M272.2,308.185l-9.382-5.6a2.188,2.188,0,0,1-1.171-1.385v2.764c-.127.62.273,1.308,1.171,1.826l9.382,5.6a5.633,5.633,0,0,0,2.621.683v-3.206A5.631,5.631,0,0,1,272.2,308.185Z" transform="translate(-261.628 -291.193)" fill="#bdcefa"/>
          </g>
        </g>
        <g id="Group_632" data-name="Group 632" transform="translate(36.167 50.397)">
          <path id="Path_2428" data-name="Path 2428" d="M320.121,308.707l-28.2,16.194a5.458,5.458,0,0,1-4.894-.2l-9.382-5.6c-1.442-.833-1.6-2.1-.351-2.826l28.1-16.115a5.46,5.46,0,0,1,4.895.2l9.489,5.518C321.212,306.714,321.37,307.986,320.121,308.707Z" transform="translate(-276.447 -299.675)" fill="#fff"/>
          <g id="Group_631" data-name="Group 631" transform="translate(0.001 8.033)">
            <path id="Path_2429" data-name="Path 2429" d="M323.966,312.313V309.55h0a1.557,1.557,0,0,1-.819,1l-28.2,16.194a4.436,4.436,0,0,1-2.273.48v3.206a4.437,4.437,0,0,0,2.273-.48l28.2-16.194A1.378,1.378,0,0,0,323.966,312.313Z" transform="translate(-279.473 -309.549)" fill="#cbcbcb"/>
            <path id="Path_2430" data-name="Path 2430" d="M287.023,328.835l-9.382-5.6a2.187,2.187,0,0,1-1.171-1.384v2.763c-.127.62.273,1.308,1.171,1.826l9.382,5.6a5.653,5.653,0,0,0,2.621.682v-3.206A5.642,5.642,0,0,1,287.023,328.835Z" transform="translate(-276.448 -311.844)" fill="url(#linear-gradient-8)"/>
            <path id="Path_2431" data-name="Path 2431" d="M287.023,328.835l-9.382-5.6a2.187,2.187,0,0,1-1.171-1.384v2.763c-.127.62.273,1.308,1.171,1.826l9.382,5.6a5.653,5.653,0,0,0,2.621.682v-3.206A5.642,5.642,0,0,1,287.023,328.835Z" transform="translate(-276.448 -311.844)" fill="#bdcefa"/>
          </g>
        </g>
        <g id="Group_634" data-name="Group 634" transform="translate(48.222 67.196)">
          <path id="Path_2432" data-name="Path 2432" d="M334.94,329.358l-28.2,16.194a5.462,5.462,0,0,1-4.895-.2l-9.381-5.6c-1.443-.832-1.6-2.1-.351-2.825l28.1-16.116a5.462,5.462,0,0,1,4.895.2l9.488,5.517C336.032,327.365,336.19,328.636,334.94,329.358Z" transform="translate(-291.267 -320.325)" fill="#fff"/>
          <g id="Group_633" data-name="Group 633" transform="translate(0.001 8.033)">
            <path id="Path_2433" data-name="Path 2433" d="M338.785,332.963V330.2h0a1.557,1.557,0,0,1-.82,1l-28.2,16.194a4.435,4.435,0,0,1-2.273.48v3.206a4.444,4.444,0,0,0,2.273-.48l28.2-16.194A1.376,1.376,0,0,0,338.785,332.963Z" transform="translate(-294.293 -330.2)" fill="#cbcbcb"/>
            <path id="Path_2434" data-name="Path 2434" d="M301.842,349.487l-9.381-5.6a2.185,2.185,0,0,1-1.171-1.384v2.763c-.127.62.273,1.308,1.171,1.826l9.381,5.6a5.647,5.647,0,0,0,2.622.683v-3.206A5.654,5.654,0,0,1,301.842,349.487Z" transform="translate(-291.268 -332.495)" fill="url(#linear-gradient-8)"/>
            <path id="Path_2435" data-name="Path 2435" d="M301.842,349.487l-9.381-5.6a2.185,2.185,0,0,1-1.171-1.384v2.763c-.127.62.273,1.308,1.171,1.826l9.381,5.6a5.647,5.647,0,0,0,2.622.683v-3.206A5.654,5.654,0,0,1,301.842,349.487Z" transform="translate(-291.268 -332.495)" fill="#bdcefa"/>
          </g>
        </g>
      </g>
    </g>
    <g id="Group_643" data-name="Group 643" transform="translate(140.876 140.584)">
      <g id="Group_637" data-name="Group 637" transform="translate(9.941 49.316)">
        <path id="Path_2436" data-name="Path 2436" d="M227.5,227.3c-.04.677.983,1.627,2.538,2.525,2.07,1.194,2.8,2.708,5.36,1.232.732-.423,1.039-.759,1.057-1.052v-1.59c.072-.74-1.7-1.2-3.19-2.059-2.069-1.2-4.3-1.845-5.36-1.232a.7.7,0,0,0-.4.586Z" transform="translate(-227.498 -224.891)"/>
        <path id="Path_2437" data-name="Path 2437" d="M230.038,228.221c-2.069-1.194-3.2-2.481-2.134-3.094s3.291.037,5.36,1.232,4.691,1.618,2.134,3.094S232.107,229.416,230.038,228.221Z" transform="translate(-227.497 -224.891)" fill="#2d0d60"/>
      </g>
      <g id="Group_638" data-name="Group 638" transform="translate(15.693 45.354)">
        <path id="Path_2438" data-name="Path 2438" d="M234.57,222.431c-.039.677.983,1.627,2.538,2.525,2.069,1.2,2.8,2.709,5.361,1.232.731-.422,1.038-.758,1.056-1.051v-1.59c.072-.74-1.7-1.2-3.19-2.059-2.069-1.2-4.3-1.845-5.36-1.232a.7.7,0,0,0-.405.586Z" transform="translate(-234.568 -220.021)"/>
        <path id="Path_2439" data-name="Path 2439" d="M237.108,223.351c-2.069-1.195-3.2-2.482-2.133-3.1s3.291.037,5.36,1.232,4.691,1.618,2.134,3.094S239.177,224.545,237.108,223.351Z" transform="translate(-234.568 -220.021)" fill="#2d0d60"/>
      </g>
      <g id="Group_639" data-name="Group 639" transform="translate(12.626)">
        <path id="Path_2440" data-name="Path 2440" d="M231.591,164.527h0a1.7,1.7,0,0,1,2.342.534l7.06,11.229a1.7,1.7,0,0,1-.534,2.341h0a1.7,1.7,0,0,1-2.342-.534l-7.06-11.229A1.7,1.7,0,0,1,231.591,164.527Z" transform="translate(-230.799 -164.268)" fill="#fcc4b7"/>
        <path id="Path_2441" data-name="Path 2441" d="M237.462,179.028l2.279,3.623a2.633,2.633,0,0,0,3.621.825h0a2.633,2.633,0,0,0,.826-3.621l-2.278-3.623S239.054,175.158,237.462,179.028Z" transform="translate(-232.041 -166.474)" fill="#0382ff"/>
      </g>
      <g id="Group_640" data-name="Group 640" transform="translate(13.801 31.816)">
        <path id="Path_2442" data-name="Path 2442" d="M237.266,223.679a1.119,1.119,0,0,0,.119-.515V205.419a2.36,2.36,0,0,0-2.571-2.04h0a2.36,2.36,0,0,0-2.571,2.04v19.3a.647.647,0,0,0,.457.621A3.615,3.615,0,0,0,237.266,223.679Z" transform="translate(-232.242 -203.379)" fill="#293677"/>
      </g>
      <g id="Group_641" data-name="Group 641" transform="translate(19.168 27.715)">
        <path id="Path_2443" data-name="Path 2443" d="M244.263,218.579a1.119,1.119,0,0,0,.107-.517l-.389-17.74a2.359,2.359,0,0,0-2.615-1.983h0a2.36,2.36,0,0,0-2.527,2.1l.423,19.292a.646.646,0,0,0,.47.609A3.614,3.614,0,0,0,244.263,218.579Z" transform="translate(-238.84 -198.337)" fill="#3a55ca"/>
      </g>
      <path id="Path_2444" data-name="Path 2444" d="M232.511,204.364a.47.47,0,0,0,.217.072c1.137.088,5.224-.8,9.314-5.41a2.141,2.141,0,0,0,.554-1.325V184.623a2.15,2.15,0,0,0-.918-2l-3.075-1.794a2.146,2.146,0,0,0-2.191.2l-4.193,2.421a6.832,6.832,0,0,0-3.078,5.332v13.154a.667.667,0,0,0,.3.63Z" transform="translate(-217.863 -167.317)" fill="#bedaff"/>
      <path id="Path_2445" data-name="Path 2445" d="M234.747,184.159a1.068,1.068,0,0,0,.634.9,3.388,3.388,0,0,0,3.066,0,1.068,1.068,0,0,0,.634-.9v-2.849a1.068,1.068,0,0,0-.634-.9,3.388,3.388,0,0,0-3.066,0,1.068,1.068,0,0,0-.634.9Z" transform="translate(-218.908 -167.21)" fill="#dd936f"/>
      <ellipse id="Ellipse_80" data-name="Ellipse 80" cx="5.97" cy="5.97" rx="5.97" ry="5.97" transform="translate(12.035 3.585)" fill="#fcc4b7"/>
      <g id="Group_642" data-name="Group 642" transform="translate(0 8.013)">
        <path id="Path_2446" data-name="Path 2446" d="M215.686,174.706h0a1.7,1.7,0,0,1,2.394-.18l9.59,8.691a1.7,1.7,0,0,1,.18,2.395h0a1.7,1.7,0,0,1-2.395.179l-9.59-8.69A1.7,1.7,0,0,1,215.686,174.706Z" transform="translate(-215.277 -174.117)" fill="#fcc4b7"/>
        <path id="Path_2447" data-name="Path 2447" d="M225.1,186.744l3.243,2.792a2.634,2.634,0,0,0,3.7-.277h0a2.634,2.634,0,0,0-.277-3.7l-3.244-2.792S225.479,182.576,225.1,186.744Z" transform="translate(-217.109 -175.73)" fill="#0382ff"/>
      </g>
      <path id="Path_2448" data-name="Path 2448" d="M239.4,179.7c-1.882,1.1-3.321.264-3.832-.531-1.289-2-1.5-.665-2.27-1.6-1.006-1.653-.781-3.906-2.176-4.948-2-1.494-1.454-4.469,3.769-5.8,7.017-1.79,9.781,7.052,5.4,12.162A2.769,2.769,0,0,1,239.4,179.7Z" transform="translate(-218.032 -164.698)" fill="#b25e02" fill-rule="evenodd"/>
      <path id="Path_2449" data-name="Path 2449" d="M234.548,179.744a.68.68,0,0,1-1.245-.334,2.469,2.469,0,0,1,.578-2.157.68.68,0,0,1,1.245.334A2.465,2.465,0,0,1,234.548,179.744Z" transform="translate(-218.628 -166.634)" fill="#fcc4b7"/>
    </g>
    <g id="Group_687" data-name="Group 687" transform="translate(83.06 178.269)">
      <g id="Group_684" data-name="Group 684">
        <g id="Group_679" data-name="Group 679" transform="translate(14.132 29.924)">
          <g id="Group_678" data-name="Group 678" transform="translate(2.775 13.952)">
            <g id="Group_677" data-name="Group 677">
              <path id="Path_2503" data-name="Path 2503" d="M164.991,267.51c-.022.216.151.4.438.586.083.053-.011-1.167.273-.963.082.059,4,3.107,6.184,2.544a.464.464,0,0,0,.327-.47v-.491c.03-.555-.795-1.4-2.048-2.621-1.38-1.345-2.261-2.185-4.324-.994-.59.341-.827.6-.83.813Z" transform="translate(-164.989 -264.53)"/>
              <path id="Path_2504" data-name="Path 2504" d="M170.171,266.094c1.668,1.625,2.577,2.585,1.721,3.08s-2.567-.251-4.324-1.577c-1.537-1.162-3.784-1.3-1.72-2.5S168.791,264.749,170.171,266.094Z" transform="translate(-164.994 -264.53)" fill="#484968"/>
            </g>
          </g>
          <path id="Path_2505" data-name="Path 2505" d="M167.868,261.971l-.109-12.816a1.5,1.5,0,0,0-.962-1.39l-1-.387-4.216,2.8,2.059,1.048a19.568,19.568,0,0,0,.626,6.863,10.927,10.927,0,0,1,.568,4.806S167.079,263.6,167.868,261.971Z" transform="translate(-161.577 -247.378)" fill="#f1ac85"/>
        </g>
        <g id="Group_682" data-name="Group 682" transform="translate(9.172 32.725)">
          <g id="Group_681" data-name="Group 681" transform="translate(1.581 14.217)">
            <g id="Group_680" data-name="Group 680">
              <path id="Path_2506" data-name="Path 2506" d="M157.425,271.279c-.021.216.152.4.439.586.082.053-.01-1.166.273-.963.082.059,4,3.108,6.184,2.545a.464.464,0,0,0,.327-.47v-.491c.031-.555-.794-1.4-2.047-2.621-1.38-1.345-2.261-2.185-4.324-.994-.589.341-.826.6-.829.813Z" transform="translate(-157.423 -268.299)"/>
              <path id="Path_2507" data-name="Path 2507" d="M162.606,269.863c1.667,1.625,2.577,2.585,1.721,3.08s-2.567-.251-4.324-1.577c-1.537-1.162-3.784-1.3-1.721-2.5S161.226,268.518,162.606,269.863Z" transform="translate(-157.428 -268.299)" fill="#484968"/>
            </g>
          </g>
          <path id="Path_2508" data-name="Path 2508" d="M160.562,265.827l-.122-15.005-4.961,1.608.85,2.445a18.07,18.07,0,0,0,.627,6.576,10.926,10.926,0,0,1,.568,4.806A2.456,2.456,0,0,0,160.562,265.827Z" transform="translate(-155.479 -250.822)" fill="#f1ac85"/>
        </g>
        <path id="Path_2509" data-name="Path 2509" d="M156.172,228.845s5.526-5.023,2.156-13.962l-2.589,9.278Z" transform="translate(-146.356 -211.393)" fill="#943bbb"/>
        <g id="Group_683" data-name="Group 683" transform="translate(9.844 11.415)">
          <path id="Path_2510" data-name="Path 2510" d="M162.821,242.907h0a1.632,1.632,0,0,1-2.02-1.1l-4.429-15.1a1.63,1.63,0,0,1,1.1-2.019h0a1.629,1.629,0,0,1,2.019,1.1l4.429,15.1A1.631,1.631,0,0,1,162.821,242.907Z" transform="translate(-156.306 -224.625)" fill="#f1ac85"/>
        </g>
        <path id="Path_2511" data-name="Path 2511" d="M156.651,242.163l7.509,4.629s-2.614-.64-9.33,6.468L147.445,249Z" transform="translate(-144.809 -216.482)" fill="#8800bf"/>
        <path id="Path_2512" data-name="Path 2512" d="M147.9,246.152a.459.459,0,0,0,.208.069c1.088.084,5-.768,8.915-5.179a2.047,2.047,0,0,0,.53-1.268V227.256a2.058,2.058,0,0,0-.879-1.911l-2.944-1.717a2.057,2.057,0,0,0-2.1.192l-4.014,2.318a6.539,6.539,0,0,0-2.947,5.1v12.591a.637.637,0,0,0,.284.6Z" transform="translate(-144.292 -212.986)" fill="#ffffeb"/>
        <path id="Path_2513" data-name="Path 2513" d="M149.187,226.813a1.023,1.023,0,0,0,.607.861,3.245,3.245,0,0,0,2.935,0,1.023,1.023,0,0,0,.607-.861v-2.728a1.023,1.023,0,0,0-.607-.861,3.245,3.245,0,0,0-2.935,0,1.023,1.023,0,0,0-.607.861Z" transform="translate(-145.134 -212.884)" fill="#dd936f"/>
        <ellipse id="Ellipse_83" data-name="Ellipse 83" cx="5.714" cy="5.714" rx="5.714" ry="5.714" transform="translate(0.413 1.136)" fill="#f1ac85"/>
        <path id="Path_2514" data-name="Path 2514" d="M152.026,228.045s-4.25-4.684-1.3-13.358l5.291,1.822s1.822-4.511-4.163-5.812c0,0-3.99-.867-5.378,2.429,0,0-3.209.26-1.995,6.853C144.479,219.978,144.652,226.223,152.026,228.045Z" transform="translate(-144.205 -210.593)" fill="#943bbb"/>
        <path id="Path_2515" data-name="Path 2515" d="M146.87,227.924" transform="translate(-144.702 -213.826)" fill="#1f1f1f"/>
        <path id="Path_2516" data-name="Path 2516" d="M156.524,255.8" transform="translate(-146.502 -219.026)" fill="#54a5f8"/>
      </g>
      <g id="Group_685" data-name="Group 685" transform="translate(2.703 18.833)">
        <path id="Path_2517" data-name="Path 2517" d="M166.549,245.955l-10.765,6.194-8.257-4.5,11.017-6.3Z" transform="translate(-147.528 -235.162)" fill="#bdcefa"/>
        <path id="Path_2518" data-name="Path 2518" d="M168.443,244.538l1.693-10.794-11.95,6.891-.508,10.1Z" transform="translate(-149.421 -233.744)" fill="url(#linear-gradient-15)"/>
      </g>
      <g id="Group_686" data-name="Group 686" transform="translate(0.25 15.311)">
        <path id="Path_2519" data-name="Path 2519" d="M157.354,244.18h0a1.63,1.63,0,0,1-2.292-.181L144.9,232.094a1.631,1.631,0,0,1,.181-2.292h0a1.631,1.631,0,0,1,2.292.181l10.164,11.905A1.631,1.631,0,0,1,157.354,244.18Z" transform="translate(-144.512 -229.415)" fill="#f1ac85"/>
      </g>
    </g>
    <g id="Group_700" data-name="Group 700" transform="translate(177.074 178.703)">
      <g id="Group_691" data-name="Group 691" transform="translate(2.694 29.832)">
        <g id="Group_690" data-name="Group 690">
          <g id="Group_689" data-name="Group 689" transform="translate(0 9.483)">
            <g id="Group_688" data-name="Group 688">
              <path id="Path_2520" data-name="Path 2520" d="M263.373,260.24c-.193.085-.268.32-.285.65-.006.094.98-.565.944-.229-.011.1-.717,4.858.8,6.435a.449.449,0,0,0,.552.052l.416-.235c.482-.239.8-1.339,1.236-2.979.478-1.808.766-2.951-1.223-4.125-.569-.335-.9-.413-1.081-.312Z" transform="translate(-263.088 -259.456)" fill="#010400"/>
              <path id="Path_2521" data-name="Path 2521" d="M267.338,263.935c-.577,2.183-.953,3.409-1.78,2.922s-1.013-2.288-.731-4.4c.248-1.852-.7-3.818,1.287-2.644S267.816,262.127,267.338,263.935Z" transform="translate(-263.39 -259.455)" fill="#484968"/>
            </g>
          </g>
          <path id="Path_2522" data-name="Path 2522" d="M280.323,247.8l-4.085,1.5-1.659,1.885a17.519,17.519,0,0,0-5.253,3.666,10.6,10.6,0,0,1-3.788,2.772,2.382,2.382,0,0,0,1.812,2.36l11.645-6.7a2.936,2.936,0,0,0,1.454-2.232A13.089,13.089,0,0,0,280.323,247.8Z" transform="translate(-263.545 -247.798)" fill="#e28c66"/>
        </g>
      </g>
      <g id="Group_694" data-name="Group 694" transform="translate(10.101 33.734)">
        <g id="Group_693" data-name="Group 693" transform="translate(0.778 13.787)">
          <g id="Group_692" data-name="Group 692">
            <path id="Path_2523" data-name="Path 2523" d="M273.152,272.433c-.021.21.147.391.426.569.08.05-.011-1.132.264-.935.08.057,3.877,3.014,6,2.468a.449.449,0,0,0,.316-.456V273.6c.029-.538-.77-1.358-1.986-2.541-1.339-1.3-2.192-2.119-4.193-.964-.572.33-.8.578-.8.788Z" transform="translate(-273.15 -269.544)" fill="#2d0d60"/>
            <path id="Path_2524" data-name="Path 2524" d="M278.176,271.061c1.617,1.576,2.5,2.507,1.669,2.986s-2.49-.242-4.193-1.529c-1.491-1.127-3.67-1.266-1.668-2.421S276.837,269.756,278.176,271.061Z" transform="translate(-273.155 -269.544)" fill="#484968"/>
          </g>
        </g>
        <path id="Path_2525" data-name="Path 2525" d="M276.366,267.147l-.118-14.552-3.946,1.28-.04,2.651a17.538,17.538,0,0,0,.608,6.378,10.6,10.6,0,0,1,.55,4.661A2.383,2.383,0,0,0,276.366,267.147Z" transform="translate(-272.193 -252.595)" fill="#f1ac85"/>
      </g>
      <g id="Group_695" data-name="Group 695" transform="translate(16.565 11.088)">
        <path id="Path_2526" data-name="Path 2526" d="M288.611,241.568h0a1.58,1.58,0,0,1-2.087-.784l-6.246-13.8a1.581,1.581,0,0,1,.784-2.087h0a1.581,1.581,0,0,1,2.087.784l6.246,13.8A1.581,1.581,0,0,1,288.611,241.568Z" transform="translate(-280.139 -224.757)" fill="#e28c66"/>
      </g>
      <g id="Group_697" data-name="Group 697" transform="translate(15.865 12.797)">
        <path id="Path_2527" data-name="Path 2527" d="M289.059,240.391l-9.78-5.647v-7.887l9.78,5.647Z" transform="translate(-279.279 -226.857)" fill="#bdcefa"/>
        <g id="Group_696" data-name="Group 696" transform="translate(5.481 4.328)">
          <path id="Path_2528" data-name="Path 2528" d="M288.341,239.5V233.52l.209.121v5.983Z" transform="translate(-286.45 -232.428)" fill="url(#linear-gradient-16)"/>
          <path id="Path_2529" data-name="Path 2529" d="M287.76,237.4v-4.211l.209.121v4.211Z" transform="translate(-286.341 -232.365)" fill="url(#linear-gradient-17)"/>
          <path id="Path_2530" data-name="Path 2530" d="M287.178,238.37v-5.522l.209.121v5.522Z" transform="translate(-286.233 -232.303)" fill="url(#linear-gradient-18)"/>
          <path id="Path_2531" data-name="Path 2531" d="M286.6,238.5v-5.983l.209.121v5.983Z" transform="translate(-286.124 -232.24)" fill="url(#linear-gradient-19)"/>
          <path id="Path_2532" data-name="Path 2532" d="M286.016,234.37v-2.192l.209.121v2.192Z" transform="translate(-286.016 -232.178)" fill="url(#linear-gradient-20)"/>
        </g>
      </g>
      <path id="Path_2533" data-name="Path 2533" d="M269.175,247.227V252.6s6.3,2.126,12.216-5.374v-5.2Z" transform="translate(-261.529 -216.89)" fill="url(#linear-gradient-21)"/>
      <path id="Path_2534" data-name="Path 2534" d="M271.966,245.413a.437.437,0,0,0,.2.067c1.055.081,4.849-.745,8.645-5.022a1.984,1.984,0,0,0,.515-1.231V227.087a2,2,0,0,0-.852-1.853l-2.855-1.665a1.993,1.993,0,0,0-2.034.186L271.695,226a6.339,6.339,0,0,0-2.858,4.949v12.211a.62.62,0,0,0,.275.584Z" transform="translate(-261.466 -213.41)" fill="#b6b9fe"/>
      <path id="Path_2535" data-name="Path 2535" d="M274.041,226.657a.993.993,0,0,0,.589.835,3.145,3.145,0,0,0,2.846,0,.991.991,0,0,0,.588-.835v-2.645a.992.992,0,0,0-.588-.835,3.15,3.15,0,0,0-2.846,0,.994.994,0,0,0-.589.835Z" transform="translate(-262.436 -213.311)" fill="#dd936f"/>
      <g id="Group_698" data-name="Group 698" transform="translate(0 14.133)">
        <path id="Path_2536" data-name="Path 2536" d="M260.64,245.083h0a1.581,1.581,0,0,1-.7-2.118l6.863-13.6a1.581,1.581,0,0,1,2.118-.7h0a1.581,1.581,0,0,1,.7,2.118l-6.863,13.6A1.582,1.582,0,0,1,260.64,245.083Z" transform="translate(-259.776 -228.5)" fill="#f9ab83"/>
      </g>
      <g id="Group_699" data-name="Group 699" transform="translate(6.422 0)">
        <path id="Path_2537" data-name="Path 2537" d="M281.807,216.677,283.8,224.4a.9.9,0,0,1-1.218,1.057L278,223.551a.9.9,0,0,1-.538-1.006l1.5-7.6a.9.9,0,0,1,1.652-.3l1.089,1.778A.932.932,0,0,1,281.807,216.677Z" transform="translate(-269.493 -211.704)" fill="#2d0d60"/>
        <path id="Path_2538" data-name="Path 2538" d="M273.768,222.478c0,.661-.465.929-1.036.6a2.292,2.292,0,0,1-1.036-1.8c0-.661.464-.929,1.036-.6A2.292,2.292,0,0,1,273.768,222.478Z" transform="translate(-268.421 -212.883)" fill="#f9ab83"/>
        <ellipse id="Ellipse_84" data-name="Ellipse 84" cx="5.542" cy="5.542" rx="5.542" ry="5.542" transform="translate(1.628 0.901)" fill="#f9ab83"/>
        <path id="Path_2539" data-name="Path 2539" d="M269.827,218.308s4.683,2.568,6.965-4.112a3.85,3.85,0,0,0,4.267,2.2,5.437,5.437,0,0,0-4.534-5.245S268.51,210.348,269.827,218.308Z" transform="translate(-268.045 -211.126)" fill="#2d0d60"/>
        <path id="Path_2540" data-name="Path 2540" d="M272.033,219.662l1.99,7.721a.9.9,0,0,1-1.219,1.057l-4.579-1.9a.9.9,0,0,1-.538-1.006l1.5-7.6a.9.9,0,0,1,1.652-.3l1.089,1.779A.883.883,0,0,1,272.033,219.662Z" transform="translate(-267.67 -212.26)" fill="#2d0d60"/>
      </g>
    </g>
    <g id="Group_709" data-name="Group 709" transform="translate(218.849 276.214)">
      <g id="Group_701" data-name="Group 701" transform="translate(0 12.181)">
        <path id="Path_2541" data-name="Path 2541" d="M312.023,362.952h0a1.528,1.528,0,0,0,2.018-.758l4.922-10.846a1.529,1.529,0,0,0-.758-2.018h0a1.529,1.529,0,0,0-2.018.758l-4.922,10.846A1.529,1.529,0,0,0,312.023,362.952Z" transform="translate(-311.129 -346.571)" fill="#fcc4b7"/>
        <path id="Path_2542" data-name="Path 2542" d="M315.459,350.852l1.588-3.5a2.365,2.365,0,0,1,3.122-1.173h0a2.365,2.365,0,0,1,1.173,3.122l-1.588,3.5S317.344,354.1,315.459,350.852Z" transform="translate(-311.937 -345.969)" fill="#bdcefa"/>
      </g>
      <g id="Group_705" data-name="Group 705" transform="translate(6.176 26.959)">
        <g id="Group_702" data-name="Group 702">
          <path id="Path_2543" data-name="Path 2543" d="M323.247,365.793a.984.984,0,0,1,.113.46l0,5.177a2.119,2.119,0,0,1-2.282,1.866h0a2.12,2.12,0,0,1-2.335-1.8l-.016-6.569a.582.582,0,0,1,.4-.563A3.245,3.245,0,0,1,323.247,365.793Z" transform="translate(-318.722 -364.135)" fill="#2d2d4f"/>
        </g>
        <g id="Group_704" data-name="Group 704" transform="translate(0.069 4.718)">
          <g id="Group_703" data-name="Group 703" transform="translate(10.686 6.335)">
            <path id="Path_2544" data-name="Path 2544" d="M336.534,378.608c.614.264.2,1.859.229,3.4.037,2.145-.423,4.179-1.367,4.746a.628.628,0,0,1-.634.064l-.953-.53c-.557-.269-.935-1.529-1.447-3.408-.565-2.07-.906-3.38,1.367-4.746.65-.39,1.026-.483,1.239-.368Z" transform="translate(-331.944 -377.722)" fill="#010400"/>
            <path id="Path_2545" data-name="Path 2545" d="M332.361,382.883c.682,2.5,1.126,3.9,2.07,3.338s1.142-2.635.8-5.061c-.3-2.124.772-4.389-1.5-3.023S331.8,380.812,332.361,382.883Z" transform="translate(-331.944 -377.722)" fill="#1c1c38"/>
          </g>
          <path id="Path_2546" data-name="Path 2546" d="M329.484,379.495a.993.993,0,0,1-.456-.131l-9.388-5.2a2.12,2.12,0,0,1-.482-2.908h0a2.119,2.119,0,0,1,2.722-1.131L332.485,376a.581.581,0,0,1,.288.63A3.246,3.246,0,0,1,329.484,379.495Z" transform="translate(-318.807 -369.935)" fill="#2d2d4f"/>
        </g>
      </g>
      <g id="Group_707" data-name="Group 707" transform="translate(7.44 27.837)">
        <g id="Group_706" data-name="Group 706" transform="translate(0 17.799)">
          <path id="Path_2547" data-name="Path 2547" d="M328.317,390.411c.066.665-1.528,1.079-2.864,1.85-1.858,1.073-3.86,1.657-4.813,1.106a.629.629,0,0,1-.364-.523v-1.091c-.034-.618.884-1.559,2.279-2.918,1.537-1.5,2.517-2.432,4.813-1.106.656.379.92.662.922.9Z" transform="translate(-320.275 -387.094)" fill="#010400"/>
          <path id="Path_2548" data-name="Path 2548" d="M322.555,388.836c-1.856,1.808-2.869,2.877-1.916,3.428s2.859-.278,4.813-1.756c1.711-1.293,4.212-1.453,1.916-2.779S324.092,387.338,322.555,388.836Z" transform="translate(-320.275 -387.094)" fill="#1c1c38"/>
        </g>
        <path id="Path_2549" data-name="Path 2549" d="M324.88,383.442a1,1,0,0,1-.107-.461V367.046a2.118,2.118,0,0,1,2.309-1.832h0a2.118,2.118,0,0,1,2.309,1.832v17.326a.581.581,0,0,1-.41.557A3.245,3.245,0,0,1,324.88,383.442Z" transform="translate(-321.114 -365.214)" fill="#46466c"/>
      </g>
      <path id="Path_2550" data-name="Path 2550" d="M327.438,366.1a.424.424,0,0,1-.2.065c-1.021.079-4.691-.721-8.363-4.859a1.92,1.92,0,0,1-.5-1.19V348.372a1.932,1.932,0,0,1,.825-1.793l2.761-1.611a1.929,1.929,0,0,1,1.967.181l3.766,2.174a6.133,6.133,0,0,1,2.764,4.788v11.811a.6.6,0,0,1-.266.565Z" transform="translate(-312.482 -333.565)" fill="#fff"/>
      <path id="Path_2551" data-name="Path 2551" d="M327.308,347.956a.959.959,0,0,1-.569.808,3.041,3.041,0,0,1-2.754,0,.96.96,0,0,1-.569-.808V345.4a.96.96,0,0,1,.569-.808,3.047,3.047,0,0,1,2.754,0,.959.959,0,0,1,.569.808Z" transform="translate(-313.421 -333.469)" fill="#e5a89c"/>
      <g id="Group_708" data-name="Group 708" transform="translate(14.97 15.187)">
        <path id="Path_2552" data-name="Path 2552" d="M339.233,366.358h0a1.53,1.53,0,0,0,.673-2.049l-5.375-10.629a1.529,1.529,0,0,0-2.048-.673h0a1.53,1.53,0,0,0-.673,2.049l5.374,10.629A1.53,1.53,0,0,0,339.233,366.358Z" transform="translate(-329.926 -350.257)" fill="#fcc4b7"/>
        <path id="Path_2553" data-name="Path 2553" d="M331.519,356.514l-1.734-3.429a2.366,2.366,0,0,1,1.04-3.169h0a2.365,2.365,0,0,1,3.169,1.04l1.734,3.43S335.233,357.081,331.519,356.514Z" transform="translate(-329.532 -349.664)" fill="#bdcefa"/>
      </g>
      <path id="Path_2554" data-name="Path 2554" d="M319.156,339.412a5.36,5.36,0,1,0,5.36-5.36A5.36,5.36,0,0,0,319.156,339.412Z" transform="translate(-312.626 -331.565)" fill="#fcc4b7"/>
      <path id="Path_2555" data-name="Path 2555" d="M328.831,332.5c4.581,1.573,2.3,8.263-1.029,10.676-1.629-.89.352-2.484-1.87-1.375-.443-2.154.552-1.5-.051-4.207-2.329,1.215-6.863-.258-7.567-2.5.811-.36,1.661-2.664,3.559-3.509C324.315,330.5,327.441,330.977,328.831,332.5Z" transform="translate(-312.469 -330.995)" fill="#e58800" fill-rule="evenodd"/>
      <path id="Path_2556" data-name="Path 2556" d="M327.946,343.914c0,.639.449.9,1,.578a2.215,2.215,0,0,0,1-1.736c0-.639-.449-.9-1-.578A2.215,2.215,0,0,0,327.946,343.914Z" transform="translate(-314.266 -333.055)" fill="#fcc4b7"/>
    </g>
  </g>
</svg>
