<svg xmlns="http://www.w3.org/2000/svg" xmlns:xlink="http://www.w3.org/1999/xlink" width="565.099" height="564.184" viewBox="0 0 565.099 564.184">
  <defs>
    <linearGradient id="linear-gradient" x1="0.5" y1="1" x2="0.5" gradientUnits="objectBoundingBox">
      <stop offset="0" stop-color="#ea4335"/>
      <stop offset="1" stop-color="#ea9c35"/>
    </linearGradient>
  </defs>
  <path id="Path_2557" data-name="Path 2557" d="M144.21,303.842c-18.1-27.119-41.06-50.963-66.924-71.589-23.7-18.9-48.382-38.1-63.232-64.528C-5.637,132.676-4.552,86.911,16.78,52.834S78.8-2.214,118.932.186C159.3,2.6,195.208,26.261,234.614,35.377c24.076,5.568,49.116,5.615,73.371,10.364S357,61.134,370.373,81.914c13.451,20.9,12.727,48.432,4.414,71.859s-23.3,43.78-37.615,64.1S308.766,259.4,302.7,283.508c-5.65,22.436-4.1,46.493-12.08,68.21-7.962,21.658-7.748,56.123-29.274,64.474-13.822,5.364-51.077-3.356-65.287-11.512-12.893-7.4-17.285-25.617-21.5-38.635A251.457,251.457,0,0,0,144.21,303.842Z" transform="matrix(-0.695, 0.719, -0.719, -0.695, 565.099, 290.259)" opacity="0.24" fill="url(#linear-gradient)"/>
</svg>
