<svg xmlns="http://www.w3.org/2000/svg" xmlns:xlink="http://www.w3.org/1999/xlink" width="299.113" height="349.697" viewBox="0 0 299.113 349.697">
  <defs>
    <linearGradient id="linear-gradient" y1="0.5" x2="1" y2="0.5" gradientUnits="objectBoundingBox">
      <stop offset="0" stop-color="#ea4335"/>
      <stop offset="1" stop-color="#ea9c35"/>
    </linearGradient>
  </defs>
  <path id="Path_2568" data-name="Path 2568" d="M343.78,203.324c-35.1,12.119-72.254,21.907-100.973,45.438C195.957,287.15,182.293,356.605,199.6,414.648c5.888,19.747,15.842,39.618,33.493,50.249,28.275,17.031,64.315,4.834,97.294,6.208,24.7,1.031,48.424,9.974,73.007,12.62s52.775-2.96,66.387-23.6c10.676-16.185,9.614-37.53,4.38-56.2s-14.17-36.217-18.316-55.156c-10.644-48.621,11.3-97.588,28.291-144.371,6.714-18.485,12.649-39.981-.283-57.241-10.424-13.91-23.732-16.039-38.026-7.358-15.712,9.538-27.67,24.895-42.8,35.412C385,187.742,364.43,196.2,343.78,203.324Z" transform="translate(-192.394 -134.639)" opacity="0.24" fill="url(#linear-gradient)"/>
</svg>
